<?xml version="1.0" standalone="no"?>
<!DOCTYPE svg PUBLIC "-//W3C//DTD SVG 20010904//EN"
 "http://www.w3.org/TR/2001/REC-SVG-20010904/DTD/svg10.dtd">
<svg version="1.0" xmlns="http://www.w3.org/2000/svg"
 width="1880.000000pt" height="1860.000000pt" viewBox="0 0 1880.000000 1860.000000"
 preserveAspectRatio="xMidYMid meet">
<metadata>
Created by potrace 1.16, written by Peter Selinger 2001-2019
</metadata>
<g transform="translate(0.000000,1860.000000) scale(0.100000,-0.100000)"
fill="#FFFFFF" stroke="none">
<path d="M0 9300 l0 -9300 9400 0 9400 0 0 9300 0 9300 -9400 0 -9400 0 0
-9300z m9975 9090 c921 -54 1937 -280 2790 -620 276 -111 374 -154 622 -278
756 -379 1283 -725 1950 -1280 280 -233 750 -692 954 -932 354 -415 679 -846
867 -1149 178 -289 431 -758 548 -1017 436 -970 683 -1852 783 -2799 169
-1602 -31 -3078 -611 -4490 -178 -435 -442 -959 -646 -1285 -19 -30 -49 -77
-66 -105 -583 -933 -1371 -1799 -2216 -2439 -520 -394 -957 -664 -1560 -966
-118 -59 -269 -131 -335 -160 -273 -119 -847 -328 -950 -346 -52 -9 -75 -20
-101 -51 -16 -19 -34 -27 -65 -29 -35 -3 -51 -11 -78 -40 -31 -34 -39 -37 -99
-40 -42 -3 -72 -10 -83 -20 -11 -10 -46 -19 -83 -23 -35 -4 -70 -12 -77 -18
-8 -6 -34 -14 -59 -18 -25 -4 -52 -11 -61 -16 -33 -17 -674 -89 -1169 -131
-232 -20 -327 -23 -765 -22 -466 1 -784 12 -1000 35 -49 5 -182 16 -295 24
-321 23 -666 64 -718 85 -12 5 -52 14 -89 20 -37 6 -72 15 -78 20 -6 5 -42 14
-80 20 -38 6 -74 15 -80 19 -12 10 -50 19 -106 26 -24 3 -49 11 -56 17 -7 6
-34 14 -59 19 -28 5 -60 21 -80 39 -36 31 -47 35 -126 45 -26 3 -50 10 -53 15
-9 14 -166 87 -215 99 -122 32 -565 205 -822 322 -297 135 -716 359 -991 531
-167 104 -567 375 -717 486 -295 219 -468 364 -770 647 -464 435 -850 872
-1197 1356 -289 403 -577 877 -735 1209 -20 41 -73 152 -118 245 -482 1001
-751 2018 -847 3200 -24 297 -23 988 1 1320 40 550 81 834 187 1315 209 948
568 1851 1069 2690 114 192 394 616 508 770 147 200 290 375 518 641 66 76 83
101 82 126 -1 41 10 56 37 49 32 -8 59 35 56 91 -1 26 3 43 10 43 7 0 9 -11 6
-28 -14 -68 8 -57 141 69 71 69 163 160 203 203 187 201 774 684 1084 893 814
548 1437 866 2220 1134 648 221 1415 386 2109 454 440 43 1033 53 1511 25z"/>
<path d="M9005 18284 c-49 -7 -130 -18 -180 -24 -187 -22 -228 -29 -238 -39
-8 -8 -5 -11 9 -12 35 -2 40 -4 77 -23 33 -18 41 -19 103 -7 37 8 96 27 131
43 80 36 169 57 255 59 36 1 72 6 80 10 20 13 -134 8 -237 -7z"/>
<path d="M9437 18271 c-20 -4 -48 -18 -61 -30 -24 -22 -26 -22 -75 -8 -57 16
-62 14 -28 -14 16 -13 38 -18 78 -19 90 0 259 -19 315 -35 52 -15 150 -76 234
-146 25 -21 71 -46 103 -57 93 -31 193 -92 209 -128 13 -29 13 -34 -5 -59 -11
-14 -30 -31 -43 -36 -13 -4 -24 -13 -24 -18 0 -14 107 -137 135 -155 21 -14
47 -22 78 -25 4 -1 7 -9 7 -19 0 -58 349 -269 485 -293 33 -6 121 -29 195 -50
74 -22 140 -39 147 -39 50 1 3 170 -52 184 -31 8 -36 46 -5 46 32 0 33 23 5
90 -36 86 -32 100 35 121 30 10 81 20 112 24 77 9 103 30 103 87 l0 43 80 21
c94 24 157 52 153 68 -6 19 -139 78 -192 85 -43 5 -51 9 -52 27 -2 43 10 37
-306 150 -97 34 -221 72 -275 83 -110 23 -429 65 -663 87 -182 17 -638 27
-693 15z"/>
<path d="M9215 18250 c-3 -5 1 -10 9 -10 9 0 16 5 16 10 0 6 -4 10 -9 10 -6 0
-13 -4 -16 -10z"/>
<path d="M9065 18225 c-39 -7 -90 -22 -113 -34 -56 -29 -122 -89 -122 -111 0
-37 195 -111 354 -134 54 -8 100 -17 103 -20 12 -12 -8 -35 -36 -41 -73 -16
-40 -55 66 -79 79 -19 266 -96 292 -121 12 -12 9 -18 -20 -45 -43 -40 -116
-78 -166 -85 -31 -5 -49 0 -98 26 -76 41 -115 52 -115 35 0 -8 30 -30 68 -49
65 -35 102 -74 116 -123 9 -30 -28 -72 -88 -100 -65 -30 -74 -30 -230 6 -72
17 -165 38 -206 48 -64 14 -82 23 -127 64 -28 25 -60 51 -70 56 -10 6 -91 9
-191 7 -100 -2 -175 1 -178 6 -12 20 27 58 75 74 27 9 90 18 140 20 67 2 100
8 128 23 21 12 62 33 91 47 29 15 56 34 59 42 9 22 -36 63 -110 98 -60 30 -74
33 -130 28 -67 -6 -102 -20 -131 -52 -10 -11 -41 -28 -70 -37 -28 -9 -60 -23
-72 -30 -11 -8 -45 -22 -75 -33 -30 -10 -80 -31 -111 -47 l-57 -29 27 -41 c15
-23 35 -52 44 -65 9 -13 19 -40 23 -60 6 -31 4 -37 -15 -42 -18 -4 -21 -12
-18 -43 2 -31 -1 -40 -20 -50 -13 -6 -32 -9 -43 -7 -16 4 -19 15 -19 58 0 46
3 53 26 63 18 9 24 19 22 35 -3 21 -8 22 -78 21 -81 -1 -214 -38 -207 -58 2
-6 15 -17 29 -25 23 -14 31 -12 86 12 64 29 87 33 97 17 3 -5 2 -10 -4 -10 -5
0 -37 -18 -70 -40 -33 -22 -69 -40 -80 -40 -11 0 -35 16 -53 36 -20 22 -66 52
-118 76 -80 38 -89 40 -148 34 -35 -4 -80 -13 -100 -20 -364 -136 -469 -183
-592 -264 -145 -96 -181 -142 -109 -142 38 0 37 -18 -1 -55 -18 -18 -30 -38
-28 -49 3 -18 11 -20 79 -21 75 0 77 0 160 -56 141 -94 207 -121 341 -139 82
-11 125 -27 146 -52 11 -14 10 -18 -62 -134 -16 -26 -31 -66 -33 -88 -4 -35 2
-52 43 -120 l47 -78 38 5 c55 7 120 57 152 115 25 46 27 59 27 160 l0 111 73
21 c105 30 236 79 284 107 91 53 98 123 21 211 -28 33 -29 34 -12 60 20 32 32
41 101 87 28 19 57 43 62 54 15 28 13 92 -4 121 -25 43 -28 51 -22 56 3 4 15
-1 27 -9 20 -14 27 -14 64 0 33 12 71 13 205 8 102 -4 176 -12 195 -20 17 -8
63 -25 101 -40 99 -36 173 -76 191 -103 18 -27 10 -59 -17 -67 -54 -17 10 -71
120 -100 42 -11 54 -10 95 6 26 9 71 35 99 57 71 55 133 85 150 75 8 -4 76
-68 152 -141 125 -121 137 -136 138 -169 2 -76 117 -152 307 -203 151 -40 156
-42 180 -90 17 -33 32 -45 86 -70 57 -25 67 -35 84 -73 15 -33 18 -56 14 -90
-6 -45 -6 -46 30 -61 49 -20 54 -39 21 -78 -21 -25 -26 -39 -22 -64 4 -24 -1
-41 -19 -66 -14 -18 -23 -42 -22 -53 3 -19 14 -21 173 -28 159 -8 195 -15 195
-39 0 -6 10 -24 22 -40 18 -26 20 -35 10 -60 -9 -25 -8 -30 11 -42 12 -8 32
-17 44 -20 12 -4 34 -21 49 -39 24 -29 26 -36 20 -97 -5 -53 -11 -69 -33 -89
-22 -19 -34 -22 -70 -18 -47 5 -83 30 -83 57 0 38 -41 51 -72 23 -15 -14 -21
-14 -27 -4 -6 9 -16 5 -38 -18 -34 -34 -71 -46 -109 -37 -24 6 -25 10 -19 45
3 22 3 41 -2 44 -4 3 -97 8 -207 11 -176 5 -201 8 -226 26 -60 43 -55 111 13
163 25 19 50 57 84 124 48 98 93 153 178 219 22 18 37 35 32 40 -12 12 -96
-21 -265 -103 -199 -97 -231 -103 -481 -97 -153 3 -190 2 -171 -7 14 -6 66
-15 117 -19 130 -11 203 -53 173 -100 -7 -11 -29 -15 -87 -15 -69 0 -87 4
-146 33 -41 20 -79 48 -98 72 -28 35 -38 40 -101 50 -109 19 -163 10 -270 -43
-152 -75 -336 -183 -379 -221 -47 -43 -37 -48 15 -6 65 51 178 107 306 151
108 37 137 43 210 43 96 1 166 -23 194 -67 14 -21 15 -30 4 -63 -12 -34 -21
-43 -85 -75 l-73 -35 33 -31 c19 -18 60 -40 100 -53 38 -12 84 -36 103 -52 28
-25 40 -29 66 -24 22 4 50 -2 94 -19 107 -43 117 -43 149 2 15 21 46 53 67 70
50 41 68 34 91 -41 10 -31 29 -69 42 -85 14 -16 25 -34 25 -40 0 -15 -61 -44
-219 -106 -161 -63 -187 -70 -311 -90 -99 -17 -150 -32 -150 -45 0 -19 -57
-74 -95 -91 -22 -11 -63 -19 -93 -19 -46 0 -58 4 -82 29 -68 67 -49 113 80
200 52 35 84 61 70 57 -14 -4 -45 -12 -69 -17 -24 -5 -71 -23 -104 -40 -104
-53 -208 -90 -292 -105 -212 -37 -294 -83 -351 -197 l-26 -50 41 -35 c43 -35
53 -67 24 -76 -10 -3 -63 -17 -118 -32 -55 -14 -107 -30 -115 -34 -8 -4 -89
-24 -180 -44 -91 -20 -176 -42 -188 -49 -13 -6 -39 -41 -57 -77 -45 -87 -70
-116 -130 -148 -32 -17 -51 -35 -53 -48 -2 -11 -32 -56 -68 -100 -35 -43 -78
-96 -96 -118 -17 -21 -44 -43 -59 -48 -33 -11 -35 -23 -17 -108 15 -75 4 -125
-35 -160 -18 -15 -57 -50 -88 -78 -34 -30 -80 -58 -115 -71 -66 -25 -153 -71
-201 -107 -18 -14 -61 -33 -97 -44 -40 -13 -94 -41 -143 -77 -43 -30 -132 -85
-197 -122 -142 -79 -243 -167 -281 -246 -22 -44 -27 -69 -28 -142 -1 -48 3
-128 10 -178 26 -192 42 -429 33 -484 -18 -105 -104 -240 -173 -272 -60 -27
-85 -24 -121 15 -48 50 -144 306 -176 468 -11 56 -10 60 21 123 29 59 31 68
21 108 -24 94 -76 177 -110 177 -10 0 -53 -11 -97 -25 -44 -13 -87 -22 -96
-20 -9 3 -31 24 -49 46 -18 23 -47 47 -64 54 -81 33 -430 45 -484 16 -26 -14
-27 -24 -7 -81 19 -54 19 -56 -5 -80 -26 -26 -85 -26 -128 0 -41 25 -57 25
-89 0 -32 -25 -53 -20 -108 25 -60 48 -79 56 -182 71 -112 17 -146 13 -233
-30 -239 -117 -373 -200 -437 -269 -56 -60 -71 -92 -104 -220 -30 -115 -44
-143 -119 -242 -54 -72 -71 -106 -123 -250 -67 -187 -77 -226 -89 -342 -10
-97 -9 -131 6 -240 10 -71 27 -163 38 -205 18 -70 24 -81 66 -115 26 -21 58
-50 70 -65 26 -30 58 -35 108 -18 16 5 75 16 132 24 81 12 115 12 158 3 69
-14 82 -7 169 92 47 53 80 107 128 204 36 73 74 140 84 149 19 18 155 50 291
70 88 12 203 3 252 -20 71 -34 64 -119 -19 -231 -61 -83 -74 -109 -117 -232
-49 -143 -75 -191 -111 -214 -27 -17 -39 -39 -78 -145 -25 -69 -60 -159 -77
-201 -17 -42 -28 -83 -25 -91 4 -12 38 -16 159 -22 84 -4 185 -7 223 -6 78 1
183 -13 263 -36 44 -12 70 -30 140 -96 48 -45 91 -88 96 -96 14 -24 -12 -196
-43 -276 -16 -41 -41 -128 -56 -193 -15 -65 -40 -174 -57 -242 l-29 -125 22
-65 c49 -149 114 -247 237 -358 51 -45 103 -84 120 -87 37 -9 183 40 311 102
112 55 132 56 255 13 122 -42 167 -71 256 -161 98 -101 114 -106 159 -49 52
64 119 129 176 169 48 33 51 39 70 115 41 159 67 201 163 267 40 28 49 30 100
25 46 -5 62 -2 89 14 18 12 73 28 121 36 100 17 162 41 229 89 49 35 93 44 93
20 0 -18 -136 -121 -185 -139 -22 -9 -76 -19 -119 -22 -69 -6 -83 -11 -108
-35 -15 -16 -28 -35 -28 -43 0 -14 -20 -27 -41 -27 -5 0 -14 11 -19 25 -13 34
-54 33 -111 -3 -83 -53 -104 -90 -130 -225 -12 -66 -50 -117 -109 -147 -39
-20 -96 -78 -150 -153 -39 -55 -65 -65 -108 -43 -17 9 -38 16 -46 16 -16 0
-12 -23 18 -93 l17 -39 -47 -54 c-25 -30 -49 -53 -51 -50 -3 3 -14 1 -23 -4
-13 -7 -21 -5 -29 4 -9 11 -6 18 15 35 15 12 30 21 34 21 4 0 19 12 34 26 17
18 23 31 17 38 -5 6 -13 36 -17 66 -8 65 -49 136 -104 180 -65 51 -202 111
-268 117 -56 5 -65 3 -127 -32 -71 -39 -209 -90 -288 -105 -67 -13 -93 0 -217
112 -91 82 -115 111 -167 200 -58 97 -65 105 -124 137 -69 37 -288 113 -302
104 -5 -3 -7 -19 -4 -36 2 -17 -5 -58 -15 -90 -17 -48 -18 -63 -8 -86 15 -37
48 -68 81 -76 34 -9 44 8 29 46 -27 63 24 40 60 -27 12 -24 46 -65 74 -90 28
-26 68 -62 88 -81 21 -19 39 -47 43 -66 12 -60 26 -85 52 -92 14 -3 29 -2 33
2 5 4 15 51 24 103 9 52 23 101 31 109 19 19 19 17 -5 -119 -18 -100 -19 -115
-6 -128 13 -13 18 -13 40 1 14 10 35 17 47 17 33 0 125 -65 192 -134 51 -53
59 -59 68 -43 16 27 28 20 31 -20 2 -25 11 -42 30 -56 24 -18 30 -18 58 -7 26
11 50 36 50 54 0 2 -13 20 -30 38 -16 18 -30 39 -30 47 0 8 21 33 47 55 26 23
79 74 118 113 100 104 111 104 215 12 46 -41 98 -87 117 -102 38 -33 41 -49
13 -84 -29 -37 -25 -71 15 -133 20 -30 58 -99 86 -154 50 -96 51 -100 44 -160
-5 -48 -2 -73 11 -105 16 -41 16 -45 0 -72 -14 -24 -16 -45 -10 -131 4 -63 2
-118 -4 -141 -10 -35 -8 -42 20 -81 38 -55 33 -83 -26 -164 -24 -31 -56 -81
-71 -109 -36 -68 -48 -78 -130 -108 -38 -13 -73 -29 -78 -34 -12 -12 -13 -63
-2 -103 6 -23 3 -30 -26 -47 -19 -12 -38 -23 -44 -25 -15 -7 58 -69 169 -143
56 -37 126 -88 156 -112 30 -24 74 -53 98 -64 40 -17 50 -18 106 -6 54 10 66
10 96 -6 19 -9 42 -23 50 -30 8 -7 58 -30 110 -50 146 -56 222 -112 285 -209
35 -53 68 -88 123 -125 18 -13 49 -48 69 -79 40 -64 84 -120 129 -169 30 -31
36 -33 95 -33 35 0 91 7 124 15 123 30 289 9 382 -47 54 -33 113 -105 113
-137 0 -26 -33 -72 -89 -127 l-52 -52 43 -34 c45 -37 80 -58 97 -58 14 0 46
92 66 186 26 123 64 412 65 485 0 72 5 62 -100 203 -19 26 -40 62 -46 79 -14
40 -2 138 21 174 18 27 27 27 154 7 31 -5 45 -3 51 6 10 16 -17 39 -88 75 -99
50 -132 129 -74 176 26 21 33 21 195 16 138 -5 176 -3 217 10 30 10 50 22 50
31 0 10 8 13 25 10 20 -4 28 1 40 25 8 17 15 36 15 44 0 7 -27 43 -61 79 -68
74 -69 70 9 139 l33 30 -29 70 c-38 89 -62 206 -63 303 -1 78 11 125 52 219
12 29 20 55 17 58 -3 3 -63 1 -134 -4 -140 -11 -251 -1 -291 24 -13 9 -49 43
-80 76 -63 66 -136 123 -168 131 -11 3 -54 -1 -95 -8 -132 -23 -246 0 -330 67
-74 59 -133 173 -100 194 5 3 199 6 430 5 506 -1 503 -1 502 98 -1 49 -25 128
-86 272 -20 47 -36 91 -36 98 0 9 29 12 113 12 179 0 334 32 460 97 28 13 83
56 123 94 94 89 110 90 223 15 87 -58 151 -79 204 -66 82 20 130 41 184 78 74
52 108 59 323 67 197 7 222 1 228 -50 3 -24 -4 -36 -39 -66 -39 -33 -42 -39
-29 -54 19 -23 75 -50 145 -70 63 -18 147 -61 203 -103 30 -23 32 -29 32 -82
0 -92 -2 -90 110 -90 84 0 99 -3 115 -20 9 -10 43 -36 74 -57 144 -97 230
-182 279 -279 32 -63 67 -100 128 -135 30 -17 87 -55 126 -85 40 -30 88 -59
108 -64 169 -44 242 -50 324 -25 107 32 292 15 484 -47 170 -54 237 -91 362
-199 58 -50 128 -106 156 -124 69 -45 89 -82 119 -221 29 -135 76 -262 108
-292 12 -11 41 -29 64 -41 23 -12 48 -31 54 -43 18 -34 6 -202 -20 -266 -30
-75 -28 -90 12 -96 195 -28 289 -46 303 -57 12 -10 15 -24 11 -59 -3 -25 -9
-53 -12 -63 -12 -29 25 -20 90 23 33 22 75 43 93 46 45 9 180 -27 302 -78 60
-26 120 -43 163 -48 110 -13 167 -73 167 -179 0 -28 3 -51 6 -51 3 0 31 15 62
34 80 49 108 51 245 22 143 -31 209 -32 302 -6 38 11 87 20 107 20 77 0 202
-67 319 -171 37 -32 95 -77 129 -100 l63 -42 62 12 c139 25 173 5 220 -134 24
-71 22 -274 -4 -392 -47 -214 -151 -387 -422 -695 -42 -48 -124 -159 -182
-246 -83 -124 -118 -168 -161 -201 -78 -59 -126 -160 -171 -366 -55 -252 -126
-435 -225 -585 -31 -47 -81 -132 -111 -189 -29 -57 -79 -133 -111 -170 -66
-76 -136 -166 -191 -246 -29 -42 -63 -72 -140 -124 -132 -88 -176 -110 -327
-160 -69 -23 -199 -77 -290 -121 -91 -43 -201 -93 -244 -111 -44 -18 -114 -52
-157 -75 -120 -67 -322 -210 -346 -247 -13 -18 -33 -64 -47 -103 -49 -144 -86
-194 -204 -277 -178 -125 -362 -247 -432 -287 -41 -24 -137 -86 -214 -138
-156 -106 -327 -193 -431 -218 -50 -12 -135 -19 -295 -23 l-225 -6 58 -34 c63
-37 87 -63 87 -99 0 -19 -14 -30 -82 -62 -176 -82 -386 -127 -681 -146 -58 -4
-110 -10 -115 -13 -5 -3 -15 -26 -23 -51 -19 -62 -40 -70 -184 -70 -123 0
-165 -6 -165 -21 0 -5 45 -9 99 -9 76 0 100 -3 104 -14 10 -25 -19 -37 -98
-41 -59 -2 -82 -8 -98 -23 -30 -27 -75 -49 -130 -63 -26 -6 -47 -15 -47 -19 0
-14 250 -23 509 -17 486 10 1096 82 1516 177 549 125 1040 273 1493 451 327
128 957 441 1282 636 392 236 962 647 1250 902 693 614 1201 1196 1696 1941
236 356 353 558 530 917 79 160 144 293 144 296 0 3 20 47 44 99 191 410 424
1119 535 1628 132 605 192 1070 209 1615 10 327 4 478 -20 483 -9 2 -22 -6
-28 -18 -24 -45 -59 -170 -70 -250 -17 -124 -41 -160 -94 -140 -42 15 -109
-42 -206 -178 -25 -34 -55 -65 -67 -68 -45 -12 -118 52 -216 191 -39 55 -101
132 -138 171 -75 79 -86 102 -131 254 -44 151 -95 243 -198 358 -130 145 -230
284 -230 319 0 39 -45 215 -66 255 -9 18 -30 52 -46 76 -26 38 -29 49 -23 90
3 26 9 117 11 202 8 235 -5 299 -131 655 -59 165 -73 191 -135 261 -21 22 -42
56 -48 75 -6 19 -13 111 -17 204 -23 597 -26 637 -62 677 -13 15 -12 23 10 80
14 36 28 97 32 142 5 51 18 105 36 148 29 70 49 158 49 212 0 53 -18 98 -76
196 -66 112 -91 176 -109 285 -10 63 -12 231 -3 274 1 3 -2 44 -6 91 -9 100
-28 145 -68 166 -16 9 -57 40 -90 71 l-60 55 -61 -4 -61 -3 -36 49 c-19 26
-76 97 -125 156 -50 60 -114 150 -142 202 -70 127 -135 215 -244 333 -105 114
-129 149 -129 188 0 46 30 52 178 39 127 -12 172 -9 172 11 0 36 -228 283
-358 388 -40 32 -117 82 -170 111 -102 55 -212 153 -212 190 0 20 63 53 80 43
6 -4 10 0 10 8 0 16 -115 127 -131 127 -5 0 -12 -7 -15 -15 -4 -8 -10 -15 -16
-15 -5 0 -25 -12 -44 -26 -23 -18 -41 -24 -56 -21 -27 7 -281 275 -309 327
-49 88 -95 140 -126 140 -32 0 -29 -16 12 -53 35 -33 69 -100 80 -159 9 -47
-20 -73 -71 -64 -64 13 -100 36 -129 87 -16 26 -49 63 -73 81 -69 52 -132 154
-132 215 0 18 1 33 3 33 1 0 20 -9 42 -20 45 -23 69 -26 63 -7 -6 16 -50 37
-94 44 -38 6 -68 30 -97 76 -10 15 -42 43 -71 62 -64 41 -136 113 -136 137 0
22 38 32 91 25 22 -3 85 -31 142 -63 122 -68 464 -280 492 -304 39 -33 307
-211 312 -207 19 20 -169 204 -337 328 -146 108 -226 162 -425 284 -88 54
-178 110 -200 125 -22 15 -92 54 -155 87 -63 33 -156 83 -207 111 -330 184
-785 380 -1228 529 -415 140 -884 264 -1160 308 -22 3 -48 8 -57 11 -10 3 -18
1 -18 -3 0 -5 26 -17 58 -27 69 -21 194 -75 376 -161 93 -44 140 -72 152 -91
l18 -27 -47 -42 c-38 -35 -58 -45 -112 -55 -61 -11 -65 -14 -65 -39 0 -29 -36
-73 -78 -95 -15 -7 -60 -19 -100 -26 -109 -20 -110 -21 -83 -121 12 -46 29
-104 38 -129 26 -72 28 -149 4 -187 -25 -39 -40 -41 -136 -13 -145 43 -257 70
-285 70 -67 0 -349 155 -452 249 -29 26 -73 61 -98 78 -56 38 -152 138 -174
181 l-16 32 40 44 c51 55 51 68 2 60 -60 -9 -146 20 -179 63 -90 113 -229 219
-322 243 -24 6 -115 12 -201 13 -173 2 -202 11 -222 68 -11 33 -22 35 -133 14z
m-372 -432 c21 -13 1 -23 -47 -23 -38 0 -60 -5 -72 -17 -15 -16 -17 -16 -29 0
-7 9 -27 20 -44 23 -33 7 -31 18 4 27 21 6 175 -2 188 -10z m3437 -184 c35
-19 51 -21 108 -15 221 22 216 23 309 -24 84 -43 173 -116 173 -143 0 -8 -18
-27 -40 -42 -38 -26 -44 -28 -115 -22 -71 6 -106 13 -215 39 -25 6 -90 34
-145 63 -55 29 -117 58 -138 64 -51 17 -63 41 -36 75 25 32 46 33 99 5z
m-5545 -5132 c37 -37 61 -102 51 -140 -6 -25 -74 -77 -101 -77 -24 0 -18 46
11 77 45 48 8 113 -65 113 -64 0 -81 -9 -81 -41 0 -40 -19 -44 -73 -20 -25 12
-53 21 -62 21 -23 0 -30 29 -12 47 25 25 136 52 221 52 75 1 79 0 111 -32z
m-156 -325 c26 -48 35 -150 21 -239 -7 -48 -17 -92 -21 -97 -13 -14 -103 84
-134 143 -28 57 -31 90 -11 129 36 69 122 107 145 64z m-643 -354 c35 -7 112
-39 189 -78 72 -37 164 -77 205 -89 99 -30 124 -44 190 -104 71 -65 114 -91
231 -142 53 -23 111 -53 130 -67 19 -14 78 -46 131 -71 161 -75 187 -120 94
-163 -75 -34 -231 -47 -466 -39 -218 8 -228 9 -236 42 -9 34 27 69 87 83 44
11 68 30 37 30 -7 0 -44 10 -82 22 -77 25 -113 55 -144 120 -28 60 -41 69
-129 84 -76 13 -89 19 -211 84 -48 25 -79 35 -125 38 -81 4 -113 18 -127 52
-7 16 -21 36 -31 46 -19 17 -23 17 -92 -5 -40 -13 -129 -50 -199 -82 -130 -60
-155 -67 -189 -49 -26 14 -24 30 9 73 65 86 211 179 332 211 68 18 312 21 396
4z m1584 -734 c27 -11 54 -14 82 -10 140 20 157 19 244 -9 46 -15 126 -52 177
-82 50 -31 130 -73 175 -95 84 -41 142 -97 142 -138 0 -46 -80 -74 -169 -59
-32 5 -133 7 -233 3 l-177 -7 -33 -31 c-45 -42 -90 -76 -101 -76 -5 0 -37 27
-71 60 -36 35 -75 62 -92 66 -16 3 -100 -4 -187 -15 -101 -13 -167 -17 -181
-11 -31 12 -66 57 -66 86 0 40 39 55 176 70 159 16 184 22 184 41 0 8 -23 43
-51 77 -64 76 -76 100 -60 120 16 19 38 23 128 25 46 1 87 -5 113 -15z m-943
-277 c53 -27 133 -110 133 -138 0 -25 -21 -29 -157 -29 l-125 0 -69 41 c-38
23 -79 53 -90 67 -18 23 -18 27 -4 41 57 57 216 66 312 18z m2313 -58 c49 -16
70 -38 70 -69 0 -63 -72 -90 -238 -90 -169 0 -214 29 -178 114 24 57 58 68
196 62 63 -3 131 -10 150 -17z m-1105 -409 l133 -131 38 15 c22 9 109 25 194
36 255 35 347 56 414 97 77 47 109 47 153 0 45 -49 44 -89 -1 -149 -19 -25
-37 -60 -40 -79 -3 -19 -13 -146 -21 -284 -9 -137 -18 -264 -21 -280 -7 -37
14 -64 134 -180 45 -43 85 -90 89 -104 14 -54 -159 -165 -332 -212 -69 -18
-97 -21 -210 -17 -97 4 -146 11 -192 27 -34 11 -67 21 -72 21 -5 0 9 -51 31
-112 133 -373 139 -391 126 -400 -7 -5 -194 -7 -415 -6 -342 3 -405 5 -417 18
-14 13 -9 28 38 130 60 128 172 409 206 513 12 37 26 69 31 73 18 11 7 41 -39
102 -62 81 -125 207 -158 318 -36 121 -44 291 -19 396 41 168 143 338 203 338
8 0 74 -59 147 -130z m-255 -939 c17 -33 11 -114 -14 -187 -36 -105 -186 -478
-196 -488 -5 -5 -25 -5 -45 -2 -40 8 -125 82 -125 109 0 30 125 319 179 412
39 68 144 175 172 175 10 0 23 -9 29 -19z"/>
<path d="M12331 17558 c-51 -11 -91 -35 -91 -52 0 -14 55 -42 108 -55 20 -5
73 -19 116 -30 82 -22 161 -27 185 -12 19 12 5 47 -30 72 -42 30 -189 89 -219
88 -14 -1 -45 -6 -69 -11z"/>
<path d="M6350 12095 c-30 -32 -31 -89 -3 -137 29 -50 49 -48 55 4 6 58 -4
151 -18 155 -5 2 -21 -8 -34 -22z"/>
<path d="M5498 11758 c-131 -17 -308 -99 -387 -182 -19 -20 -32 -36 -28 -36 4
0 60 27 125 59 138 70 254 111 312 111 36 0 43 -4 58 -32 28 -51 58 -78 90
-78 49 0 163 -40 229 -80 41 -24 81 -40 115 -44 29 -4 75 -13 103 -20 47 -12
51 -16 70 -65 11 -28 32 -64 48 -80 27 -29 128 -74 201 -89 22 -4 41 -13 43
-19 2 -6 -32 -28 -77 -49 -44 -21 -80 -42 -80 -46 0 -7 288 -14 450 -12 78 1
144 13 166 28 34 25 12 39 -180 109 -15 6 -45 24 -66 42 -20 17 -73 46 -116
65 -93 40 -174 91 -254 161 -46 40 -76 56 -151 80 -52 17 -148 59 -214 94 -91
47 -137 65 -190 73 -94 15 -198 19 -267 10z"/>
<path d="M7190 11019 c0 -5 22 -34 49 -62 78 -84 88 -117 46 -157 -22 -21 -38
-24 -172 -31 -81 -5 -151 -13 -156 -18 -21 -21 1 -39 40 -35 21 2 98 11 172
19 173 20 190 16 247 -51 26 -30 55 -54 65 -54 10 0 38 20 61 44 l43 44 179 7
c127 5 199 4 250 -5 77 -13 116 -5 116 25 0 17 -55 60 -90 70 -29 9 -98 46
-190 102 -142 87 -299 126 -355 89 -25 -17 -26 -20 -20 -82 6 -53 5 -64 -7
-64 -10 0 -19 19 -27 54 -15 68 -38 91 -101 105 -65 14 -150 14 -150 0z"/>
<path d="M6192 10758 c-31 -16 -24 -28 32 -57 41 -21 62 -25 142 -25 51 0 97
3 100 7 12 11 -19 39 -64 59 -53 24 -177 33 -210 16z"/>
<path d="M8456 10677 c-12 -9 -17 -20 -13 -31 6 -16 22 -17 147 -14 143 3 179
13 152 41 -20 19 -261 23 -286 4z"/>
<path d="M7444 10246 c-73 -158 -85 -297 -41 -466 52 -199 100 -286 231 -415
68 -67 102 -91 193 -138 137 -70 240 -97 376 -97 71 0 114 5 157 20 62 21 213
108 208 120 -2 4 -154 153 -338 331 -184 178 -425 412 -534 521 -110 109 -204
198 -208 198 -5 0 -25 -33 -44 -74z"/>
<path d="M8305 10196 c-36 -16 -167 -40 -329 -61 -66 -8 -121 -17 -123 -19 -3
-2 26 -33 64 -69 115 -108 150 -137 164 -136 13 0 260 268 267 290 5 12 -7 11
-43 -5z"/>
<path d="M8369 10068 c-18 -24 -73 -84 -122 -135 -67 -70 -87 -95 -80 -107 13
-24 213 -236 222 -236 5 0 11 105 15 233 4 127 9 244 12 260 8 38 -7 34 -47
-15z"/>
<path d="M7569 9208 c-6 -24 -27 -83 -46 -133 -19 -49 -50 -130 -69 -180 -19
-49 -39 -99 -44 -110 -35 -78 -48 -115 -41 -119 12 -8 541 -9 548 -2 7 6 -100
333 -139 427 -12 29 -30 52 -51 64 -18 10 -55 35 -83 56 -28 22 -54 39 -57 39
-3 0 -11 -19 -18 -42z"/>
<path d="M8518 18225 c-3 -3 -72 -10 -154 -16 -82 -5 -180 -17 -219 -25 -38
-9 -108 -22 -154 -29 -45 -8 -85 -16 -88 -19 -14 -13 34 -18 76 -8 142 35 441
78 441 63 0 -4 -18 -16 -40 -26 -22 -10 -40 -22 -40 -27 0 -16 36 -8 72 17 20
14 50 25 66 25 35 0 92 19 92 30 0 14 -41 25 -52 15z"/>
<path d="M9316 18177 c3 -10 9 -15 12 -12 3 3 0 11 -7 18 -10 9 -11 8 -5 -6z"/>
<path d="M8071 18116 c-30 -31 -15 -40 55 -31 56 7 66 25 14 25 -16 0 -33 7
-38 15 -7 13 -12 12 -31 -9z"/>
<path d="M8448 18133 c-9 -2 -23 -15 -32 -28 -8 -13 -30 -26 -47 -30 -17 -4
-52 -17 -78 -30 -47 -24 -84 -23 -241 0 -40 6 -78 -10 -94 -40 -6 -11 -23 -39
-39 -63 -16 -23 -27 -48 -25 -54 2 -6 24 -17 48 -24 47 -14 81 -4 111 32 7 9
33 25 57 35 79 34 180 20 225 -31 32 -36 37 -36 113 -9 94 34 166 30 256 -13
86 -41 161 -108 156 -140 -2 -13 -23 -31 -58 -50 -154 -83 -145 -80 -244 -83
-98 -3 -171 -20 -160 -36 3 -6 13 -8 23 -4 9 3 78 6 154 6 l137 0 53 -55 c52
-52 99 -76 154 -76 31 0 140 -26 234 -56 142 -45 165 -19 39 43 -86 43 -103
59 -79 73 17 11 70 -11 134 -55 64 -43 89 -48 93 -17 3 16 -8 34 -35 60 -44
42 -113 95 -160 123 -21 11 -33 27 -33 40 0 19 4 20 58 13 31 -4 95 -18 142
-31 134 -38 136 -38 180 -9 22 14 40 33 40 41 0 28 -187 106 -268 110 -52 4
-92 24 -92 48 0 6 9 20 20 32 10 11 16 25 12 30 -4 6 -36 17 -72 24 -87 17
-134 34 -263 93 -61 28 -122 50 -136 49 -181 -12 -298 -11 -316 2 -18 14 -16
16 30 22 28 3 60 10 72 15 15 6 25 5 29 -1 7 -13 102 -3 119 11 7 5 30 2 58
-8 46 -16 47 -16 69 5 19 20 20 23 5 29 -9 3 -36 2 -60 -4 -32 -6 -51 -6 -68
3 -22 11 -181 17 -221 8z"/>
<path d="M7730 18119 c-36 -5 -82 -16 -103 -25 l-38 -17 20 -21 c21 -20 21
-20 68 -2 27 11 63 18 82 17 38 -1 81 22 81 44 0 17 -11 17 -110 4z"/>
<path d="M8208 18119 c-29 -16 -21 -29 18 -29 38 0 74 15 74 30 0 13 -70 12
-92 -1z"/>
<path d="M7448 18069 c-31 -4 -72 -12 -90 -18 l-33 -9 37 -1 c20 -1 40 -5 43
-11 8 -13 48 -13 61 0 8 8 15 6 24 -5 19 -23 46 -18 69 11 35 45 13 51 -111
33z"/>
<path d="M7905 18060 c-9 -10 -42 -26 -71 -35 -55 -16 -67 -28 -38 -39 41 -16
70 -5 117 44 38 39 44 50 29 50 -10 0 -27 -9 -37 -20z"/>
<path d="M7255 18034 c-48 -10 -405 -130 -405 -136 0 -14 120 -21 265 -15 151
6 235 22 281 51 28 19 33 50 7 42 -10 -3 -34 -6 -53 -8 -34 -3 -35 -2 -34 35
1 39 -5 42 -61 31z"/>
<path d="M7737 18023 c-13 -12 -7 -23 13 -23 11 0 20 7 20 15 0 15 -21 21 -33
8z"/>
<path d="M7619 17983 c-37 -6 -71 -45 -72 -85 -2 -31 0 -33 36 -36 33 -3 43 2
78 36 25 26 39 49 39 66 0 27 -11 30 -81 19z"/>
<path d="M7484 17970 c-29 -11 -37 -26 -26 -46 8 -14 12 -13 38 9 32 28 25 51
-12 37z"/>
<path d="M7716 17886 c-75 -79 -145 -105 -192 -72 -19 14 -24 12 -55 -13 -34
-28 -38 -29 -195 -36 -88 -4 -171 -4 -183 0 -12 4 -26 18 -32 31 -8 24 -12 25
-56 18 -27 -3 -82 -21 -123 -39 -66 -28 -84 -32 -155 -30 -94 3 -163 13 -171
26 -3 5 -2 18 1 29 7 21 39 27 50 10 16 -26 92 3 135 51 14 15 34 30 45 33 11
3 2 3 -20 0 -22 -3 -65 -14 -95 -24 -30 -10 -79 -23 -107 -29 -89 -18 -426
-135 -668 -231 -490 -195 -1189 -574 -1510 -818 -219 -167 -575 -490 -634
-577 -29 -42 -70 -136 -80 -185 -4 -17 -37 -61 -85 -109 -76 -79 -106 -97
-106 -66 0 15 81 111 108 128 17 11 45 67 37 75 -9 9 -120 -113 -144 -158 -18
-33 -125 -150 -385 -420 -197 -204 -377 -403 -445 -490 -36 -47 -96 -123 -133
-169 -40 -50 -86 -123 -113 -180 -25 -53 -56 -116 -70 -141 -97 -176 -159
-310 -188 -406 -13 -46 -13 -54 1 -83 20 -42 6 -126 -38 -218 -16 -36 -30 -70
-30 -76 0 -5 -11 -33 -24 -61 -43 -92 -116 -317 -131 -404 -8 -46 -15 -116
-15 -154 0 -76 -9 -100 -71 -187 -22 -30 -39 -65 -39 -78 0 -12 16 -61 35
-107 45 -109 46 -158 4 -246 -34 -72 -35 -94 -6 -304 12 -90 23 -109 46 -82
14 17 12 64 -9 217 l-14 97 31 63 c49 100 56 139 49 274 -8 142 21 421 55 531
51 164 126 284 179 284 24 0 70 -56 70 -85 0 -14 -20 -84 -45 -157 -54 -164
-69 -255 -61 -373 17 -235 17 -272 6 -315 -22 -85 -22 -108 9 -266 51 -267 64
-384 58 -529 -7 -151 -14 -181 -62 -255 -69 -107 -66 -169 16 -332 55 -110 71
-132 134 -178 29 -22 84 -80 123 -132 47 -63 100 -117 162 -168 51 -41 127
-103 169 -138 80 -67 176 -122 212 -122 12 0 56 16 99 35 160 72 226 41 367
-174 42 -64 79 -118 83 -121 4 -3 18 -25 30 -50 49 -97 83 -124 194 -157 28
-8 65 -25 81 -37 53 -39 189 -115 235 -131 48 -17 99 -13 156 10 36 15 54 5
54 -29 0 -11 7 -28 17 -38 15 -17 15 -18 -5 -18 -37 0 -25 -45 29 -107 15 -18
48 -72 73 -120 62 -118 133 -212 165 -219 78 -15 194 -49 254 -75 37 -16 71
-29 77 -29 10 0 -6 57 -22 77 -7 8 -3 27 11 55 11 24 41 139 66 257 29 131 58
239 75 278 30 67 54 191 40 207 -5 5 -27 1 -52 -9 -24 -9 -87 -20 -140 -24
l-98 -6 -64 -64 c-64 -63 -66 -65 -114 -62 -34 1 -55 -3 -65 -13 -10 -11 -17
-12 -19 -4 -7 20 -47 -10 -68 -52 -11 -21 -24 -42 -30 -45 -6 -4 -22 -29 -35
-56 -27 -53 -40 -60 -50 -29 -4 14 0 28 14 43 51 55 102 124 107 144 5 18 27
31 69 39 6 1 34 2 63 3 52 1 57 3 120 64 37 35 79 70 93 79 24 15 27 15 43 -4
15 -17 25 -19 64 -14 41 5 128 32 142 43 7 7 -130 133 -163 150 -42 22 -188
43 -282 42 -44 0 -118 2 -165 6 -48 4 -118 3 -160 -3 l-75 -11 -92 -96 c-51
-53 -93 -105 -93 -115 0 -10 19 -33 43 -52 43 -35 162 -108 176 -108 4 0 16
-9 25 -19 23 -25 12 -49 -12 -28 -10 8 -60 39 -113 70 -52 30 -101 63 -108 71
-20 24 -40 20 -71 -14 -15 -16 -36 -30 -45 -30 -20 0 -19 2 47 79 21 24 38 49
38 56 0 7 25 40 55 74 30 33 59 70 65 81 6 11 19 20 29 20 20 0 51 30 51 49 0
22 -31 24 -54 2 l-23 -22 -28 33 c-25 30 -27 37 -22 93 3 33 19 103 36 155 49
149 50 143 -44 157 -165 24 -213 14 -240 -51 -11 -26 -11 -36 2 -66 9 -19 26
-68 38 -108 23 -70 23 -72 5 -82 -10 -6 -54 -10 -97 -10 -76 0 -80 -1 -110
-32 -18 -20 -37 -56 -47 -89 -18 -64 -55 -120 -56 -84 0 26 39 130 64 172 26
43 58 56 146 63 93 6 95 12 45 120 -43 91 -42 115 10 167 31 31 37 33 102 33
37 0 95 -5 128 -10 98 -16 157 12 275 133 24 25 48 43 52 41 4 -3 8 -23 8 -44
0 -21 4 -41 9 -44 15 -10 37 36 76 155 46 138 63 175 125 259 52 71 77 128 67
154 -11 28 -58 39 -167 39 -79 0 -132 -7 -214 -27 -60 -15 -116 -31 -126 -36
-10 -5 -39 -58 -65 -117 -54 -125 -64 -139 -169 -256 l-79 -89 -76 7 c-55 5
-115 1 -214 -14 -194 -29 -189 -30 -259 32 -128 112 -124 106 -141 187 -47
224 -59 424 -32 556 14 67 99 323 138 416 15 37 65 111 132 198 50 65 47 82
-21 105 -30 10 -66 28 -78 39 -48 43 -51 58 -56 316 -6 260 -12 290 -53 290
-30 0 -83 -34 -127 -81 -43 -46 -58 -48 -92 -11 -37 40 -47 63 -46 113 1 155
-1 191 -16 249 -28 108 -52 120 -150 70 -68 -34 -116 -38 -197 -14 -101 29
-209 108 -236 172 -18 44 -89 95 -113 82 -23 -12 -67 -13 -74 -1 -3 4 6 13 21
20 23 10 25 16 20 51 -3 22 -2 40 2 40 14 0 41 -36 41 -53 0 -22 41 -48 82
-51 18 -2 36 -4 40 -5 3 0 9 -20 13 -42 15 -85 149 -184 266 -196 47 -5 65 -1
126 26 85 37 113 39 148 8 38 -32 56 -110 62 -267 7 -181 29 -223 84 -164 44
47 110 84 150 84 32 0 41 -5 53 -29 26 -49 37 -158 34 -340 -2 -211 6 -241 74
-270 83 -36 85 -36 92 8 10 66 91 215 140 258 43 38 70 54 326 194 208 115
235 122 354 94 36 -8 69 -15 73 -14 44 7 77 -5 123 -46 57 -50 64 -52 115 -28
34 16 37 16 80 -5 81 -39 104 -24 69 47 -22 44 -8 73 48 103 39 20 58 22 198
22 85 1 189 -2 230 -6 41 -3 82 -6 90 -7 8 -1 37 -26 66 -56 l51 -56 74 21
c40 11 88 20 105 20 44 0 87 -43 125 -125 37 -79 43 -169 16 -222 -33 -63 -18
-148 67 -392 26 -74 52 -141 58 -148 6 -7 22 -13 36 -13 33 0 111 80 149 152
25 48 28 62 27 153 -1 55 -10 179 -20 275 -11 96 -19 229 -19 295 0 110 2 125
27 175 29 59 116 155 182 199 23 15 77 47 121 71 44 24 118 69 165 100 80 54
334 187 500 263 90 40 106 57 90 88 -14 26 -1 39 42 39 46 0 61 26 54 89 -19
158 -19 166 -3 180 15 12 14 18 -3 64 -11 29 -20 66 -20 83 0 37 46 109 95
147 57 45 65 34 65 -85 l0 -102 30 29 c41 39 65 92 50 110 -8 10 -8 24 0 54
14 52 24 57 49 25 l20 -26 35 21 c51 32 95 87 128 158 15 34 38 69 50 77 21
13 217 61 416 102 45 9 89 22 98 28 10 8 16 31 18 66 4 65 42 153 83 191 71
67 167 107 315 133 109 19 185 51 168 71 -15 18 -46 157 -56 242 -6 57 -8 63
-37 72 -16 6 -49 11 -72 11 -40 0 -47 -6 -157 -113 -64 -62 -140 -126 -169
-142 -54 -29 -55 -30 -274 -36 -288 -9 -347 -23 -469 -116 -86 -65 -109 -72
-262 -82 -152 -10 -169 -17 -206 -82 -23 -42 -25 -43 -138 -75 -63 -19 -190
-53 -281 -76 -184 -47 -210 -47 -239 5 -17 31 -24 22 99 125 64 54 88 101 112
216 27 131 25 175 -9 222 -57 79 -251 252 -322 287 -65 33 -69 34 -136 25 -90
-13 -159 -5 -329 35 -117 27 -148 38 -182 66 -34 27 -44 31 -61 22 -25 -14
-72 -14 -72 -1 0 6 -159 10 -417 11 -230 1 -521 5 -648 9 -170 6 -108 7 235 4
980 -9 949 -9 964 11 18 25 36 10 36 -29 l0 -32 173 -38 c186 -41 216 -44 322
-32 65 8 75 6 120 -17 28 -14 74 -43 104 -65 72 -54 227 -207 259 -254 23 -35
24 -44 18 -112 -8 -88 -38 -200 -70 -265 -17 -33 -42 -60 -85 -89 -33 -24 -70
-55 -81 -70 l-22 -27 39 -7 c22 -4 69 0 113 9 78 15 443 117 462 129 5 4 19
26 29 49 22 51 50 61 189 70 169 10 172 11 274 80 161 107 242 126 521 123
160 -2 160 -2 214 27 59 33 285 245 260 245 -9 0 -42 -9 -74 -20 -67 -23 -96
-25 -113 -8 -18 18 -15 26 21 44 17 9 90 59 160 110 136 99 424 257 506 278
35 9 109 10 301 3 436 -17 454 -17 531 19 36 17 89 48 118 68 30 20 62 36 74
36 36 0 216 60 225 76 4 8 5 40 2 70 -7 62 -29 87 -84 98 -45 9 -74 32 -90 71
-17 40 -29 46 -151 76 -49 12 -115 32 -145 46 -64 28 -199 129 -201 149 -1 8
-2 27 -3 43 -1 23 -26 54 -129 155 l-128 125 -68 -49 c-157 -114 -223 -124
-354 -55 -112 60 -118 67 -78 104 36 33 38 42 14 64 -29 25 -212 98 -283 112
-87 18 -278 28 -315 17 -27 -7 -31 -14 -36 -58 -9 -75 -21 -95 -101 -167 -66
-60 -71 -68 -55 -78 47 -28 62 -149 27 -206 -39 -65 -147 -121 -325 -169 l-80
-21 0 -109 c0 -124 -7 -144 -76 -213 -76 -76 -182 -111 -233 -78 -37 25 -108
163 -108 209 1 37 36 121 80 191 22 36 15 41 -107 62 -122 22 -201 55 -326
136 l-100 64 -101 0 c-56 0 -106 3 -109 7 -4 4 0 19 9 33 51 79 49 70 21 104
-18 21 -24 37 -20 51 8 25 177 149 275 202 97 53 211 101 333 143 54 18 112
44 130 58 24 18 41 23 64 20 39 -6 160 21 223 50 62 28 263 87 330 97 75 10
390 135 398 158 10 31 -149 0 -243 -48 -42 -21 -72 -25 -94 -11 -22 14 18 30
117 47 80 14 125 34 110 50 -4 3 -25 8 -47 11 -30 4 -61 -2 -115 -21 -79 -29
-102 -46 -93 -71 5 -10 -5 -17 -33 -25 -28 -7 -40 -16 -40 -28 0 -21 -19 -42
-37 -42 -15 0 -43 62 -43 95 0 13 -6 36 -14 52 -7 15 -20 41 -27 57 -8 16 -20
31 -27 34 -6 2 -36 -21 -66 -52z m-3668 -1873 c-43 -2 -113 -2 -155 0 -43 1
-8 3 77 3 85 0 120 -2 78 -3z"/>
<path d="M9970 17917 c0 -33 80 -59 116 -39 16 9 14 11 -12 25 -46 23 -104 31
-104 14z"/>
<path d="M7440 17887 c-22 -20 -85 -35 -180 -43 -165 -13 -175 -43 -12 -37 53
2 119 11 146 20 48 15 86 43 86 63 0 14 -23 12 -40 -3z"/>
<path d="M7892 17841 c-21 -13 -10 -44 18 -51 45 -12 69 29 31 50 -24 12 -32
12 -49 1z"/>
<path d="M6778 17828 c-44 -15 -34 -31 15 -23 41 7 77 21 77 30 0 9 -64 4 -92
-7z"/>
<path d="M7865 17616 c-55 -14 -189 -61 -214 -76 -13 -8 -14 -9 -1 -10 21 -1
342 31 357 36 19 5 4 33 -28 49 -33 18 -47 18 -114 1z"/>
<path d="M13900 16865 c0 -15 89 -75 112 -75 9 0 23 -11 32 -25 9 -14 21 -23
26 -20 6 4 23 -8 39 -25 16 -18 40 -39 54 -48 14 -10 53 -38 86 -64 72 -57
111 -70 111 -40 0 12 5 24 11 27 15 10 -14 39 -70 71 -25 15 -75 46 -111 69
-170 110 -290 164 -290 130z"/>
<path d="M14400 16579 c0 -22 102 -127 165 -170 20 -14 33 -31 33 -45 0 -13
22 -49 52 -83 78 -89 120 -111 120 -61 0 10 4 22 10 25 6 4 7 -6 3 -26 -5 -25
-2 -35 12 -46 11 -7 13 -13 7 -13 -20 0 -13 -20 24 -71 54 -74 97 -60 110 38
11 83 -11 108 -250 285 -117 86 -267 188 -278 188 -4 0 -8 -10 -8 -21z m483
-447 c-30 -5 -71 17 -52 28 7 5 25 2 43 -8 29 -15 29 -17 9 -20z"/>
<path d="M14180 16515 c0 -9 39 -60 88 -112 158 -174 157 -173 191 -173 27 0
31 4 31 26 0 14 -13 43 -29 63 -16 20 -40 58 -52 86 -33 68 -102 117 -175 123
-46 4 -54 2 -54 -13z"/>
<path d="M3925 16485 c-27 -18 -94 -71 -148 -119 -54 -47 -141 -121 -195 -165
-105 -85 -152 -127 -373 -327 -150 -137 -252 -240 -479 -484 -301 -324 -491
-563 -825 -1036 -406 -576 -795 -1330 -1048 -2035 -73 -201 -226 -699 -266
-861 -84 -343 -124 -551 -175 -909 -72 -497 -90 -765 -90 -1309 0 -656 49
-1132 189 -1833 175 -875 567 -1884 1038 -2672 257 -430 379 -609 671 -989
221 -288 343 -429 673 -781 338 -361 845 -789 1338 -1131 751 -520 1447 -870
2310 -1159 376 -127 975 -272 1338 -325 117 -18 133 -18 154 -5 33 22 29 47
-17 100 -43 49 -49 75 -25 95 25 21 17 57 -24 104 -22 25 -42 60 -46 78 -7 28
-4 35 20 53 63 47 91 83 109 141 24 79 11 176 -33 260 -32 62 -38 84 -21 84 6
0 15 11 21 24 9 19 8 29 -5 47 -22 31 -20 80 4 126 24 47 54 215 46 262 -7 42
-7 43 0 101 4 30 -2 74 -16 129 l-21 83 21 42 c23 48 26 139 10 265 -12 94
-52 258 -80 333 -20 55 -25 60 -113 114 -51 31 -128 83 -173 115 -69 51 -276
159 -302 159 -22 0 -217 86 -331 146 -280 147 -469 308 -517 440 -33 93 -63
140 -171 277 -183 230 -299 404 -428 642 -45 82 -104 172 -153 233 -19 23 -73
99 -121 170 l-86 127 -130 87 c-174 116 -202 151 -155 193 29 26 25 46 -19
115 -68 104 -73 192 -17 268 13 18 63 62 110 98 55 42 95 81 112 110 32 55 30
58 -68 98 -38 16 -87 45 -110 65 l-42 38 14 85 c10 67 10 96 1 131 -19 77 -15
94 27 121 50 31 57 41 77 111 10 33 26 81 36 107 11 26 19 69 19 97 0 72 24
91 145 116 19 4 49 27 80 61 40 43 56 70 75 132 31 98 73 147 133 157 71 12
90 27 129 100 11 22 36 63 54 91 39 59 43 89 14 112 -13 11 -20 28 -19 47 0
17 2 95 3 175 2 125 6 159 22 191 2 3 -4 18 -12 34 -12 23 -12 39 -4 84 10 55
10 56 -42 161 -29 58 -69 130 -88 160 -51 77 -53 86 -30 131 12 22 17 45 13
52 -4 7 -38 49 -75 95 -87 103 -103 106 -166 27 -24 -30 -68 -70 -98 -90 -58
-39 -65 -54 -35 -82 10 -10 26 -30 35 -45 17 -26 17 -28 -5 -59 -26 -37 -90
-68 -140 -69 -44 0 -75 23 -114 84 -16 25 -32 46 -36 46 -5 0 -25 16 -46 36
-75 70 -122 97 -156 90 -92 -19 -97 -19 -135 8 -21 14 -48 26 -59 26 -30 0
-63 46 -63 87 0 53 -23 85 -110 157 -71 59 -85 67 -111 61 -36 -8 -81 18 -134
77 -34 37 -37 45 -32 82 4 23 15 64 27 90 11 26 20 56 20 66 0 9 -23 46 -51
81 -28 35 -78 110 -110 165 -33 56 -76 116 -95 133 -31 29 -35 37 -32 74 l3
42 -67 3 c-60 3 -80 9 -180 62 -62 33 -172 88 -244 124 -147 72 -129 54 -273
276 -167 260 -210 285 -378 220 -42 -16 -88 -30 -100 -30 -38 0 -148 55 -195
97 -23 22 -86 74 -138 115 -105 83 -201 180 -273 275 -27 35 -69 77 -95 95
-61 42 -73 57 -126 158 -98 188 -108 256 -51 355 58 102 67 127 77 210 16 134
-10 369 -73 671 l-22 101 22 57 c25 68 26 122 5 259 -23 152 -5 277 70 496 42
120 45 151 17 151 -23 0 -51 -36 -84 -111 -66 -149 -81 -242 -97 -594 -9 -208
-19 -265 -55 -336 -18 -34 -17 -102 3 -249 11 -85 1 -126 -45 -171 -40 -41
-64 -44 -79 -11 -3 9 -15 67 -25 127 -9 61 -23 136 -30 167 -12 54 -11 61 10
110 12 29 32 78 44 108 l20 55 -42 100 c-53 122 -53 173 -2 233 85 100 86 102
87 246 1 130 1 132 51 276 27 80 67 186 88 235 36 87 84 236 85 263 0 7 -11
17 -24 22 l-25 9 26 83 c38 123 57 169 135 318 39 74 100 191 136 260 35 69
80 145 99 170 20 25 73 95 118 155 110 145 247 297 551 611 139 142 297 315
352 384 54 69 112 136 127 150 15 14 53 59 85 100 57 75 174 192 260 262 58
47 49 55 -15 13z"/>
<path d="M14900 16332 c0 -5 17 -33 38 -63 20 -30 45 -71 54 -91 18 -40 60
-74 78 -63 18 11 11 24 -34 73 -24 26 -51 63 -61 82 -10 19 -24 43 -33 53 -16
18 -42 23 -42 9z"/>
<path d="M10280 16270 c0 -5 9 -14 20 -20 11 -6 18 -15 15 -21 -4 -5 -2 -9 4
-9 16 0 19 13 10 38 -8 22 -49 32 -49 12z"/>
<path d="M15085 16229 c13 -39 95 -158 113 -163 9 -3 40 -26 67 -51 42 -37 47
-44 28 -45 -12 0 -44 21 -75 48 -29 27 -58 47 -64 45 -7 -2 -21 8 -33 22 -11
15 -24 24 -30 21 -14 -9 -1 -44 23 -64 12 -9 28 -33 36 -52 7 -19 22 -47 32
-62 19 -28 24 -73 9 -83 -5 -3 -21 9 -34 26 -17 21 -30 30 -41 26 -24 -10 -19
-33 12 -52 15 -10 41 -31 57 -48 17 -16 64 -46 105 -67 100 -51 133 -76 288
-219 131 -121 192 -195 249 -301 l29 -55 70 -8 c123 -15 136 -18 160 -42 38
-38 67 -55 94 -55 23 0 30 -10 58 -75 18 -41 32 -80 32 -87 1 -51 75 -217 168
-378 43 -75 99 -300 74 -300 -6 0 -27 -16 -47 -35 -29 -27 -36 -40 -31 -59 10
-42 56 -63 204 -92 31 -6 32 -6 32 28 0 19 -5 39 -11 45 -8 8 -5 29 10 76 23
69 74 127 140 161 17 9 31 18 31 21 0 14 -71 105 -368 477 -125 157 -212 248
-238 248 -6 0 -28 12 -49 26 -24 16 -47 24 -62 21 -21 -4 -23 -1 -23 43 0 64
-39 115 -266 350 -104 107 -149 158 -107 122 88 -77 258 -254 328 -342 58 -72
170 -180 187 -180 7 0 7 4 1 13 -200 260 -431 505 -622 657 -89 70 -184 155
-326 289 -165 156 -225 199 -210 150z"/>
<path d="M10207 16150 c-56 -52 -111 -129 -165 -229 -7 -13 -28 -41 -47 -63
-46 -50 -46 -83 -2 -97 17 -5 113 -12 212 -14 180 -4 253 -16 263 -44 2 -7 -8
-17 -22 -23 -14 -5 -26 -14 -26 -20 0 -18 41 -10 74 15 18 14 39 25 46 25 6 0
10 6 7 13 -3 8 -1 20 3 27 7 12 18 10 56 -10 26 -13 55 -23 63 -22 9 0 31 -1
50 -4 33 -5 33 -6 12 -20 -28 -20 -28 -60 0 -69 31 -10 51 15 54 71 4 60 -9
77 -79 100 -67 22 -71 27 -56 65 12 27 11 33 -2 43 -8 6 -13 16 -11 22 2 7 -4
19 -13 29 -14 14 -28 16 -71 11 -39 -5 -62 -2 -85 10 -24 12 -36 14 -55 5 -41
-19 -99 -3 -133 36 -35 39 -38 75 -11 119 24 39 30 76 14 81 -6 2 -41 -23 -76
-57z"/>
<path d="M14970 16113 c0 -4 5 -15 10 -23 8 -13 10 -13 10 2 0 9 -4 20 -10 23
-5 3 -10 3 -10 -2z"/>
<path d="M9440 15992 c0 -15 26 -22 78 -22 31 0 43 3 36 10 -15 15 -114 25
-114 12z"/>
<path d="M8910 15920 c-133 -36 -218 -68 -298 -113 -118 -68 -118 -67 -26 -67
83 0 171 -20 185 -41 4 -7 0 -23 -9 -37 -13 -20 -14 -33 -5 -80 10 -56 44
-194 49 -200 1 -2 13 3 26 11 41 27 190 68 278 78 97 10 170 28 170 40 0 5 -5
9 -12 9 -20 0 -78 50 -94 83 -42 82 -99 157 -119 157 -12 0 -30 6 -40 14 -30
22 -3 44 63 51 140 15 200 70 122 110 -47 24 -169 18 -290 -15z"/>
<path d="M9200 15649 c0 -26 100 -92 116 -76 8 8 -38 58 -66 72 -34 18 -50 19
-50 4z"/>
<path d="M9743 15605 c-27 -19 -40 -79 -23 -100 15 -18 50 -19 73 -2 13 10 15
19 7 51 -12 55 -29 70 -57 51z"/>
<path d="M9341 15566 c-16 -19 -3 -45 25 -52 45 -12 61 23 22 50 -27 19 -32
20 -47 2z"/>
<path d="M9457 15553 c-24 -23 25 -89 57 -77 13 5 16 13 11 33 -9 38 -49 64
-68 44z"/>
<path d="M9563 15504 c-3 -8 -1 -20 6 -27 25 -25 11 -34 -54 -32 -53 1 -69 6
-85 23 -24 25 -39 27 -89 11 -120 -39 -200 -77 -248 -119 -29 -25 -68 -58 -87
-73 -69 -56 -32 -114 56 -88 41 13 74 40 113 94 18 25 31 30 145 48 69 11 154
29 190 41 78 24 172 69 177 84 4 13 -68 54 -96 54 -12 0 -24 -7 -28 -16z"/>
<path d="M15488 15155 c-12 -13 11 -45 127 -180 125 -146 152 -183 218 -307
40 -74 144 -213 267 -356 30 -36 72 -42 78 -12 1 9 -37 67 -86 130 -48 63
-110 153 -136 200 -112 195 -155 247 -234 285 -48 23 -53 35 -17 35 68 0 118
-52 229 -237 47 -78 113 -182 148 -230 35 -49 74 -105 88 -126 33 -51 207
-197 226 -190 8 3 14 11 14 17 0 7 5 17 12 24 16 16 38 81 38 112 -1 46 -45
155 -114 279 -38 67 -86 173 -107 234 -64 182 -94 218 -225 271 -73 30 -119
36 -289 40 -71 2 -152 7 -180 11 -27 4 -53 4 -57 0z"/>
<path d="M16390 15030 c12 -23 49 -45 58 -35 8 7 -44 55 -59 55 -6 0 -6 -7 1
-20z"/>
<path d="M8235 14940 c-3 -5 -1 -10 4 -10 6 0 11 5 11 10 0 6 -2 10 -4 10 -3
0 -8 -4 -11 -10z"/>
<path d="M7243 14458 c-49 -55 -53 -98 -9 -98 31 0 46 26 46 79 0 47 -8 51
-37 19z"/>
<path d="M16856 14338 c4 -7 24 -38 44 -68 20 -30 74 -120 120 -200 46 -80
102 -173 125 -206 45 -66 136 -184 142 -184 22 0 -325 567 -391 638 -30 32
-54 44 -40 20z"/>
<path d="M7251 14323 c-15 -29 -14 -43 3 -43 21 0 27 15 18 41 l-9 23 -12 -21z"/>
<path d="M16803 14274 c-37 -18 -71 -60 -97 -121 -18 -40 -18 -44 -1 -97 10
-31 33 -80 52 -108 19 -29 48 -79 65 -112 16 -32 48 -81 69 -109 50 -63 72
-105 65 -123 -9 -23 -24 -16 -31 14 -3 16 -24 50 -46 77 -23 27 -52 72 -66
100 -14 27 -43 80 -65 118 -38 66 -39 67 -82 67 -23 0 -71 11 -106 25 -35 14
-68 25 -73 25 -5 0 -6 -19 -3 -42 3 -24 10 -140 14 -259 l8 -216 42 -84 c23
-46 57 -111 77 -144 37 -65 65 -166 65 -239 0 -25 -9 -69 -21 -98 -31 -78 -47
-128 -54 -170 -6 -34 -4 -39 16 -47 24 -10 24 -10 2 -10 -15 -1 -24 -8 -27
-23 -2 -13 -10 -45 -17 -73 -16 -67 -15 -124 5 -225 10 -55 20 -186 26 -375
13 -354 17 -383 67 -442 66 -77 91 -122 106 -192 9 -38 37 -115 62 -172 48
-105 75 -207 95 -359 15 -115 16 -116 38 -97 10 9 41 24 70 33 69 23 79 17
205 -119 92 -98 102 -107 114 -91 7 10 13 34 13 54 0 53 23 80 70 80 52 0 60
-17 11 -25 -26 -4 -42 -14 -51 -30 -17 -31 -5 -48 29 -40 22 5 20 2 -14 -22
-22 -15 -43 -27 -47 -25 -15 4 -8 -25 28 -108 20 -47 50 -125 68 -175 19 -49
38 -101 44 -115 6 -14 16 -44 22 -67 9 -36 15 -43 35 -43 41 0 93 32 97 59 2
14 8 26 14 28 12 4 65 -126 90 -219 8 -35 19 -67 24 -73 11 -15 47 -147 65
-240 19 -98 22 -264 6 -322 -13 -47 -11 -58 29 -188 29 -94 37 -127 46 -210 9
-75 -5 -48 -31 57 -12 51 -35 133 -51 181 -27 87 -28 89 -15 192 11 90 10 118
-4 221 -10 66 -28 155 -42 199 -13 44 -35 120 -49 169 -13 49 -33 109 -44 134
l-20 45 -30 -28 c-35 -34 -97 -47 -165 -34 -121 21 -292 12 -333 -18 -15 -10
-35 -22 -44 -26 -23 -8 -17 -23 43 -113 68 -101 76 -106 95 -57 10 26 29 47
55 64 63 39 64 68 2 94 -20 9 -34 18 -31 21 13 13 83 -32 93 -60 9 -26 6 -31
-26 -60 -40 -35 -79 -88 -79 -106 0 -7 32 -56 70 -110 39 -54 80 -121 92 -150
l22 -52 21 49 c19 43 101 143 117 143 3 0 23 -30 44 -66 22 -37 55 -85 75
-108 48 -56 69 -105 69 -163 0 -26 4 -63 9 -81 11 -36 5 -62 -13 -62 -7 0 -11
28 -12 83 -2 99 -15 132 -81 212 -28 33 -60 79 -72 102 -12 24 -26 43 -31 43
-15 0 -57 -62 -84 -122 l-25 -56 33 -105 c40 -126 71 -182 129 -234 24 -21 71
-78 104 -128 69 -102 130 -179 161 -201 18 -12 22 -12 36 2 9 8 16 26 16 39 0
15 5 23 13 20 6 -3 22 12 34 32 40 70 121 152 164 164 21 7 39 17 39 23 0 6
-9 56 -19 111 -14 72 -22 169 -27 350 -4 138 -10 260 -15 272 -6 17 -19 24
-57 29 -43 5 -51 11 -73 45 -13 21 -31 39 -40 39 -21 0 -52 -35 -54 -62 -2
-27 -50 -47 -68 -28 -9 9 -6 17 14 33 14 12 36 37 49 55 17 26 27 32 45 28 31
-8 37 2 21 33 -15 28 -18 126 -12 371 7 290 37 437 111 536 13 16 33 51 45 77
22 46 22 48 5 139 -17 99 -106 449 -131 520 -8 24 -27 56 -43 73 -15 16 -71
91 -123 166 -107 150 -144 194 -333 389 -163 168 -221 220 -244 220 -17 0 -18
-4 -9 -42 5 -23 24 -78 43 -122 18 -45 55 -135 80 -201 25 -66 51 -131 57
-145 6 -14 18 -47 28 -75 10 -27 28 -75 40 -105 37 -96 59 -158 167 -470 121
-354 133 -393 133 -441 0 -46 -12 -57 -140 -115 -58 -26 -118 -58 -133 -71
-41 -33 -58 -28 -20 7 17 16 33 33 35 37 1 4 52 30 111 57 59 27 112 56 116
64 11 19 8 32 -106 382 -98 303 -288 822 -395 1077 -55 134 -59 146 -44 162 9
10 16 22 16 28 0 20 -222 217 -233 207 -3 -3 -2 -17 4 -31 15 -39 11 -78 -10
-97 -11 -10 -52 -23 -98 -30 -60 -9 -79 -16 -81 -29 -6 -29 45 -192 83 -267
38 -75 46 -138 20 -164 -27 -27 -16 -88 49 -259 14 -37 26 -76 26 -86 0 -28
-62 -48 -180 -61 -124 -12 -140 -12 -140 -1 0 4 42 14 93 20 90 12 194 35 204
45 3 2 -18 60 -45 128 -28 68 -51 135 -52 148 -4 52 0 69 21 75 26 9 22 37
-20 133 -33 76 -76 219 -87 287 l-6 45 63 1 c35 0 80 6 99 12 33 12 35 14 36
61 0 26 -1 59 -4 71 -6 35 -39 65 -70 65 -18 0 -23 3 -14 8 10 7 3 28 -28 93
-54 113 -63 201 -30 291 12 35 33 74 45 88 13 14 27 42 30 62 4 21 11 35 16
33 14 -9 -2 -66 -40 -139 -60 -116 -54 -226 20 -346 19 -31 80 -92 167 -167
75 -64 252 -232 393 -373 242 -241 264 -266 389 -442 72 -104 135 -188 139
-188 4 0 2 48 -6 108 -27 218 -32 266 -28 270 9 9 42 -197 55 -333 4 -44 28
-159 54 -255 88 -329 98 -379 94 -455 -4 -64 -9 -75 -46 -124 -22 -30 -45 -72
-50 -93 -10 -37 -9 -38 11 -32 31 9 55 33 60 58 3 11 5 1 5 -24 0 -76 120
-409 142 -395 5 3 11 -18 14 -47 12 -116 20 -235 18 -271 -1 -21 2 -36 7 -33
5 3 12 -29 16 -72 3 -42 13 -108 20 -147 7 -38 16 -137 20 -220 4 -111 10
-154 20 -165 11 -11 18 -11 26 -3 12 12 7 113 -21 488 -46 602 -187 1406 -322
1840 -102 327 -271 800 -373 1040 -60 141 -186 397 -317 645 -89 167 -115 209
-191 294 -48 55 -103 127 -123 160 -20 34 -77 133 -128 221 -51 88 -99 161
-107 162 -8 2 -28 -4 -46 -13z m130 -756 c3 -18 4 -44 2 -58 -2 -14 -4 -44 -4
-68 -1 -25 -5 -41 -11 -37 -5 3 -7 25 -4 48 3 23 2 66 -4 95 -7 40 -6 52 3 52
7 0 15 -15 18 -32z m-61 -770 c-8 -8 -45 -13 -90 -15 l-77 -2 75 13 c104 18
107 19 92 4z m1423 -2256 c5 -47 5 -47 -9 -17 -8 17 -17 53 -20 80 l-6 50 15
-33 c9 -18 18 -54 20 -80z m-606 -1258 c-11 -32 -17 -72 -14 -92 3 -30 2 -33
-6 -18 -13 21 -5 82 16 132 22 53 24 40 4 -22z"/>
<path d="M4283 10887 c-15 -19 -53 -45 -84 -59 l-57 -26 -11 -68 c-7 -37 -20
-92 -30 -123 -45 -139 -46 -141 -29 -158 22 -21 65 -10 73 20 4 12 17 38 30
57 21 31 132 297 149 357 11 35 -11 35 -41 0z"/>
<path d="M17020 10752 l-54 -27 -2 -105 c-1 -58 -7 -118 -13 -133 -18 -46 -13
-70 25 -127 43 -66 74 -134 80 -174 2 -16 6 -31 9 -34 9 -10 215 61 215 74 0
17 -23 33 -56 39 -22 5 -42 -2 -84 -29 -30 -19 -57 -33 -59 -30 -9 9 46 57 87
75 39 17 46 17 75 4 32 -14 77 -48 77 -59 0 -19 -174 -97 -225 -101 -19 -1
-31 -8 -33 -19 -5 -26 6 -62 24 -80 14 -15 17 -14 35 8 10 13 38 28 63 35 53
13 265 14 319 2 30 -7 37 -6 34 4 -3 7 -29 77 -57 156 -91 252 -122 308 -247
437 -122 126 -125 127 -213 84z"/>
<path d="M18056 10724 c-9 -8 -16 -17 -16 -18 0 -2 -5 -28 -10 -57 -27 -138
-44 -614 -25 -681 17 -61 30 -80 67 -99 65 -33 68 -27 65 114 -2 106 1 127 17
152 22 35 59 69 100 91 27 15 28 19 23 63 -3 27 -26 93 -50 147 -24 54 -54
133 -66 174 -34 118 -41 130 -66 130 -13 0 -31 -7 -39 -16z"/>
<path d="M18247 10190 c-10 -16 -22 -30 -27 -30 -5 0 -21 -17 -35 -37 -24 -36
-25 -45 -25 -169 0 -97 4 -141 16 -169 8 -21 13 -43 10 -50 -8 -21 12 -497 23
-535 5 -19 15 -61 21 -92 7 -37 16 -58 25 -58 19 0 22 18 30 160 4 69 10 127
14 130 12 10 41 68 41 84 0 9 7 28 16 41 21 32 15 153 -20 415 -9 63 -20 129
-25 146 -5 17 -12 60 -16 95 -11 109 -19 119 -48 69z m30 -222 c29 -342 38
-489 31 -501 -11 -18 -16 7 -23 128 -3 61 -10 142 -16 180 -5 39 -14 122 -20
185 -5 63 -12 133 -15 155 -6 38 -5 39 12 23 15 -14 21 -48 31 -170z"/>
<path d="M10470 8526 c-71 -24 -200 -126 -200 -157 0 -11 16 -33 35 -50 41
-36 45 -68 15 -116 -21 -34 -56 -56 -107 -68 -36 -7 -63 -38 -63 -71 0 -12 -8
-36 -17 -53 l-18 -30 35 -37 c19 -20 44 -39 55 -44 11 -4 29 -25 40 -46 20
-38 22 -39 73 -39 77 0 94 -27 67 -112 -8 -23 8 -42 78 -96 46 -35 47 -54 7
-166 -51 -144 -54 -182 -25 -296 34 -135 83 -206 170 -246 68 -31 110 -25 232
35 142 69 235 103 312 112 33 3 61 11 61 16 0 5 -15 27 -32 48 -18 21 -58 85
-88 141 -49 92 -62 108 -113 144 -88 60 -136 158 -90 183 14 8 15 15 4 53 -10
35 -10 52 1 84 12 37 17 41 76 60 34 11 67 27 72 35 5 8 10 62 10 119 l0 105
-48 45 c-26 25 -84 68 -127 95 -105 64 -122 80 -155 146 -49 96 -124 176 -192
204 -27 12 -40 12 -68 2z"/>
<path d="M11107 8013 c-4 -3 -7 -40 -8 -82 0 -42 -6 -94 -13 -116 -12 -41 -11
-41 -103 -65 -56 -14 -68 -37 -52 -100 10 -38 10 -57 0 -93 -18 -63 12 -108
101 -152 43 -21 48 -29 101 -145 19 -41 55 -103 80 -136 39 -52 54 -65 97 -79
49 -16 52 -16 71 1 20 18 26 68 9 79 -19 12 -10 23 23 30 17 4 72 18 122 32
l89 24 64 -20 c35 -12 67 -19 72 -16 11 7 58 152 71 219 8 45 6 55 -31 139
-67 150 -65 283 6 389 19 28 31 54 27 58 -30 28 -311 38 -406 16 -60 -15 -77
-14 -196 9 -80 16 -114 19 -124 8z"/>
<path d="M11820 7888 c-31 -66 -34 -81 -34 -158 1 -74 6 -96 38 -173 20 -48
36 -103 36 -123 0 -20 -14 -92 -31 -160 -16 -68 -27 -128 -24 -134 10 -16 51
-11 100 12 41 20 50 21 103 10 32 -7 65 -12 74 -12 33 0 78 53 129 153 28 56
67 126 86 156 19 29 50 83 69 120 l35 66 -81 77 c-124 118 -226 181 -358 219
-103 29 -103 29 -142 -53z"/>
<path d="M10286 7749 c-15 -11 -33 -35 -40 -53 -18 -43 -85 -90 -227 -159 -97
-48 -126 -57 -170 -57 -66 0 -77 -7 -103 -62 -31 -63 -59 -75 -140 -61 -53 9
-72 17 -95 42 -33 35 -49 38 -92 15 -28 -14 -30 -19 -26 -52 18 -125 42 -172
89 -172 11 0 34 -7 51 -16 18 -9 39 -20 46 -24 27 -12 32 -61 10 -96 -26 -43
-85 -94 -109 -94 -10 0 -42 -22 -72 -48 -29 -26 -107 -83 -173 -126 -66 -43
-133 -91 -150 -106 -39 -36 -105 -71 -119 -63 -6 4 -23 15 -37 25 -25 18 -27
19 -69 2 -43 -17 -43 -17 -94 10 -28 15 -90 56 -138 92 -81 60 -88 67 -88 100
0 34 -59 166 -80 179 -10 6 -80 -60 -80 -75 0 -13 -141 -20 -289 -15 -87 4
-152 2 -160 -3 -17 -12 -17 -56 -1 -88 8 -14 40 -36 79 -54 36 -17 73 -34 81
-39 26 -14 23 -47 -6 -70 -24 -19 -35 -21 -104 -15 -74 6 -78 6 -90 -16 -17
-32 -15 -122 4 -156 8 -16 34 -51 57 -79 53 -64 79 -119 79 -173 0 -70 -57
-449 -85 -557 -26 -103 -61 -187 -82 -193 -6 -1 -27 11 -46 27 -41 36 -42 37
-93 12 -42 -20 -113 -40 -229 -65 -172 -35 -243 -85 -305 -209 -26 -53 -31
-73 -27 -112 7 -67 -6 -96 -56 -121 -23 -12 -48 -33 -55 -47 -18 -37 -34 -134
-27 -166 3 -15 39 -65 80 -112 94 -105 127 -160 123 -201 -3 -34 8 -44 63 -53
38 -6 67 -24 144 -89 57 -48 115 -57 196 -31 54 18 140 64 172 93 20 18 19 22
18 -93 0 -49 3 -117 7 -150 l7 -60 130 -7 c72 -3 184 -9 250 -13 l120 -8 119
62 c65 34 150 81 190 104 39 24 91 51 116 60 54 21 267 34 290 18 12 -8 15
-34 16 -113 4 -235 103 -350 347 -400 103 -21 297 -92 410 -150 54 -27 76 -32
169 -38 119 -8 154 -23 198 -87 26 -38 39 -128 22 -159 -6 -12 -7 -26 -1 -36
5 -9 16 -49 24 -89 9 -40 21 -79 27 -87 10 -11 37 -12 142 -8 72 4 154 9 181
11 72 7 78 1 60 -69 -8 -31 -15 -61 -15 -65 0 -5 27 -25 60 -45 129 -80 134
-126 31 -338 -50 -103 -51 -108 -37 -136 19 -37 39 -186 25 -190 -17 -6 -39
-33 -39 -48 0 -17 10 -17 160 -3 202 18 260 -5 274 -106 15 -105 8 -98 97 -91
71 7 80 5 99 -14 29 -29 22 -75 -21 -135 -18 -25 -29 -48 -26 -52 4 -3 26 -7
50 -7 55 -2 64 -9 78 -55 9 -32 8 -44 -6 -75 -23 -49 -49 -66 -200 -130 -70
-30 -173 -82 -229 -116 -119 -71 -236 -156 -236 -170 0 -13 110 -46 221 -64
137 -24 226 -55 298 -104 l64 -44 113 79 c62 43 146 98 186 122 40 24 100 60
133 80 97 58 356 236 404 277 46 40 88 118 130 245 25 77 53 107 191 201 165
113 265 167 468 254 57 25 147 67 200 93 53 27 164 72 245 100 159 55 253 101
332 161 56 41 74 62 172 195 37 50 86 111 109 137 51 54 100 130 138 211 15
32 55 101 90 155 105 162 160 298 221 556 32 133 50 186 116 333 12 26 35 53
63 72 57 39 75 62 189 233 52 79 143 197 202 263 131 148 243 303 295 409 97
198 127 488 66 623 -33 71 -55 80 -139 59 -48 -12 -72 -14 -91 -6 -45 17 -146
90 -222 161 -81 75 -157 122 -225 140 -41 11 -58 9 -165 -16 l-119 -29 -130
27 c-72 15 -146 27 -164 27 -21 0 -65 -17 -118 -46 -47 -25 -93 -44 -106 -42
-21 3 -22 8 -22 83 -1 130 -9 139 -148 169 -42 10 -116 33 -165 52 -74 29
-227 74 -253 74 -4 0 -38 -21 -75 -46 -89 -61 -116 -68 -150 -42 -24 19 -26
25 -20 67 13 88 14 85 -24 93 -19 4 -93 16 -164 27 -71 11 -134 25 -139 30
-18 18 -10 95 17 174 32 94 35 170 6 195 -11 9 -37 22 -58 28 -31 9 -41 19
-63 65 -40 82 -87 226 -99 303 -11 73 -29 115 -61 147 -27 27 -45 24 -57 -9
-5 -15 -36 -75 -69 -132 -32 -58 -78 -144 -101 -192 -65 -133 -124 -172 -220
-147 -43 11 -53 10 -97 -11 -67 -30 -97 -27 -183 15 -85 41 -117 43 -215 14
-80 -24 -97 -38 -97 -84 0 -17 -6 -39 -13 -49 -13 -18 -17 -18 -89 -2 -73 16
-78 16 -174 -4 -114 -25 -196 -55 -309 -115 -105 -56 -121 -59 -198 -35 -113
35 -185 116 -226 256 -31 107 -28 159 21 308 l42 129 -67 61 c-62 56 -82 86
-57 86 14 0 13 43 -2 58 -17 17 -32 15 -62 -9z"/>
<path d="M5693 6936 c-31 -38 -55 -50 -124 -60 -26 -4 -54 -15 -64 -25 -14
-17 -15 -25 -4 -60 11 -38 10 -42 -16 -77 -15 -19 -34 -61 -42 -92 -17 -64
-36 -105 -62 -131 -43 -43 -49 -60 -39 -107 7 -30 6 -66 -1 -108 -15 -85 -14
-92 12 -116 52 -50 125 -73 165 -52 36 20 45 6 39 -64 -7 -93 -36 -140 -137
-219 -104 -81 -130 -120 -130 -195 0 -48 6 -66 45 -130 50 -84 53 -99 25 -125
-11 -10 -20 -23 -20 -30 0 -17 45 -55 155 -130 135 -92 138 -96 213 -210 35
-55 90 -131 121 -170 83 -101 114 -149 231 -359 98 -175 227 -360 440 -631 64
-82 100 -146 100 -180 0 -43 32 -86 128 -170 164 -145 381 -273 617 -364 179
-70 207 -82 276 -121 37 -21 91 -55 120 -77 68 -50 151 -102 209 -131 37 -19
50 -33 72 -80 37 -77 79 -238 89 -342 22 -210 23 -258 5 -305 -16 -40 -16 -54
-6 -113 8 -44 10 -119 6 -222 -8 -221 -14 -260 -42 -293 -24 -29 -31 -61 -15
-71 13 -9 19 -64 11 -108 -6 -32 -3 -48 18 -86 17 -32 27 -73 33 -130 9 -80 8
-87 -23 -163 -24 -61 -42 -89 -75 -118 -23 -21 -43 -42 -43 -46 0 -4 18 -27
40 -53 48 -54 56 -81 41 -134 -18 -59 -4 -72 74 -63 62 6 62 6 88 -29 15 -19
27 -41 27 -48 0 -19 -49 -64 -78 -73 -37 -11 -17 -22 55 -28 37 -3 115 -11
172 -17 57 -6 105 -9 108 -6 12 12 -36 60 -99 98 -62 39 -72 50 -100 108 l-31
65 25 45 c15 25 32 44 39 42 9 -2 10 0 1 11 -7 8 -8 17 -4 22 4 4 -3 4 -15 1
-58 -18 -31 76 44 152 29 29 53 56 53 60 0 37 -40 111 -91 167 -70 77 -73 96
-29 181 32 63 37 93 18 112 -12 12 40 76 157 196 48 48 56 62 51 84 -40 194
-40 192 -19 220 14 20 46 36 112 58 51 18 96 36 100 40 16 18 42 97 34 105 -4
4 -28 4 -53 -1 -73 -14 -95 5 -160 138 -36 74 -68 124 -92 145 -75 67 -93 118
-62 178 18 35 15 42 -65 140 -25 31 -72 98 -104 149 -43 67 -62 90 -74 86 -27
-11 -6 39 47 109 28 36 50 73 50 81 0 7 -15 31 -33 51 -18 21 -43 51 -55 67
l-22 29 20 32 c11 18 20 50 20 71 1 64 18 121 46 149 21 21 24 31 18 58 -4 18
-6 61 -5 96 1 36 -3 77 -9 92 -9 22 -9 32 4 51 25 38 -1 104 -92 234 -58 82
-63 84 -213 84 -99 0 -100 0 -111 28 -6 15 -13 80 -16 145 -4 107 -11 133 -27
107 -9 -15 -94 -50 -159 -65 -91 -21 -144 -6 -217 61 -60 55 -70 60 -153 67
-26 3 -55 12 -65 21 -15 16 -15 18 2 30 9 7 17 22 17 33 0 25 -45 96 -104 162
-74 83 -99 127 -98 169 4 102 48 195 98 208 34 9 44 32 44 101 0 44 7 74 30
122 46 96 85 140 154 172 54 25 372 109 415 109 9 0 23 5 31 10 12 8 8 16 -27
46 -51 42 -49 53 26 146 27 33 52 69 54 79 11 43 -68 118 -147 141 -42 12
-191 14 -402 7 -135 -4 -145 -1 -170 60 -8 20 -32 54 -53 76 -21 22 -49 59
-61 82 -14 26 -46 58 -82 84 -39 27 -74 64 -108 113 -61 92 -128 141 -293 218
l-38 17 48 -59 c26 -33 56 -71 67 -84 31 -39 29 -91 -6 -160 -78 -155 -156
-244 -261 -298 -22 -11 -89 -35 -148 -54 -143 -46 -193 -80 -240 -168 -21 -39
-50 -114 -65 -169 -28 -100 -53 -137 -94 -137 -9 0 -51 31 -93 69 -71 65 -80
70 -153 86 l-77 18 5 62 c3 34 11 71 17 81 10 16 11 8 8 -42 -3 -34 -2 -66 2
-72 3 -5 32 -15 65 -21 67 -12 67 -12 158 -99 37 -35 73 -62 80 -60 7 2 29 51
49 109 69 205 79 226 126 270 51 47 118 78 217 103 83 21 196 84 251 140 40
42 121 180 143 245 11 30 9 39 -13 80 -38 70 -129 166 -179 191 -38 18 -51 20
-83 11 -81 -23 -126 -6 -243 90 -86 71 -265 193 -296 203 -17 5 -28 -1 -51
-28z m2427 -4126 c0 -24 -6 -33 -26 -41 -26 -9 -64 -4 -64 9 1 5 73 56 88 61
1 1 2 -13 2 -29z"/>
<path d="M8835 4303 c-50 -10 -118 -40 -210 -93 -246 -141 -291 -156 -427
-146 l-89 6 20 -28 c11 -16 27 -35 35 -42 9 -7 39 -52 67 -101 44 -78 50 -93
41 -117 -5 -16 -9 -94 -7 -174 2 -144 2 -146 -21 -157 -30 -13 -45 -68 -33
-121 9 -41 -5 -89 -31 -105 -18 -11 -11 -25 35 -74 59 -63 66 -97 28 -141 -15
-19 -38 -44 -50 -57 -25 -24 -30 -48 -12 -58 6 -4 43 -57 84 -119 40 -61 96
-135 124 -164 28 -29 51 -58 51 -65 0 -6 -9 -27 -20 -45 -33 -54 -27 -77 44
-150 53 -55 72 -85 107 -165 51 -120 67 -133 138 -118 38 8 61 21 91 51 56 56
119 100 144 100 12 0 30 -6 41 -14 12 -8 57 -15 117 -18 89 -4 103 -7 170 -42
l73 -38 30 36 c42 49 73 58 209 62 66 2 123 7 127 11 3 5 23 54 43 111 46 132
55 147 113 205 37 35 59 49 89 53 21 3 108 19 191 35 234 44 359 36 471 -33
31 -19 32 -19 38 -1 3 10 26 59 50 108 85 177 78 218 -53 292 -64 35 -70 42
-54 58 5 6 12 32 16 59 l7 49 -99 -7 c-92 -5 -204 -9 -264 -7 -26 1 -49 33
-49 67 0 9 -11 44 -26 79 -24 62 -24 66 -10 109 13 39 14 51 1 93 -26 89 -86
121 -223 122 -52 0 -78 7 -150 40 -124 57 -324 127 -417 146 -161 34 -260 103
-320 221 -28 54 -30 67 -30 164 0 58 -4 111 -8 118 -8 12 -144 16 -192 5z"/>
<path d="M10280 2615 c-147 -21 -337 -62 -368 -81 -43 -25 -88 -98 -131 -213
-22 -56 -45 -109 -52 -117 -17 -20 -2 -35 105 -101 124 -77 159 -91 268 -108
99 -15 481 -115 536 -140 17 -8 32 -20 32 -27 0 -7 -43 -56 -96 -109 l-96 -97
113 5 c382 14 437 28 546 139 40 40 75 85 79 101 4 15 22 53 40 84 58 97 47
112 -80 107 -65 -3 -70 -1 -83 22 -7 14 -15 46 -18 72 -3 26 -16 59 -27 74
l-22 27 -193 -7 c-110 -4 -193 -3 -193 2 0 5 7 31 15 58 18 59 19 119 4 181
-27 104 -178 156 -379 128z"/>
<path d="M8905 2169 c-72 -45 -111 -97 -134 -174 -25 -83 -27 -85 -126 -116
-35 -11 -77 -30 -92 -43 l-26 -23 13 -79 c7 -43 21 -97 31 -118 11 -22 18 -40
16 -41 -58 -27 -226 -190 -228 -221 -1 -11 0 -31 1 -46 1 -14 -15 -56 -34 -92
-20 -37 -36 -71 -36 -77 0 -6 29 -41 66 -79 60 -62 104 -140 104 -183 0 -7
-29 -43 -65 -80 -77 -80 -82 -102 -24 -117 44 -12 47 -28 7 -47 -29 -14 -47
-69 -42 -122 6 -48 36 -85 104 -126 62 -38 80 -59 80 -94 0 -15 8 -21 33 -25
76 -13 390 -30 480 -27 10 1 22 12 27 26 7 19 17 25 39 25 45 0 159 29 203 51
41 21 48 39 22 60 -8 7 -22 26 -31 43 -14 27 -14 31 3 43 12 9 29 12 44 8 14
-4 90 -9 170 -12 132 -4 147 -3 162 14 15 16 25 51 27 95 1 20 8 21 265 43
199 18 310 36 406 67 80 26 200 78 200 87 0 23 -112 105 -183 135 -43 17 -43
19 -18 54 10 15 27 45 38 67 47 93 117 212 141 237 14 16 55 43 91 61 36 19
120 70 186 114 126 85 216 134 377 203 66 29 107 53 128 76 33 38 34 42 21 77
-7 17 -24 30 -55 40 l-46 16 -40 -59 c-55 -81 -147 -154 -219 -173 -65 -18
-115 -23 -335 -37 -161 -11 -229 -6 -224 14 2 6 51 57 109 114 59 56 104 104
100 106 -3 2 -22 7 -41 11 -19 4 -109 27 -200 51 -90 24 -223 55 -295 69 -140
28 -212 60 -365 161 -73 47 -78 49 -159 52 -114 6 -153 -7 -191 -63 -17 -25
-33 -45 -36 -45 -3 0 -39 19 -81 42 -72 39 -81 42 -184 48 -63 3 -114 11 -121
18 -16 16 -27 14 -63 -9z"/>
<path d="M10609 1288 c-62 -44 -73 -59 -135 -182 -42 -81 -52 -111 -43 -117
44 -27 483 -23 584 5 55 16 203 85 233 109 10 8 9 12 -6 21 -10 6 -34 21 -53
34 -49 32 -125 59 -221 77 -166 31 -228 47 -252 66 -34 27 -56 24 -107 -13z"/>
<path d="M8118 403 c-23 -6 -30 -29 -12 -44 12 -10 20 -8 41 8 48 35 34 53
-29 36z"/>
</g>
</svg>
