<?xml version="1.0" standalone="no"?>
<!DOCTYPE svg PUBLIC "-//W3C//DTD SVG 20010904//EN"
 "http://www.w3.org/TR/2001/REC-SVG-20010904/DTD/svg10.dtd">
<svg version="1.0" xmlns="http://www.w3.org/2000/svg"
 width="400.000000pt" height="236.000000pt" viewBox="0 0 400.000000 236.000000"
 preserveAspectRatio="xMidYMid meet">
<metadata>
Created by potrace 1.16, written by Peter Selinger 2001-2019
</metadata>
<g transform="translate(0.000000,236.000000) scale(0.100000,-0.100000)"
fill="#FFFFFF" stroke="none">
<path d="M0 1180 l0 -1180 2000 0 2000 0 0 1180 0 1180 -2000 0 -2000 0 0
-1180z m829 1059 c86 -45 203 -109 261 -142 58 -33 157 -88 220 -122 152 -81
312 -170 382 -211 31 -19 63 -34 71 -34 9 0 89 41 179 92 90 50 188 105 219
122 l55 30 170 -91 c289 -156 378 -209 392 -234 10 -19 12 -70 7 -234 l-7
-211 84 -41 c45 -23 121 -64 168 -91 423 -241 615 -342 758 -397 72 -28 133
-81 132 -116 -1 -34 -108 -159 -258 -303 -90 -86 -174 -163 -187 -172 -27 -18
-17 -22 -220 91 -233 129 -418 231 -505 277 -47 25 -101 54 -120 65 -19 11
-76 41 -125 67 -50 27 -94 52 -99 57 -6 5 -17 9 -26 9 -14 0 -184 -101 -388
-230 l-53 -33 -77 40 c-211 109 -489 266 -507 286 -20 21 -20 31 -15 222 4
164 2 205 -10 228 -13 25 -13 31 4 62 11 19 16 38 12 42 -3 4 -33 2 -64 -5
-90 -19 -112 -16 -112 11 0 26 6 22 -160 100 -63 29 -167 83 -230 119 -63 35
-194 107 -290 158 -279 149 -320 175 -320 207 0 9 57 70 127 137 70 66 175
167 233 223 58 57 113 103 124 103 10 0 89 -37 175 -81z m256 -930 c4 -6 5
-12 2 -15 -7 -7 -37 7 -37 17 0 13 27 11 35 -2z"/>
<path d="M594 2135 c-32 -35 -58 -67 -57 -71 1 -4 41 -24 90 -44 48 -21 102
-45 118 -54 17 -9 37 -16 45 -15 8 0 41 24 73 53 l58 53 -126 71 c-69 40 -130
72 -134 72 -4 0 -34 -29 -67 -65z"/>
<path d="M956 1941 l-58 -59 23 -15 c36 -22 160 -92 196 -111 l32 -16 63 56
c35 31 64 59 66 63 2 6 -246 141 -259 141 -3 0 -31 -27 -63 -59z"/>
<path d="M386 1924 c-32 -36 -57 -66 -55 -68 2 -1 57 -31 122 -65 l119 -62 38
35 c21 19 50 42 64 51 14 10 26 22 26 29 0 6 -37 31 -83 55 -45 24 -96 54
-114 67 -17 13 -38 24 -46 24 -7 0 -40 -29 -71 -66z"/>
<path d="M2035 1729 c-308 -179 -445 -262 -445 -270 0 -4 48 -34 108 -65 59
-31 139 -75 177 -96 59 -34 74 -39 96 -30 15 5 100 52 190 104 90 52 222 128
292 168 105 59 126 75 115 85 -18 17 -346 205 -356 204 -4 0 -83 -45 -177
-100z"/>
<path d="M1307 1742 c-66 -66 -68 -58 38 -118 101 -56 101 -56 139 -30 18 12
59 33 90 47 30 13 56 26 56 29 0 8 -238 130 -253 130 -7 0 -39 -26 -70 -58z"/>
<path d="M735 1730 c-33 -32 -58 -61 -55 -63 16 -16 221 -117 237 -117 10 0
45 24 77 53 l59 53 -94 56 c-119 70 -135 78 -151 77 -7 -1 -40 -27 -73 -59z"/>
<path d="M1087 1554 c-32 -31 -56 -61 -54 -67 2 -6 55 -35 118 -64 l114 -52
47 52 c26 29 47 55 48 59 0 8 -191 128 -205 128 -5 0 -36 -26 -68 -56z"/>
<path d="M2570 1452 c-30 -20 -158 -98 -285 -174 -133 -80 -235 -148 -241
-161 -14 -27 -35 -498 -23 -511 18 -19 347 213 477 336 66 63 12 43 -75 -28
-30 -25 -64 -44 -78 -44 -13 0 -65 -20 -116 -45 -51 -25 -98 -45 -105 -45 -26
0 -34 40 -34 162 l0 123 152 85 c225 126 310 170 331 170 16 0 18 -10 17 -112
-1 -62 -1 -120 -1 -128 1 -8 10 0 22 19 16 27 23 61 30 155 12 175 11 236 -3
235 -7 0 -38 -17 -68 -37z"/>
<path d="M1486 1331 c-3 -4 -7 -124 -8 -266 l-3 -257 40 -34 c21 -19 78 -54
125 -76 47 -23 118 -62 158 -86 40 -24 75 -42 77 -40 3 2 7 123 11 269 5 215
4 267 -7 281 -8 9 -79 51 -159 94 -80 42 -162 87 -182 100 -42 27 -45 28 -52
15z m207 -181 c126 -47 146 -78 146 -231 1 -91 -1 -98 -30 -142 -21 -32 -38
-47 -52 -47 -41 0 -166 52 -204 85 l-38 33 -3 107 c-5 127 3 189 25 211 20 20
75 14 156 -16z"/>
<path d="M1607 1036 c-3 -8 4 -31 15 -52 17 -31 19 -44 10 -66 -11 -31 1 -51
39 -63 36 -12 49 11 49 91 0 64 -3 75 -22 88 -28 20 -84 21 -91 2z"/>
<path d="M2424 1117 c-29 -26 -35 -38 -30 -55 5 -16 15 -22 35 -22 36 0 51 19
58 70 7 51 -12 54 -63 7z"/>
<path d="M2731 1004 c-41 -45 -49 -59 -40 -70 6 -8 16 -14 21 -14 5 0 46 -21
91 -47 145 -82 124 -81 189 -16 32 32 58 62 58 68 0 10 -238 135 -258 135 -5
0 -33 -25 -61 -56z"/>
<path d="M2202 1005 c-18 -40 -15 -75 6 -75 39 0 65 39 51 78 -11 30 -43 28
-57 -3z"/>
<path d="M3097 812 c-31 -32 -57 -62 -57 -67 0 -6 28 -23 63 -40 34 -16 84
-42 110 -57 57 -34 68 -34 93 -7 10 12 38 32 61 46 24 14 43 29 43 33 0 6
-201 125 -250 148 -3 1 -31 -24 -63 -56z"/>
<path d="M2526 804 c-37 -30 -66 -59 -64 -64 2 -5 58 -36 126 -70 l123 -61 56
50 c31 28 61 51 65 51 4 0 8 6 8 13 0 11 -217 137 -237 137 -5 0 -40 -25 -77
-56z"/>
<path d="M2886 614 c-36 -32 -66 -61 -66 -66 0 -4 59 -37 131 -74 l132 -66 53
53 c30 29 54 58 54 64 -1 8 -197 130 -230 143 -4 1 -37 -23 -74 -54z"/>
<path d="M3480 662 c0 -4 -16 -23 -35 -42 -67 -66 -68 -64 52 -123 59 -30 118
-60 130 -68 21 -13 26 -10 83 46 33 33 59 63 57 68 -2 8 -262 127 -278 127 -5
0 -9 -4 -9 -8z"/>
<path d="M3242 412 c-51 -46 -61 -60 -50 -69 13 -11 30 -21 161 -92 l77 -43
38 33 c49 42 82 78 82 88 0 5 -26 22 -58 39 -32 17 -84 47 -117 66 -32 20 -61
36 -64 36 -3 -1 -35 -27 -69 -58z"/>
</g>
</svg>
