<?xml version="1.0" standalone="no"?>
<!DOCTYPE svg PUBLIC "-//W3C//DTD SVG 20010904//EN"
 "http://www.w3.org/TR/2001/REC-SVG-20010904/DTD/svg10.dtd">
<svg version="1.0" xmlns="http://www.w3.org/2000/svg"
 width="276.000000pt" height="328.000000pt" viewBox="0 0 276.000000 328.000000"
 preserveAspectRatio="xMidYMid meet">
<metadata>
Created by potrace 1.16, written by Peter Selinger 2001-2019
</metadata>
<g transform="translate(0.000000,328.000000) scale(0.100000,-0.100000)"
fill="#000000" stroke="none">
<path d="M0 1640 l0 -1640 1380 0 1380 0 0 1640 0 1640 -1380 0 -1380 0 0
-1640z m2404 1510 c155 -65 248 -188 280 -373 21 -117 15 -129 -61 -125 l-57
3 -17 82 c-10 45 -27 102 -37 126 -44 99 -132 162 -262 188 -36 7 -71 17 -77
22 -14 10 -17 74 -6 103 11 28 140 14 237 -26z m-1096 -401 c218 -217 404
-400 413 -407 14 -10 37 9 168 140 l152 153 -7 52 c-5 46 -3 58 16 87 52 75
128 101 202 68 65 -28 101 -80 106 -150 3 -47 0 -63 -20 -92 -32 -48 -100 -81
-161 -78 l-48 2 -145 -145 c-79 -79 -143 -147 -142 -150 2 -4 185 -192 407
-418 222 -226 417 -429 432 -450 l29 -38 -24 -26 c-57 -62 -220 -136 -402
-184 -102 -26 -122 -28 -304 -28 -177 1 -205 3 -300 27 -58 15 -129 36 -159
47 l-53 21 7 -30 c4 -17 59 -187 123 -378 l117 -347 173 -3 173 -2 -3 -68 -3
-67 -946 -3 -947 -2 -6 22 c-3 13 -6 37 -6 55 0 64 -4 63 175 63 118 0 165 3
173 13 6 6 51 115 102 241 104 260 249 604 318 750 53 113 58 89 -50 232 -74
98 -153 241 -191 351 -30 84 -63 245 -72 358 -8 95 9 290 35 391 35 137 130
339 190 402 21 23 22 23 51 4 16 -10 208 -196 427 -413z"/>
<path d="M860 2955 c-128 -337 -143 -599 -50 -877 138 -411 475 -723 896 -830
77 -20 115 -23 274 -23 158 0 197 3 265 22 118 31 255 83 255 96 0 6 -366 378
-814 826 l-815 815 -11 -29z"/>
<path d="M1050 1395 c-5 -14 -10 -29 -10 -32 0 -3 -35 -90 -79 -192 -43 -102
-97 -233 -121 -291 -87 -213 -114 -277 -150 -362 -21 -48 -35 -89 -32 -92 10
-11 901 -7 907 4 3 5 -21 80 -53 167 -33 87 -96 271 -140 408 l-82 250 -102
79 c-56 43 -108 80 -115 83 -7 3 -17 -6 -23 -22z"/>
</g>
</svg>
