<?xml version="1.0" standalone="no"?>
<!DOCTYPE svg PUBLIC "-//W3C//DTD SVG 20010904//EN"
 "http://www.w3.org/TR/2001/REC-SVG-20010904/DTD/svg10.dtd">
<svg version="1.0" xmlns="http://www.w3.org/2000/svg"
 width="1272.000000pt" height="884.000000pt" viewBox="0 0 1272.000000 884.000000"
 preserveAspectRatio="xMidYMid meet">
<metadata>
Created by potrace 1.16, written by Peter Selinger 2001-2019
</metadata>
<g transform="translate(0.000000,884.000000) scale(0.100000,-0.100000)"
fill="#000000" stroke="none">
<path d="M0 4420 l0 -4420 6360 0 6360 0 0 4420 0 4420 -6360 0 -6360 0 0
-4420z m10950 4199 c30 -23 114 -90 185 -149 72 -58 288 -233 480 -388 193
-155 400 -323 460 -373 61 -50 174 -142 252 -205 165 -134 201 -171 181 -189
-18 -18 -520 -339 -851 -545 l-277 -172 -48 44 c-26 24 -116 97 -201 163 -85
66 -202 157 -260 203 -256 201 -295 229 -305 214 -10 -17 21 -58 90 -116 38
-34 202 -168 363 -299 256 -209 291 -241 279 -255 -24 -29 -1075 -705 -1128
-725 -25 -9 -34 -4 -121 73 -99 88 -448 370 -536 433 -29 21 -73 56 -100 77
-26 22 -55 40 -64 40 -19 0 -29 -18 -21 -38 5 -14 199 -176 427 -357 231 -183
278 -221 304 -249 36 -38 68 -13 -434 -338 -540 -351 -664 -428 -685 -428 -8
0 -60 37 -115 81 -55 45 -116 92 -136 105 l-35 24 -382 -55 c-211 -30 -387
-55 -393 -55 -28 0 8 -31 116 -100 135 -86 140 -93 131 -201 -3 -36 -3 -68 0
-71 3 -3 31 9 61 28 31 19 65 34 74 34 9 0 57 -28 105 -63 49 -35 152 -108
229 -162 77 -54 155 -112 173 -128 l32 -31 0 -762 0 -763 -32 -25 c-18 -13
-184 -121 -368 -239 -184 -119 -438 -282 -563 -364 -333 -216 -408 -263 -423
-263 -13 0 -160 98 -404 269 l-125 88 -3 84 c-3 111 -5 116 -40 94 -15 -10
-38 -28 -53 -41 -34 -33 -54 -30 -151 16 -81 39 -87 40 -133 30 -95 -21 -455
20 -621 71 -191 59 -324 169 -324 268 0 43 26 161 54 244 19 56 22 75 13 86
-12 15 -228 158 -252 167 -8 3 -26 -18 -47 -58 -83 -152 -283 -507 -310 -551
-30 -47 -30 -48 -12 -68 11 -12 60 -54 109 -94 50 -40 110 -90 134 -112 44
-39 44 -40 25 -59 -11 -11 -132 -91 -269 -178 -138 -88 -306 -196 -375 -241
-226 -147 -423 -268 -461 -283 -45 -17 -28 -28 -220 139 -255 220 -585 479
-613 479 -10 0 -16 -8 -16 -24 0 -24 36 -58 190 -181 41 -33 140 -114 220
-180 80 -67 179 -148 220 -182 41 -33 84 -70 94 -82 19 -21 19 -21 0 -42 -25
-28 -315 -220 -709 -469 -115 -73 -226 -142 -245 -155 -153 -100 -152 -99
-185 -81 -16 9 -109 82 -205 162 -96 79 -226 184 -289 232 -62 48 -142 111
-178 140 -72 58 -88 62 -99 30 -5 -17 1 -28 32 -52 21 -17 75 -61 119 -99 44
-37 159 -131 255 -209 201 -162 290 -245 290 -270 0 -11 -37 -42 -102 -86
-181 -120 -896 -576 -959 -611 l-61 -33 -32 23 c-17 12 -121 98 -231 189 -110
92 -306 251 -435 355 -129 104 -273 220 -320 260 -47 39 -175 144 -285 232
-110 89 -225 185 -255 213 l-55 51 27 22 c15 12 137 92 270 177 134 85 313
200 398 255 85 56 219 143 298 194 128 84 144 92 161 80 18 -13 126 -101 584
-474 98 -80 187 -145 198 -145 33 0 21 33 -28 81 -48 46 -376 320 -570 477
-57 46 -107 91 -112 101 -13 24 8 43 124 113 153 93 330 205 565 358 124 80
274 177 333 214 l108 67 43 -33 c24 -18 191 -151 371 -295 325 -261 375 -293
375 -244 0 21 -49 63 -486 416 -121 98 -214 184 -214 199 0 6 107 81 238 166
130 85 368 241 529 347 288 189 342 223 362 223 6 0 57 -37 113 -83 57 -46
124 -99 149 -119 l46 -35 94 23 c52 12 236 54 409 94 173 40 325 76 338 81 23
9 14 17 -129 114 -84 58 -166 117 -181 132 l-28 27 0 762 c0 419 3 769 6 778
3 8 90 69 192 134 310 198 676 429 872 550 102 63 219 136 260 163 41 27 82
49 92 49 10 0 84 -46 165 -102 82 -57 215 -148 296 -203 82 -55 190 -130 240
-166 311 -222 690 -478 707 -478 14 1 114 192 249 477 57 121 65 100 -84 219
-117 94 -150 127 -140 143 7 12 129 93 480 318 116 74 226 145 245 157 287
185 404 256 413 252 7 -3 125 -98 262 -212 244 -202 478 -385 493 -385 4 0 13
4 21 9 13 8 13 12 0 30 -15 21 -164 147 -445 376 -203 165 -244 203 -244 227
0 11 24 35 58 59 75 54 438 291 677 442 105 66 230 146 280 179 49 32 96 58
105 58 8 0 38 -20 65 -43 52 -45 273 -226 525 -428 80 -65 155 -119 165 -121
33 -5 31 37 -2 68 -50 48 -244 208 -423 348 -205 162 -250 201 -250 219 0 13
63 57 325 223 94 59 301 193 460 298 274 179 333 216 345 216 3 0 30 -19 60
-41z"/>
<path d="M10760 8454 c-98 -65 -318 -207 -733 -473 -48 -31 -86 -61 -85 -67 3
-13 340 -293 558 -464 41 -32 131 -104 200 -161 186 -151 443 -356 545 -433
50 -38 102 -80 117 -94 15 -13 33 -22 41 -19 7 3 72 42 143 87 71 46 224 142
339 215 328 206 455 291 455 303 0 5 -24 26 -52 47 -29 22 -93 74 -143 116
-164 138 -1247 1008 -1265 1016 -3 2 -57 -31 -120 -73z"/>
<path d="M9377 7562 c-432 -275 -631 -404 -645 -417 -16 -15 82 -100 503 -438
165 -132 327 -263 359 -291 33 -28 83 -69 111 -91 72 -55 207 -163 341 -272
63 -51 119 -93 126 -93 6 0 28 11 47 24 89 58 305 198 399 256 91 58 442 285
489 317 17 12 15 15 -21 45 -237 197 -351 290 -461 375 -71 56 -220 176 -330
268 -110 91 -281 229 -380 305 -100 77 -192 151 -205 165 -13 14 -31 25 -39
25 -9 0 -141 -80 -294 -178z"/>
<path d="M8310 6874 c-74 -47 -206 -131 -292 -187 -86 -56 -236 -153 -333
-216 -96 -62 -175 -119 -175 -125 0 -6 39 -40 87 -76 49 -36 140 -108 203
-160 117 -98 323 -267 485 -399 50 -41 169 -137 265 -214 96 -77 224 -183 284
-236 60 -53 111 -96 115 -96 3 0 80 49 171 108 304 200 644 419 713 461 37 22
67 44 67 48 0 4 -29 29 -64 55 -35 27 -115 91 -177 144 -63 52 -175 144 -249
204 -141 113 -350 285 -479 394 -138 115 -472 381 -479 381 -4 0 -68 -39 -142
-86z"/>
<path d="M5755 6264 c-77 -52 -214 -140 -305 -196 -159 -98 -645 -407 -742
-471 -27 -18 -48 -37 -48 -42 0 -6 15 -19 33 -30 17 -10 104 -70 192 -133 88
-63 174 -121 192 -130 30 -14 33 -14 61 10 27 22 178 120 497 321 61 38 126
80 145 92 125 82 369 236 445 281 50 30 97 58 105 63 22 13 1 31 -170 147 -80
53 -171 117 -203 141 -31 24 -58 42 -60 42 -1 -1 -65 -44 -142 -95z"/>
<path d="M7681 6008 c-8 -20 -44 -98 -146 -313 -14 -27 -47 -93 -75 -145 -27
-52 -50 -97 -50 -100 0 -8 149 -113 251 -178 l65 -42 200 30 c109 16 273 41
364 54 91 14 181 26 200 28 19 2 35 8 35 14 0 14 -105 105 -340 295 -285 231
-475 379 -486 379 -5 0 -13 -10 -18 -22z"/>
<path d="M6365 5920 c-38 -27 -176 -115 -305 -196 -129 -81 -317 -199 -418
-263 -100 -64 -235 -149 -300 -189 -64 -40 -123 -79 -130 -86 -10 -10 3 -23
70 -68 123 -83 346 -238 685 -476 166 -116 306 -213 311 -214 5 -2 119 70 253
159 262 173 723 464 967 610 12 7 22 17 22 21 -1 4 -26 25 -58 46 -31 22 -136
96 -232 166 -96 69 -274 193 -395 275 -121 82 -257 175 -302 207 -44 32 -85
58 -90 57 -4 -1 -39 -23 -78 -49z"/>
<path d="M4596 5443 c-11 -11 -7 -1299 4 -1328 13 -35 26 -46 210 -169 161
-109 199 -129 218 -117 9 5 12 179 12 655 1 581 -1 650 -15 666 -9 10 -85 64
-168 120 -84 57 -170 117 -192 135 -52 41 -61 46 -69 38z"/>
<path d="M7543 5090 c-211 -127 -1100 -689 -1141 -721 l-23 -18 78 -53 c178
-120 239 -158 259 -158 12 0 57 23 100 52 137 89 319 205 639 406 411 259 457
287 478 295 30 11 19 33 -35 69 -29 19 -98 67 -153 107 -54 39 -104 71 -110
71 -5 0 -47 -23 -92 -50z"/>
<path d="M5150 4466 c0 -515 2 -606 14 -606 8 0 110 23 227 50 117 28 221 50
232 50 17 0 19 -5 15 -42 -5 -40 -55 -138 -172 -335 -20 -34 -36 -64 -36 -67
0 -3 96 -70 213 -149 116 -79 295 -201 396 -271 100 -70 184 -126 186 -124 1
2 0 305 -3 673 l-5 670 -31 28 c-37 33 -558 403 -741 527 -111 74 -180 121
-276 189 -19 13 -19 6 -19 -593z"/>
<path d="M7880 4733 c-58 -36 -195 -125 -305 -196 -110 -72 -290 -187 -400
-256 -324 -204 -394 -253 -401 -280 -4 -13 -7 -319 -8 -680 l-1 -656 27 2 c15
1 40 8 55 15 l28 13 3 627 2 628 218 143 c119 78 277 181 350 227 73 47 228
147 345 223 l212 138 7 47 c9 53 5 72 -14 71 -7 -1 -60 -30 -118 -66z"/>
<path d="M8231 4679 c-13 -11 -121 -80 -240 -155 -402 -252 -952 -616 -948
-628 2 -5 12 -14 22 -20 11 -6 93 -60 182 -119 121 -81 167 -107 182 -102 11
3 87 49 168 102 562 364 841 544 928 596 55 33 102 61 105 64 7 6 -30 36 -140
113 -51 36 -123 88 -159 117 -36 29 -68 53 -71 53 -3 -1 -16 -10 -29 -21z"/>
<path d="M8603 4262 c-39 -26 -98 -63 -130 -83 -32 -20 -125 -81 -208 -135
-82 -54 -283 -182 -445 -285 -162 -103 -306 -196 -320 -207 l-25 -20 -3 -614
c-3 -597 0 -698 18 -698 5 0 69 39 142 87 141 91 446 284 818 516 124 77 228
145 232 151 10 14 10 1336 1 1335 -5 0 -40 -21 -80 -47z m-100 -302 c15 -12
29 -35 32 -53 3 -18 2 -219 -2 -447 l-8 -415 -95 -63 c-198 -131 -552 -347
-652 -398 -62 -31 -80 -30 -106 6 -22 30 -22 32 -22 431 1 221 4 415 7 431 6
32 3 30 443 311 237 152 346 216 366 217 6 0 23 -9 37 -20z"/>
<path d="M8265 3726 c-71 -46 -203 -129 -292 -185 -89 -56 -171 -110 -182
-119 -19 -16 -20 -32 -23 -354 -2 -185 0 -339 3 -343 8 -7 521 298 594 353
l50 38 2 347 c2 266 -1 347 -10 347 -7 0 -70 -38 -142 -84z"/>
<path d="M6329 4241 c-2 -6 -2 -311 1 -678 l5 -668 155 -107 c85 -58 158 -107
162 -107 4 -1 5 299 2 667 l-6 667 -37 35 c-21 19 -84 67 -140 105 -56 39
-110 76 -120 83 -13 9 -20 9 -22 3z"/>
<path d="M5423 3793 c-7 -3 -69 -17 -139 -33 -69 -15 -130 -32 -136 -38 -6 -6
9 -21 41 -41 28 -18 67 -46 87 -62 20 -16 40 -29 44 -29 5 0 29 35 54 78 25
42 53 87 62 99 15 21 9 34 -13 26z"/>
<path d="M6992 3123 l3 -678 174 -117 c96 -65 178 -118 183 -118 4 0 8 298 8
663 l0 664 -22 20 c-13 11 -89 65 -170 121 -81 56 -150 107 -153 112 -3 6 -10
10 -16 10 -6 0 -8 -255 -7 -677z"/>
<path d="M3560 3626 c-52 -35 -264 -175 -470 -312 -206 -136 -377 -249 -380
-252 -3 -2 11 -17 30 -32 120 -97 248 -201 381 -310 84 -69 205 -168 269 -220
65 -52 199 -162 299 -245 101 -82 208 -170 240 -195 31 -25 94 -75 139 -112
45 -38 87 -68 94 -68 7 0 104 60 215 133 367 239 586 381 660 427 40 25 73 50
73 55 0 6 -15 20 -34 32 -19 12 -195 156 -392 320 -198 165 -485 400 -639 523
-154 124 -304 246 -333 272 -29 27 -53 48 -55 48 -1 -1 -45 -29 -97 -64z"/>
<path d="M4850 3659 c-106 -29 -497 -123 -645 -155 -112 -23 -115 -26 -69 -60
22 -16 93 -74 159 -130 232 -195 469 -389 559 -456 l49 -38 42 78 c23 43 87
157 142 253 128 224 189 337 183 342 -30 25 -296 197 -304 196 -6 0 -58 -14
-116 -30z"/>
<path d="M5707 3058 c-25 -152 -24 -170 18 -207 86 -75 224 -119 470 -150 94
-12 185 -23 203 -26 22 -3 32 0 29 8 -2 6 -71 57 -153 114 -304 209 -534 363
-542 363 -4 0 -15 -46 -25 -102z"/>
<path d="M2343 2837 c-51 -34 -128 -84 -170 -111 -43 -27 -130 -83 -193 -125
-63 -41 -200 -128 -305 -193 -104 -65 -191 -122 -193 -127 -1 -5 10 -16 25
-26 15 -10 88 -68 162 -129 74 -61 256 -209 405 -329 149 -120 296 -240 326
-266 81 -70 523 -423 536 -428 11 -4 114 59 374 229 196 128 452 293 518 333
34 21 62 41 62 45 0 9 -316 267 -890 727 -317 255 -517 420 -539 446 -7 10
-16 17 -20 16 -3 0 -48 -29 -98 -62z"/>
<path d="M1184 2091 c-21 -16 -187 -123 -369 -238 -438 -278 -535 -342 -535
-352 0 -5 21 -25 48 -44 26 -19 83 -65 127 -103 89 -77 327 -275 450 -374 44
-35 163 -132 264 -215 101 -82 269 -218 372 -302 l188 -152 28 23 c32 26 279
189 488 321 77 49 190 121 251 161 62 40 126 80 144 89 17 9 30 21 27 28 -2 6
-38 39 -80 72 -42 33 -143 114 -225 180 -81 66 -186 150 -233 186 -46 36 -133
109 -194 161 -60 52 -235 194 -388 317 -152 122 -285 233 -293 247 -9 13 -19
24 -23 24 -4 0 -25 -13 -47 -29z"/>
</g>
</svg>
