<?xml version="1.0" standalone="no"?>
<!DOCTYPE svg PUBLIC "-//W3C//DTD SVG 20010904//EN"
 "http://www.w3.org/TR/2001/REC-SVG-20010904/DTD/svg10.dtd">
<svg version="1.0" xmlns="http://www.w3.org/2000/svg"
 width="476.000000pt" height="428.000000pt" viewBox="0 0 476.000000 428.000000"
 preserveAspectRatio="xMidYMid meet">
<metadata>
Created by potrace 1.16, written by Peter Selinger 2001-2019
</metadata>
<g transform="translate(0.000000,428.000000) scale(0.100000,-0.100000)"
fill="#FFFFFF" stroke="none">
<path d="M0 2140 l0 -2140 2380 0 2380 0 0 2140 0 2140 -993 0 -993 0 -39 -80
c-22 -44 -44 -79 -50 -77 -5 2 -28 38 -50 80 l-40 77 -1297 0 -1298 0 0 -2140z
m2291 1640 c25 -14 24 -31 -10 -163 -44 -166 -54 -251 -49 -389 5 -108 10
-135 41 -220 102 -283 268 -442 344 -329 40 60 51 121 38 221 -6 48 -4 58 15
78 14 15 31 22 48 20 22 -2 45 -30 134 -163 122 -182 212 -350 257 -478 42
-120 41 -130 -14 -156 -66 -31 -72 -28 -90 37 -40 143 -115 301 -195 411 -33
45 -49 44 -50 -5 0 -37 -57 -104 -106 -125 -104 -44 -197 -15 -300 93 -216
225 -306 560 -238 884 8 38 14 70 14 72 0 2 -35 -28 -77 -68 -150 -137 -252
-290 -309 -459 -42 -124 -54 -217 -54 -404 0 -283 -30 -363 -153 -416 -61 -26
-79 -26 -95 -1 -8 13 -23 20 -42 20 -49 0 -107 61 -127 132 -9 32 -21 57 -27
55 -15 -5 -90 -174 -120 -272 -85 -270 -35 -577 129 -791 52 -68 153 -164 222
-213 39 -27 40 -23 17 76 -12 50 -15 101 -12 193 4 107 9 137 35 213 39 110
83 184 133 219 53 39 65 36 86 -19 36 -100 67 -169 81 -185 18 -20 51 -29 59
-17 3 6 -2 63 -11 127 -18 125 -16 176 12 305 16 71 22 83 83 152 121 138 229
217 268 196 34 -18 46 -55 33 -105 -34 -135 8 -261 147 -451 104 -141 142
-212 149 -278 5 -50 3 -54 -34 -96 -22 -25 -44 -41 -50 -38 -6 4 -16 30 -22
57 -16 72 -41 119 -143 258 -112 153 -151 227 -173 328 -10 43 -19 85 -21 92
-6 21 -22 13 -40 -20 -80 -150 -89 -197 -73 -377 14 -156 7 -205 -33 -243 -83
-77 -203 -49 -274 64 -14 22 -30 38 -36 36 -31 -11 -57 -246 -39 -343 15 -80
68 -188 124 -253 49 -56 87 -107 87 -116 0 -13 -71 -23 -119 -15 -73 11 -113
25 -206 71 -105 52 -185 110 -267 194 -96 98 -145 166 -195 271 -119 249 -129
515 -31 793 68 193 219 451 275 471 15 6 29 3 44 -9 17 -15 23 -34 30 -107 16
-161 46 -231 106 -249 15 -5 30 1 50 18 l28 24 6 219 c10 316 36 448 124 623
60 121 123 208 223 312 92 94 217 189 305 229 49 22 61 23 88 9z m1604 -1580
c237 -75 405 -250 465 -486 24 -94 25 -132 2 -160 -34 -43 -52 -38 -131 36
-40 38 -99 82 -130 97 -50 25 -67 28 -161 28 -92 0 -112 -3 -160 -26 -68 -32
-139 -104 -176 -178 -26 -51 -29 -66 -29 -162 0 -104 1 -106 42 -191 120 -241
382 -338 696 -258 51 13 92 19 97 14 5 -5 13 -29 19 -52 12 -58 -4 -73 -100
-98 -57 -15 -109 -19 -229 -19 -147 1 -159 2 -241 31 -209 74 -350 225 -409
435 -36 131 -22 246 47 383 67 132 194 228 341 257 79 15 223 7 280 -16 24
-10 45 -15 48 -12 11 11 -58 98 -109 138 -124 98 -246 135 -425 126 -181 -8
-319 -60 -463 -175 -109 -86 -236 -252 -402 -524 -149 -244 -235 -351 -376
-469 -143 -120 -346 -214 -541 -250 -95 -18 -317 -15 -430 5 -174 31 -387 119
-454 186 -19 19 -19 21 -3 55 9 20 24 38 32 42 9 3 61 -16 116 -42 200 -93
331 -125 524 -125 144 0 251 18 382 65 142 51 222 104 349 230 104 104 203
237 324 440 84 140 199 302 262 370 153 164 340 273 548 320 97 22 304 14 395
-15z m-737 -1245 c83 -20 99 -29 241 -134 185 -139 259 -169 495 -205 l141
-21 3 -36 c2 -19 -2 -48 -8 -63 l-10 -28 -73 7 c-274 25 -371 63 -654 257
-125 85 -195 107 -293 89 -74 -14 -194 -71 -320 -153 -177 -115 -373 -197
-555 -231 -135 -26 -291 -40 -313 -28 -28 15 -47 67 -35 94 10 21 25 25 171
46 307 43 412 82 756 285 218 128 315 154 454 121z m-17 -365 c35 -11 107 -47
159 -80 117 -74 177 -98 304 -119 91 -15 100 -19 106 -41 11 -40 -7 -89 -34
-96 -38 -9 -193 24 -290 63 -50 20 -130 60 -179 91 -80 49 -95 55 -158 60 -81
6 -134 -11 -220 -69 -123 -83 -273 -140 -372 -143 l-52 -1 -9 47 c-12 63 -3
72 92 93 103 23 161 47 242 99 90 58 104 66 180 93 80 28 148 29 231 3z"/>
</g>
</svg>
