<?xml version="1.0" standalone="no"?>
<!DOCTYPE svg PUBLIC "-//W3C//DTD SVG 20010904//EN"
 "http://www.w3.org/TR/2001/REC-SVG-20010904/DTD/svg10.dtd">
<svg version="1.0" xmlns="http://www.w3.org/2000/svg"
 width="416.000000pt" height="428.000000pt" viewBox="0 0 416.000000 428.000000"
 preserveAspectRatio="xMidYMid meet">
<metadata>
Created by potrace 1.16, written by Peter Selinger 2001-2019
</metadata>
<g transform="translate(0.000000,428.000000) scale(0.100000,-0.100000)"
fill="#FFFFFF" stroke="none">
<path d="M0 2140 l0 -2140 2080 0 2080 0 0 2140 0 2140 -1020 0 c-864 0 -1020
-2 -1020 -14 0 -8 -9 -24 -19 -37 -19 -23 -19 -24 -40 -5 -12 11 -21 27 -21
38 0 17 -35 18 -1020 18 l-1020 0 0 -2140z m710 1708 c12 -30 44 -152 65 -251
14 -68 20 -79 43 -88 23 -9 336 -64 475 -83 56 -8 54 -16 28 119 -10 55 -25
144 -32 198 -15 113 -13 117 57 117 l42 0 16 -92 c9 -51 25 -151 35 -221 10
-71 23 -133 27 -137 10 -9 390 -40 492 -40 l62 0 0 239 0 239 24 6 c13 3 38 3
55 0 l31 -6 2 -237 3 -236 150 2 c134 2 405 19 411 25 1 2 18 98 38 213 41
234 48 259 74 252 9 -3 29 -8 45 -11 35 -8 35 -9 -4 -242 -16 -102 -28 -188
-26 -191 12 -12 517 74 533 91 7 6 30 85 53 175 22 91 46 168 53 173 17 12 79
2 90 -14 4 -7 5 -26 2 -43 -7 -38 -42 -189 -54 -234 l-9 -34 42 6 c23 4 91 20
150 37 142 41 151 39 155 -26 3 -46 1 -52 -20 -58 -13 -4 -95 -24 -182 -46
-87 -21 -162 -43 -166 -47 -12 -13 -59 -279 -60 -335 0 -25 23 -23 240 16 165
29 186 31 192 17 10 -24 9 -89 -1 -95 -13 -9 -188 -44 -325 -66 -65 -10 -123
-23 -127 -27 -9 -9 -29 -192 -29 -269 0 -54 0 -54 31 -54 27 0 322 31 417 44
l32 5 0 -60 c0 -39 -4 -61 -12 -64 -7 -2 -116 -16 -242 -29 -126 -14 -233 -29
-238 -34 -5 -5 -7 -73 -6 -153 l3 -144 248 -3 247 -2 0 -54 0 -54 -41 -7 c-22
-4 -133 -5 -247 -3 l-207 3 -3 -110 c-4 -125 4 -195 21 -199 7 -2 111 -14 232
-26 121 -12 226 -27 233 -32 6 -6 12 -32 12 -59 l0 -49 -37 0 c-21 0 -127 9
-236 21 -108 12 -200 19 -204 15 -8 -8 15 -270 27 -301 7 -19 28 -25 192 -54
100 -18 200 -37 221 -42 l37 -10 0 -54 c0 -50 -2 -55 -22 -55 -23 0 -360 57
-390 66 -14 4 -18 -1 -18 -24 0 -39 49 -301 60 -322 6 -12 52 -28 142 -50 73
-18 154 -39 181 -47 l47 -14 0 -51 0 -51 -57 7 c-31 4 -107 18 -170 33 -63 14
-116 23 -119 21 -2 -3 12 -69 32 -148 23 -91 32 -146 26 -152 -5 -5 -28 -12
-50 -15 -52 -7 -52 -6 -101 198 -36 149 -37 153 -66 161 -43 12 -507 79 -512
74 -2 -2 12 -97 31 -212 20 -114 34 -210 31 -212 -7 -8 -115 -16 -115 -9 0 27
-72 443 -78 448 -8 8 -222 26 -410 36 -96 4 -136 3 -141 -5 -4 -7 -8 -114 -10
-239 -1 -125 -5 -231 -7 -235 -3 -5 -27 -8 -55 -8 l-49 0 0 245 c0 227 -1 245
-17 245 -65 0 -464 -21 -490 -25 -18 -3 -37 -14 -42 -23 -5 -9 -26 -113 -47
-229 l-39 -213 -48 0 c-33 0 -49 5 -53 15 -4 8 9 106 29 218 19 111 33 204 32
205 -8 9 -493 -71 -530 -87 -20 -8 -40 -74 -87 -284 -8 -36 -20 -63 -31 -68
-20 -11 -97 8 -97 24 0 6 16 73 37 149 20 76 33 141 30 145 -4 3 -75 -11 -158
-31 -83 -21 -157 -35 -165 -32 -8 3 -14 15 -14 26 0 12 -5 31 -11 42 -9 17 -8
24 3 32 8 6 95 31 192 55 118 29 180 49 185 60 9 17 61 303 61 335 0 15 -5 17
-27 11 -46 -11 -356 -65 -379 -65 -18 0 -22 7 -27 48 -4 33 -2 50 8 57 7 6
107 28 222 49 114 21 211 41 216 45 9 9 42 309 34 317 -3 3 -107 -4 -232 -17
-153 -15 -230 -18 -236 -12 -6 6 -13 29 -16 51 -5 36 -3 43 18 52 13 6 125 21
249 33 l225 23 9 142 c6 109 5 146 -4 157 -10 13 -52 15 -256 15 l-244 0 0 55
0 55 249 0 c138 0 252 3 254 8 6 11 -7 290 -14 297 -4 3 -105 17 -225 30 -120
14 -225 27 -235 30 -24 8 -30 29 -23 76 8 47 1 47 234 19 91 -11 185 -20 209
-20 l43 0 -6 78 c-11 127 -27 236 -35 245 -5 5 -82 21 -172 37 -307 53 -294
48 -280 125 8 47 -16 47 239 4 106 -17 194 -30 196 -28 7 7 -51 314 -63 337
-6 12 -22 24 -34 27 -12 3 -93 23 -180 44 -86 21 -160 41 -163 44 -3 3 -2 29
3 59 7 44 12 53 28 52 11 -1 89 -19 173 -41 83 -22 152 -39 152 -38 0 2 -16
68 -35 148 -19 80 -35 150 -35 155 0 12 45 30 78 31 14 1 26 -7 32 -21z"/>
<path d="M830 3377 c0 -33 44 -327 50 -338 8 -13 389 -67 478 -68 l42 -1 -5
38 c-3 20 -10 80 -15 133 -18 159 -13 152 -106 166 -251 40 -345 56 -391 68
-39 10 -53 10 -53 2z"/>
<path d="M3299 3375 c-3 -2 -112 -20 -243 -39 -131 -19 -242 -38 -247 -43 -9
-9 -35 -181 -41 -278 l-3 -50 45 3 c74 5 435 51 452 57 11 4 22 48 42 168 14
89 26 168 26 175 0 12 -22 17 -31 7z"/>
<path d="M1485 3249 c3 -19 9 -88 16 -154 6 -66 16 -125 22 -131 12 -12 290
-34 426 -34 l71 0 0 158 0 158 -207 13 c-115 7 -236 15 -270 18 l-62 6 4 -34z"/>
<path d="M2589 3276 c-2 -2 -103 -9 -224 -16 -138 -8 -223 -17 -228 -24 -9
-13 -4 -292 6 -302 7 -7 487 12 494 20 4 3 43 288 43 312 0 10 -13 14 -43 14
-24 0 -46 -2 -48 -4z"/>
<path d="M895 2899 c-7 -11 24 -312 33 -320 7 -7 398 -39 466 -39 l39 0 -7
137 c-4 75 -11 144 -16 153 -7 13 -50 21 -222 39 -117 13 -230 27 -251 31 -20
4 -40 4 -42 -1z"/>
<path d="M3239 2896 c-2 -2 -112 -16 -244 -31 -132 -15 -241 -28 -243 -30 -2
-2 -6 -69 -9 -150 l-6 -148 124 7 c145 8 349 25 365 30 9 3 27 149 38 300 1
18 -15 32 -25 22z"/>
<path d="M1530 2788 c1 -71 19 -241 27 -249 5 -3 110 -9 236 -13 l228 -7 -3
143 -3 143 -145 6 c-80 4 -189 10 -243 14 l-97 7 0 -44z"/>
<path d="M2372 2817 c-273 -12 -245 8 -240 -174 l3 -118 35 -3 c19 -2 126 -1
237 3 175 6 203 9 207 24 3 9 8 76 12 149 5 109 4 132 -7 130 -8 -1 -119 -6
-247 -11z"/>
<path d="M938 2443 c-3 -4 -2 -71 1 -148 l6 -140 248 -3 247 -2 0 130 c0 126
-1 130 -22 135 -13 2 -108 9 -213 15 -104 6 -206 13 -226 16 -21 3 -39 2 -41
-3z"/>
<path d="M3125 2440 c-38 -4 -141 -11 -228 -15 -139 -7 -159 -10 -168 -26 -5
-11 -8 -70 -7 -131 l3 -113 248 -3 247 -2 1 102 c1 57 2 123 3 148 1 51 3 51
-99 40z"/>
<path d="M1555 2402 c-7 -7 -6 -170 1 -214 l7 -38 228 0 229 0 0 120 c0 88 -3
122 -12 125 -19 6 -447 12 -453 7z"/>
<path d="M2325 2401 l-190 -6 0 -120 0 -120 232 -3 231 -2 7 102 c4 57 5 114
4 128 -5 30 3 29 -284 21z"/>
<path d="M947 2034 c-4 -4 -7 -72 -7 -151 l0 -143 30 0 c47 0 444 31 458 35
10 4 12 35 10 132 l-3 128 -241 3 c-132 1 -243 -1 -247 -4z"/>
<path d="M1563 2024 c-3 -10 -7 -70 -7 -133 l-1 -116 180 3 c99 1 204 5 233 9
l52 5 0 119 0 119 -202 0 c-112 0 -213 3 -225 6 -16 5 -25 1 -30 -12z"/>
<path d="M2147 2028 c-8 -5 -11 -46 -9 -124 1 -65 3 -118 4 -120 2 -1 107 -3
233 -5 l230 -4 3 123 c2 93 -1 123 -10 127 -22 7 -439 10 -451 3z"/>
<path d="M2723 2023 c-6 -16 0 -240 7 -246 8 -7 483 -37 493 -30 7 4 1 272 -7
280 0 0 -111 3 -245 5 -183 2 -245 0 -248 -9z"/>
<path d="M2133 1642 c-6 -24 2 -251 9 -257 4 -3 482 -24 486 -20 7 6 -13 268
-22 279 -9 11 -60 15 -239 18 l-228 4 -6 -24z"/>
<path d="M1579 1653 l-36 -4 -7 -91 c-3 -50 -6 -116 -6 -146 l0 -54 118 6 c64
3 174 9 244 12 l127 6 6 72 c4 39 5 100 3 136 l-3 65 -205 1 c-113 0 -221 -1
-241 -3z"/>
<path d="M1265 1639 c-181 -12 -328 -28 -337 -37 -9 -9 -37 -302 -29 -307 9
-5 505 56 513 63 4 4 8 70 10 147 3 118 1 140 -12 141 -8 1 -73 -2 -145 -7z"/>
<path d="M2734 1573 c15 -183 18 -213 25 -217 9 -6 502 -59 506 -54 6 6 -26
302 -34 310 -6 6 -391 38 -465 38 l-38 0 6 -77z"/>
<path d="M1722 1250 c-105 -4 -194 -9 -196 -11 -6 -5 -24 -145 -32 -248 l-7
-83 49 6 c27 3 141 11 254 16 113 6 211 13 218 15 10 4 12 40 10 157 l-3 153
-50 1 c-27 1 -137 -2 -243 -6z"/>
<path d="M2142 1104 l3 -159 130 -7 c72 -4 190 -12 263 -18 74 -6 135 -10 137
-8 4 4 -19 218 -30 289 l-6 37 -112 6 c-62 3 -174 9 -250 12 l-138 6 3 -158z"/>
<path d="M1131 1196 l-245 -31 -8 -30 c-11 -44 -50 -316 -45 -321 2 -2 82 9
178 25 96 16 211 35 256 41 45 7 87 17 92 24 8 9 41 260 41 309 0 10 -6 16
-12 16 -7 -1 -123 -16 -257 -33z"/>
<path d="M2766 1221 c-4 -6 -5 -20 -2 -33 3 -13 10 -78 17 -146 7 -67 17 -128
23 -136 12 -14 537 -98 536 -85 -2 26 -59 341 -62 345 -6 5 -197 29 -358 44
-63 6 -122 13 -132 16 -9 3 -19 0 -22 -5z"/>
</g>
</svg>
