<?xml version="1.0" standalone="no"?>
<!DOCTYPE svg PUBLIC "-//W3C//DTD SVG 20010904//EN"
 "http://www.w3.org/TR/2001/REC-SVG-20010904/DTD/svg10.dtd">
<svg version="1.0" xmlns="http://www.w3.org/2000/svg"
 width="1036.000000pt" height="872.000000pt" viewBox="0 0 1036.000000 872.000000"
 preserveAspectRatio="xMidYMid meet">
<metadata>
Created by potrace 1.16, written by Peter Selinger 2001-2019
</metadata>
<g transform="translate(0.000000,872.000000) scale(0.100000,-0.100000)"
fill="#FFFFFF" stroke="none">
<path d="M0 4360 l0 -4360 5180 0 5180 0 0 4360 0 4360 -1100 0 -1100 0 16
-37 c9 -21 29 -67 44 -103 15 -36 62 -144 105 -240 42 -96 105 -240 140 -320
34 -80 116 -264 180 -410 65 -146 159 -364 211 -485 51 -121 120 -281 154
-355 121 -265 300 -689 322 -765 18 -63 27 -79 48 -87 115 -44 199 -113 236
-196 28 -63 23 -80 -36 -117 -21 -13 -52 -44 -68 -67 -41 -59 -64 -78 -162
-134 -99 -56 -177 -114 -239 -177 l-44 -46 31 -48 c16 -26 33 -64 37 -83 9
-43 19 -50 72 -50 54 0 88 -13 118 -46 81 -87 -56 -235 -292 -315 -49 -16
-106 -34 -129 -39 -53 -12 -114 -41 -114 -55 0 -6 4 -15 10 -21 5 -5 10 -21
10 -34 -1 -14 -1 -54 0 -89 0 -78 -26 -135 -87 -192 -24 -22 -43 -46 -43 -54
0 -8 102 -123 228 -255 250 -265 292 -324 294 -409 2 -68 -30 -114 -129 -188
-55 -41 -84 -71 -98 -100 -11 -23 -23 -44 -26 -47 -15 -16 -153 -46 -183 -41
-25 5 -36 1 -56 -20 -14 -15 -47 -38 -75 -52 -27 -13 -66 -42 -85 -64 -29 -32
-45 -41 -90 -49 -30 -5 -89 -23 -130 -39 -41 -16 -118 -39 -170 -50 -80 -17
-107 -18 -173 -10 -75 9 -79 9 -107 -14 -15 -13 -50 -30 -76 -36 -68 -17 -75
-25 -69 -80 13 -115 13 -129 -6 -170 -35 -78 -157 -108 -221 -53 -18 15 -50
40 -71 56 -21 15 -68 55 -105 87 -36 32 -73 59 -82 59 -8 0 -26 -12 -39 -25
-30 -32 -59 -31 -133 2 -49 22 -64 24 -91 16 -18 -5 -41 -7 -52 -3 -11 4 -35
3 -55 -3 -81 -21 -110 -20 -136 4 -14 13 -33 42 -43 65 -10 23 -25 45 -32 50
-8 5 -62 7 -121 5 -64 -2 -121 2 -143 9 -19 6 -41 10 -48 7 -17 -6 175 -195
251 -246 89 -60 104 -88 97 -176 -10 -123 -8 -151 14 -221 12 -38 44 -105 71
-149 64 -106 76 -149 61 -210 -23 -91 -23 -91 239 -104 96 -5 183 -12 193 -16
24 -10 31 -46 23 -127 -11 -123 -33 -149 -156 -187 -33 -10 -74 -31 -92 -46
-43 -36 -105 -64 -143 -65 -68 -1 -71 -4 -84 -102 -6 -50 -18 -102 -25 -117
-8 -15 -53 -63 -101 -109 -92 -87 -118 -98 -150 -62 -10 11 -22 20 -26 20 -5
0 -36 -26 -70 -57 -81 -76 -122 -103 -156 -103 -15 -1 -73 -25 -128 -54 -93
-50 -100 -56 -103 -87 -5 -43 -33 -78 -90 -109 -38 -21 -50 -34 -67 -78 -31
-76 -64 -106 -119 -106 -75 0 -94 38 -60 119 19 45 12 79 -20 100 -21 14 -28
14 -71 -2 -28 -10 -73 -40 -104 -69 -83 -76 -104 -84 -216 -84 -53 0 -106 5
-118 11 -38 20 -148 109 -273 221 l-121 108 -48 138 c-26 75 -73 202 -105 282
-65 165 -101 267 -126 358 -16 60 -21 67 -88 120 -39 31 -101 84 -137 118 -66
60 -68 62 -132 66 -161 10 -141 116 51 261 105 80 202 180 202 210 0 23 -45
90 -131 192 -68 82 -99 132 -99 160 0 8 -18 52 -41 96 -31 62 -41 94 -43 139
-1 33 -9 69 -19 84 -21 32 -21 83 -1 244 11 84 14 161 10 229 -7 124 3 154 74
213 29 24 53 53 56 68 18 87 48 164 84 217 23 34 40 72 40 88 0 24 -7 31 -47
49 -70 31 -143 29 -228 -6 -57 -23 -87 -29 -160 -32 -49 -1 -119 -7 -155 -14
-125 -22 -154 -23 -299 -11 -80 7 -155 14 -167 16 -14 3 -38 -8 -68 -31 -43
-34 -49 -36 -93 -29 -27 4 -74 7 -105 6 l-57 -1 -103 121 c-181 214 -279 333
-309 376 -34 48 -48 54 -139 58 -51 2 -86 11 -150 40 -58 25 -105 38 -150 42
-60 5 -75 2 -155 -31 -85 -34 -143 -45 -159 -28 -14 13 -377 30 -436 20 -62
-11 -140 -4 -180 17 -38 20 -95 86 -126 147 -32 63 -38 68 -88 68 -53 0 -103
35 -116 80 -15 54 -13 377 3 387 42 27 40 37 -39 144 -128 175 -167 254 -209
418 -35 137 -62 159 -156 126 -63 -22 -119 -25 -156 -7 -59 28 -53 52 50 217
112 179 130 211 154 274 14 36 27 89 28 116 3 57 37 220 58 281 26 73 75 161
166 297 118 175 165 217 247 217 41 0 64 21 100 92 55 110 111 186 157 212 24
14 50 38 57 54 7 15 81 187 165 382 84 195 180 417 214 493 33 76 63 147 66
158 6 19 -7 19 -884 19 l-891 0 0 -4360z"/>
<path d="M1843 8705 c-3 -9 -3 -18 -1 -21 3 -3 8 4 11 16 6 23 -1 27 -10 5z"/>
<path d="M1896 8688 c-32 -72 -118 -272 -186 -433 -57 -134 -209 -489 -236
-552 -5 -11 99 14 252 60 28 8 57 12 64 7 7 -4 14 -28 17 -52 5 -43 3 -47 -30
-72 -27 -21 -79 -38 -204 -69 l-168 -42 -20 -57 -19 -57 21 -43 c42 -83 88
-142 128 -162 48 -25 60 -67 26 -88 -23 -14 -27 -39 -10 -69 10 -19 14 -17 66
31 80 73 128 104 266 170 77 37 160 68 227 85 162 40 297 84 384 123 l78 36
-51 47 c-58 54 -90 117 -98 194 -5 45 -1 60 23 105 50 92 141 150 233 150 42
0 56 -5 85 -31 54 -47 77 -91 131 -254 l50 -150 45 1 c25 0 86 4 136 9 77 7
96 5 130 -11 21 -10 41 -21 44 -25 3 -3 43 -12 89 -18 112 -17 189 -46 287
-109 111 -71 172 -139 208 -229 28 -70 29 -74 11 -93 -22 -25 -15 -69 21 -123
32 -49 76 -67 159 -67 74 0 334 37 565 81 133 25 181 29 338 30 101 1 199 5
219 9 73 17 194 -51 178 -100 -26 -83 350 -221 610 -224 111 -1 154 13 246 79
26 19 79 50 116 69 37 19 79 46 92 60 l25 27 -19 54 c-10 30 -15 58 -11 62 4
5 26 12 49 18 35 8 42 14 42 34 0 19 -10 27 -55 43 -66 25 -85 40 -99 80 -10
27 -8 33 20 59 53 50 100 48 181 -5 26 -17 26 -17 52 17 27 35 94 87 112 87
20 -1 124 -109 124 -130 0 -29 -43 -67 -115 -101 -62 -30 -130 -38 -137 -17
-3 9 -12 8 -31 -5 -27 -17 -36 -50 -18 -62 19 -11 349 15 498 40 294 49 400
58 733 66 179 4 336 8 350 8 30 1 53 -25 41 -48 -5 -9 -11 -32 -15 -52 l-6
-37 -68 -4 c-53 -3 -85 -13 -157 -47 -112 -54 -173 -71 -252 -71 -56 0 -63 -2
-63 -19 0 -11 9 -23 20 -26 33 -11 78 -54 126 -121 51 -72 80 -86 120 -59 53
34 180 4 320 -76 l42 -23 27 32 c15 18 34 32 43 32 32 0 124 -41 191 -84 122
-78 137 -86 206 -95 117 -17 207 -93 240 -203 15 -52 15 -52 -11 -79 -14 -15
-53 -42 -86 -59 -65 -35 -118 -97 -118 -139 0 -14 -13 -54 -29 -88 -17 -34
-27 -64 -23 -66 4 -3 59 11 122 30 117 34 173 38 283 18 27 -5 54 -1 97 15
l60 23 -6 36 c-9 50 -69 200 -148 368 -36 78 -66 144 -66 147 0 5 -120 289
-165 391 -8 17 -37 84 -65 150 -29 66 -119 273 -202 460 -83 187 -156 354
-163 370 -54 128 -252 578 -286 653 -16 35 -29 65 -29 68 0 2 -14 35 -31 74
l-32 70 -3063 0 -3063 0 -15 -32z"/>
<path d="M8114 8698 c3 -10 9 -26 13 -35 4 -11 -2 -8 -15 7 -27 31 -28 22 -3
-27 11 -21 54 -117 96 -213 42 -96 82 -188 89 -205 8 -16 37 -82 64 -145 39
-89 293 -666 377 -855 7 -16 34 -79 60 -140 26 -60 52 -123 60 -140 27 -64
108 -252 121 -280 7 -17 18 -44 25 -60 6 -17 13 -25 16 -18 2 6 -7 34 -22 62
-14 28 -23 51 -20 51 2 0 -9 27 -26 61 -21 40 -29 68 -25 84 3 13 2 27 -4 30
-6 3 -7 -1 -4 -9 3 -9 4 -16 0 -16 -5 0 -66 125 -66 136 0 3 -12 31 -26 61
-15 34 -23 65 -20 79 4 13 2 26 -4 29 -6 3 -7 -1 -4 -9 13 -33 -6 -14 -22 22
-9 20 -25 55 -35 78 -22 47 -25 81 -4 44 19 -33 19 -21 0 24 -17 40 -30 49
-20 14 5 -15 4 -20 -3 -13 -15 16 -26 59 -13 50 8 -4 6 8 -4 31 -26 64 -33 57
-10 -11 3 -11 -1 -7 -10 9 -9 15 -15 37 -12 47 3 11 -4 36 -14 57 -11 20 -17
27 -14 15 10 -36 -3 -27 -20 13 -19 45 -19 55 0 30 21 -28 18 -7 -6 34 -12 21
-17 26 -14 13 10 -36 -4 -27 -21 13 -8 19 -13 43 -10 52 3 9 1 24 -5 32 -8 11
-9 9 -4 -10 9 -32 -10 -15 -20 19 -5 17 -4 21 4 16 8 -4 6 7 -3 30 -9 21 -16
40 -16 44 0 3 -4 1 -8 -6 -5 -8 -12 -2 -20 20 -10 29 -10 30 3 13 8 -11 15
-17 15 -14 0 7 -24 66 -55 133 -12 28 -39 90 -60 138 -21 49 -41 83 -45 77 -4
-6 -11 0 -18 15 -16 35 -15 43 3 19 28 -37 21 -20 -65 171 -9 22 -20 48 -24
58 -3 10 -10 16 -14 13 -5 -3 -14 7 -21 22 -11 25 -10 26 4 8 8 -11 15 -17 15
-14 0 6 -24 64 -51 126 -21 45 -34 56 -24 20 5 -18 4 -20 -4 -8 -6 8 -8 23 -5
32 3 9 -4 34 -16 55 -12 21 -19 30 -16 21z m75 -168 c5 -17 6 -28 2 -25 -5 3
-14 19 -20 35 -5 17 -6 28 -2 25 5 -3 14 -19 20 -35z m100 -235 c0 -5 -8 6
-19 25 -11 19 -19 40 -19 45 0 6 8 -6 19 -25 11 -19 19 -39 19 -45z m30 -70
c0 -5 -6 1 -14 15 -8 14 -14 30 -14 35 0 6 6 -1 14 -15 8 -14 14 -29 14 -35z
m120 -270 c0 -5 -8 6 -19 25 -11 19 -19 40 -19 45 0 6 8 -6 19 -25 11 -19 19
-39 19 -45z m26 -58 c8 -20 13 -37 10 -37 -6 0 -35 64 -35 76 0 13 9 -1 25
-39z m195 -438 c0 -6 -4 -7 -10 -4 -5 3 -10 11 -10 16 0 6 5 7 10 4 6 -3 10
-11 10 -16z"/>
<path d="M2575 7872 c-16 -11 -37 -27 -45 -36 -19 -23 -16 -111 4 -161 l16
-38 58 8 c31 5 83 8 115 6 52 -2 58 0 54 16 -49 181 -75 223 -135 223 -21 0
-50 -8 -67 -18z"/>
<path d="M8576 7647 c3 -10 9 -15 12 -12 3 3 0 11 -7 18 -10 9 -11 8 -5 -6z"/>
<path d="M2714 7565 c-8 -21 4 -35 30 -35 30 0 37 9 25 31 -12 22 -47 25 -55
4z"/>
<path d="M3060 7473 c-14 -3 -70 -16 -125 -30 -130 -32 -192 -34 -231 -6 -30
21 -30 21 -54 2 -74 -58 -214 -112 -443 -170 -88 -22 -195 -53 -236 -69 -179
-70 -352 -226 -336 -305 8 -41 74 -167 161 -305 118 -188 119 -192 117 -348
-2 -156 -5 -163 -107 -260 -75 -73 -148 -110 -243 -123 -89 -13 -127 -4 -169
39 -34 35 -39 53 -35 124 2 31 -2 39 -26 51 -44 24 -89 77 -120 142 -16 33
-42 82 -57 108 l-29 49 17 53 c17 54 97 166 228 320 38 44 78 99 89 122 l21
43 -37 67 c-21 38 -59 131 -85 208 -45 131 -49 138 -59 112 -6 -16 -11 -32
-11 -36 0 -5 -21 -53 -46 -107 -25 -54 -72 -163 -106 -243 -33 -81 -110 -261
-170 -401 -162 -374 -188 -443 -200 -530 -25 -167 24 -287 195 -482 51 -58 58
-71 53 -95 -6 -26 1 -37 71 -106 217 -213 483 -359 983 -539 264 -94 678 -211
900 -253 451 -86 817 -134 1295 -172 312 -25 1090 -24 1440 0 1096 78 2124
323 2715 647 317 174 518 336 651 523 56 78 149 259 149 289 0 22 -8 22 -57 4
-77 -29 -93 -29 -136 0 -39 25 -44 26 -87 15 -25 -7 -81 -28 -125 -47 -161
-72 -177 -75 -257 -63 -131 20 -218 66 -218 114 0 35 65 66 148 71 36 2 66 5
67 6 12 14 44 90 50 118 11 51 61 150 93 183 15 16 46 40 70 54 49 29 52 48
15 90 -35 38 -56 49 -114 57 -26 4 -113 39 -198 81 l-152 75 -27 -31 c-23 -28
-30 -31 -69 -26 -26 3 -57 16 -80 33 -43 33 -177 86 -198 78 -8 -3 -21 -17
-30 -30 -22 -34 -94 -84 -121 -84 -31 0 -69 48 -83 107 -18 70 -59 108 -75 68
-3 -8 -14 -15 -24 -15 -15 0 -23 13 -35 56 -15 54 -80 164 -96 164 -5 0 -25
-13 -46 -30 -46 -37 -69 -38 -91 -5 -15 23 -15 28 2 75 30 84 17 79 304 110
111 12 140 22 140 45 0 18 -15 18 -134 5 -49 -6 -175 -19 -280 -30 -105 -10
-229 -28 -275 -39 -47 -11 -112 -23 -145 -26 -121 -12 -199 -27 -185 -36 8 -5
29 -9 47 -9 36 0 72 -15 72 -30 0 -5 -24 -22 -52 -37 -50 -26 -62 -27 -184
-28 l-130 -1 -113 -63 c-62 -35 -134 -80 -160 -101 -68 -54 -78 -58 -189 -74
-96 -15 -108 -14 -214 5 -275 49 -476 124 -543 202 -19 22 -40 56 -47 74 -7
20 -21 36 -34 39 -44 11 -428 -5 -499 -21 -159 -36 -306 -60 -571 -94 -122
-16 -234 5 -292 55 -62 52 -112 174 -112 272 0 56 -32 117 -78 148 -166 114
-193 126 -349 161 -50 11 -83 23 -83 31 0 9 -21 12 -77 11 -43 -1 -89 -4 -103
-6z m125 -33 c-11 -5 -31 -8 -45 -8 -23 0 -22 1 5 8 42 11 65 11 40 0z"/>
<path d="M1171 7311 c-43 -70 -77 -95 -164 -116 -35 -9 -88 -70 -177 -203
-109 -164 -160 -285 -160 -379 0 -18 -6 -52 -14 -75 -8 -24 -16 -68 -19 -98
-7 -75 -30 -121 -141 -288 -53 -79 -96 -148 -96 -153 0 -19 29 -8 69 25 56 47
75 52 111 26 17 -12 30 -26 30 -31 0 -5 4 -9 9 -9 4 0 23 39 41 88 64 168 159
398 230 557 40 88 102 228 137 310 36 83 90 199 120 259 85 170 95 204 24 87z"/>
<path d="M6698 7293 c-9 -2 -22 -18 -29 -34 -10 -26 -10 -32 2 -40 21 -13 46
-11 80 7 24 12 29 19 23 37 -3 12 -7 23 -8 24 -4 5 -54 10 -68 6z"/>
<path d="M8760 7235 c0 -5 5 -17 10 -25 5 -8 10 -10 10 -5 0 6 -5 17 -10 25
-5 8 -10 11 -10 5z"/>
<path d="M6600 7209 c0 -5 5 -7 10 -4 6 3 10 8 10 11 0 2 -4 4 -10 4 -5 0 -10
-5 -10 -11z"/>
<path d="M8827 7072 c3 -12 9 -25 14 -28 14 -8 11 10 -6 32 -13 18 -14 18 -8
-4z"/>
<path d="M8877 6960 c3 -11 9 -22 13 -25 5 -3 6 4 3 15 -3 11 -9 22 -13 25 -5
3 -6 -4 -3 -15z"/>
<path d="M8951 6795 c0 -5 6 -21 14 -35 8 -14 14 -20 14 -15 0 6 -6 21 -14 35
-8 14 -14 21 -14 15z"/>
<path d="M1530 6771 c0 -6 -28 -43 -62 -82 -159 -182 -218 -265 -218 -307 0
-15 52 -104 106 -180 9 -13 29 -28 45 -34 40 -14 70 -67 76 -138 7 -70 16 -76
97 -61 72 13 104 30 158 85 69 68 82 104 83 216 l0 95 -58 93 c-92 146 -208
317 -218 320 -5 2 -9 -1 -9 -7z"/>
<path d="M9080 6416 c0 -2 8 -10 18 -17 15 -13 16 -12 3 4 -13 16 -21 21 -21
13z"/>
<path d="M9330 5794 c-6 -14 -10 -35 -10 -48 0 -31 -43 -137 -80 -198 -34 -54
-53 -98 -44 -98 3 0 36 15 72 33 41 19 84 51 112 81 25 27 65 68 88 92 24 24
41 48 37 54 -9 14 -146 110 -157 110 -5 0 -13 -12 -18 -26z"/>
<path d="M979 5173 c-16 -41 -17 -276 -1 -295 7 -9 38 -18 72 -22 64 -7 81
-22 110 -96 23 -57 51 -100 74 -112 14 -8 115 -13 291 -17 395 -7 407 -7 435
9 25 13 24 14 -40 42 -36 16 -94 41 -130 55 -212 83 -491 240 -700 394 -103
76 -98 74 -111 42z"/>
<path d="M8874 5135 c-269 -215 -595 -379 -1064 -533 -620 -204 -1166 -307
-1985 -374 -194 -15 -374 -21 -799 -25 -665 -6 -843 3 -1386 73 -325 42 -755
116 -904 155 -21 6 -40 8 -43 5 -3 -3 22 -36 55 -73 136 -153 235 -269 250
-291 21 -32 57 -45 82 -30 15 10 26 9 52 -3 40 -19 54 -15 73 21 9 17 26 31
42 34 16 4 107 -2 203 -13 155 -17 183 -18 250 -6 41 8 120 17 175 20 77 5
117 14 172 36 79 32 177 39 273 18 87 -19 145 -88 157 -187 5 -45 3 -51 -38
-100 -83 -101 -89 -112 -89 -164 0 -64 -20 -103 -82 -159 l-51 -47 -2 -158
c-2 -88 -8 -190 -15 -228 -11 -59 -10 -80 4 -150 27 -125 41 -174 80 -271 52
-129 69 -157 109 -178 26 -13 43 -34 67 -85 18 -37 46 -86 62 -109 15 -23 31
-56 35 -73 6 -30 -1 -38 -112 -146 -64 -62 -139 -130 -166 -151 -27 -20 -49
-40 -49 -44 0 -4 19 -12 43 -18 27 -7 59 -27 92 -59 28 -26 86 -81 130 -122
118 -110 143 -143 151 -198 4 -26 17 -69 29 -97 13 -27 26 -66 30 -85 4 -19
32 -97 62 -173 29 -75 63 -167 74 -202 50 -164 77 -204 218 -328 216 -189 301
-206 428 -86 63 60 103 78 188 86 110 10 155 -15 155 -89 l0 -43 28 34 c35 45
64 74 87 87 12 7 18 21 17 42 0 23 6 36 21 46 64 40 305 156 324 156 13 0 48
23 85 56 67 61 159 124 179 124 7 0 21 -8 32 -17 18 -17 21 -16 67 36 45 50
49 59 54 120 12 136 46 183 144 197 26 3 67 18 91 33 25 14 83 42 130 61 83
35 116 63 123 105 3 19 -5 20 -127 27 -165 9 -280 24 -313 41 -27 12 -27 13
-23 104 4 111 -3 135 -82 276 -56 101 -61 114 -70 200 -12 118 -12 134 -3 182
8 40 7 40 -46 80 -74 55 -201 178 -257 250 -62 78 -98 165 -85 203 10 30 65
63 93 55 11 -3 39 -25 65 -49 l45 -45 113 7 c75 4 127 2 156 -5 50 -14 119
-72 124 -104 3 -25 27 -26 133 -8 70 12 116 6 166 -22 l36 -21 35 27 c26 20
47 27 79 27 53 0 67 -9 178 -112 46 -43 89 -78 96 -78 6 0 18 -11 25 -25 24
-44 75 -43 86 1 4 14 2 56 -4 94 -17 115 7 172 77 184 24 3 50 18 73 40 29 28
47 36 107 46 40 7 85 9 99 5 77 -21 171 -4 377 69 55 20 101 36 102 36 1 0 7
18 13 39 11 41 43 61 97 61 13 0 36 13 51 28 49 51 58 55 94 42 51 -18 139 8
157 46 20 42 48 71 112 114 30 21 70 54 87 74 28 32 30 39 20 67 -11 33 -153
193 -364 410 -72 74 -144 154 -159 178 -27 40 -28 43 -13 74 8 18 45 67 82
110 68 80 75 94 55 114 -7 7 -13 54 -15 111 -3 112 0 118 71 148 22 9 53 27
68 40 31 26 57 30 74 13 9 -9 25 -5 65 14 29 14 88 40 132 58 93 38 139 73
116 89 -8 5 -47 10 -86 10 -84 0 -111 19 -100 67 19 75 18 77 -14 95 -34 19
-50 52 -50 104 0 19 -4 34 -8 34 -5 0 -40 -25 -78 -55z"/>
</g>
</svg>
