<?xml version="1.0" standalone="no"?>
<!DOCTYPE svg PUBLIC "-//W3C//DTD SVG 20010904//EN"
 "http://www.w3.org/TR/2001/REC-SVG-20010904/DTD/svg10.dtd">
<svg version="1.0" xmlns="http://www.w3.org/2000/svg"
 width="1000.000000pt" height="800.000000pt" viewBox="0 0 1000.000000 800.000000"
 preserveAspectRatio="xMidYMid meet">
<metadata>
Created by potrace 1.16, written by Peter Selinger 2001-2019
</metadata>
<g transform="translate(0.000000,800.000000) scale(0.100000,-0.100000)"
fill="#FFFFFF" stroke="none">
<path d="M0 4000 l0 -4000 5000 0 5000 0 0 4000 0 4000 -5000 0 -5000 0 0
-4000z m2651 3907 c59 -39 89 -96 126 -233 18 -70 43 -143 55 -162 18 -30 24
-33 53 -28 65 12 249 8 292 -7 l41 -14 -1 26 c-2 26 -1 26 76 29 66 2 82 0
104 -18 14 -11 34 -20 44 -20 30 0 71 -51 65 -82 -5 -23 0 -28 37 -43 122 -49
227 -140 289 -253 40 -72 45 -97 26 -148 -10 -28 -9 -39 7 -74 24 -53 65 -82
124 -88 62 -6 248 15 308 34 26 9 89 17 139 18 99 4 130 15 144 52 11 29 51
32 115 9 56 -20 250 -20 298 0 27 11 76 15 189 15 l152 0 47 -49 c34 -35 50
-61 54 -88 10 -58 13 -63 36 -63 11 0 32 -9 46 -20 20 -15 41 -20 89 -20 60 0
64 -2 79 -29 10 -21 28 -34 62 -45 96 -31 240 -57 349 -63 l113 -6 38 43 c49
55 76 65 113 43 28 -16 29 -16 77 22 26 21 78 69 115 106 l67 68 -14 47 c-21
70 -29 68 210 65 237 -3 468 26 463 57 0 4 0 19 1 35 1 23 5 27 31 27 30 0 34
-6 30 -49 -2 -22 1 -23 32 -17 18 4 110 16 203 27 137 16 223 19 445 18 151
-2 296 1 322 5 46 8 48 7 58 -19 28 -74 4 -98 -121 -121 -58 -11 -110 -30
-167 -59 -78 -41 -89 -44 -192 -50 -61 -4 -117 -13 -127 -20 -15 -11 -12 -15
33 -38 53 -27 184 -155 184 -181 0 -8 9 -20 19 -26 16 -8 25 -5 47 15 49 45
167 30 309 -40 l75 -37 34 26 c74 56 105 51 224 -37 35 -25 97 -59 140 -75
107 -41 127 -45 142 -27 14 17 56 20 66 4 3 -6 1 -22 -7 -35 -15 -28 -17 -26
46 -56 47 -22 50 -26 55 -68 5 -46 10 -49 55 -35 11 3 29 0 39 -8 19 -14 19
-15 1 -63 -10 -27 -27 -61 -37 -76 -11 -15 -22 -45 -24 -65 -9 -65 -24 -93
-49 -93 -18 0 -24 7 -29 35 -8 42 -36 47 -60 11 -8 -14 -38 -47 -66 -75 -55
-55 -65 -91 -27 -91 13 0 36 13 51 29 27 28 32 30 100 26 39 -2 100 -13 135
-25 67 -23 74 -22 180 6 92 25 174 10 311 -59 91 -45 109 -58 138 -101 59 -88
53 -125 -27 -181 -23 -16 -71 -57 -104 -91 -70 -69 -186 -144 -285 -184 -62
-25 -67 -29 -70 -60 -2 -21 -13 -41 -28 -52 -44 -35 -48 -55 -20 -89 17 -19
26 -43 26 -64 0 -38 12 -45 77 -45 92 0 171 -76 157 -150 -11 -55 -84 -115
-221 -182 -92 -45 -137 -62 -171 -63 -26 -1 -65 -12 -87 -24 -21 -11 -44 -21
-51 -21 -6 0 -17 -7 -25 -16 -10 -13 -9 -24 6 -65 20 -58 16 -128 -11 -181 -9
-18 -43 -61 -77 -95 l-60 -62 164 -168 c90 -92 206 -211 258 -263 100 -102
139 -165 148 -238 4 -41 1 -52 -26 -89 -17 -23 -64 -68 -106 -99 -41 -31 -98
-85 -126 -121 -27 -35 -60 -68 -72 -72 -12 -5 -56 -12 -97 -16 -94 -9 -125
-22 -201 -82 -104 -83 -119 -92 -177 -104 -31 -6 -74 -20 -96 -31 -21 -11 -95
-31 -164 -44 -105 -21 -134 -23 -174 -14 -82 17 -122 13 -146 -14 -13 -16 -36
-27 -66 -31 -72 -11 -80 -22 -67 -83 29 -135 -42 -252 -154 -252 -56 0 -98 25
-173 102 -66 68 -147 128 -171 128 -7 0 -27 -10 -44 -22 -38 -27 -93 -26 -123
3 -20 18 -32 20 -135 16 -63 -3 -130 -8 -149 -12 -48 -9 -99 26 -120 83 -27
72 -31 74 -149 61 -82 -10 -114 -9 -153 1 -27 6 -52 10 -55 6 -9 -9 65 -94
114 -129 130 -94 208 -155 225 -178 28 -37 34 -94 14 -132 -16 -30 -16 -39 -2
-126 13 -83 21 -104 70 -185 88 -146 100 -177 93 -262 -4 -50 -2 -76 7 -83 6
-5 104 -15 216 -21 113 -6 215 -15 226 -21 38 -20 37 -142 -2 -224 -15 -33
-57 -65 -85 -65 -6 0 -70 -29 -141 -65 -72 -36 -142 -65 -156 -65 -69 0 -92
-29 -92 -113 0 -77 -19 -114 -94 -184 -39 -36 -89 -79 -111 -95 l-40 -29 -26
32 -26 32 -72 -66 c-40 -36 -85 -68 -99 -72 -15 -4 -49 -17 -77 -30 -31 -15
-59 -22 -73 -18 -16 4 -34 -3 -60 -24 -21 -17 -56 -40 -79 -51 -48 -25 -55
-34 -63 -81 -4 -30 -13 -40 -53 -61 -50 -26 -76 -55 -120 -132 -46 -79 -91
-97 -154 -58 -37 22 -42 48 -18 94 8 16 18 46 21 66 5 33 3 40 -16 50 -37 20
-103 -5 -165 -61 -73 -67 -133 -92 -220 -92 -112 0 -194 10 -213 24 -9 8 -71
59 -137 113 -254 212 -254 211 -285 324 -18 64 -108 292 -198 502 -23 52 -42
109 -42 125 0 69 -57 140 -192 243 -49 36 -88 69 -88 74 0 15 -60 38 -102 38
-25 0 -56 8 -75 20 -67 40 -33 109 114 231 108 91 233 208 233 220 0 14 -99
149 -151 206 -26 29 -53 70 -60 90 -6 21 -34 85 -60 143 -34 75 -55 138 -70
218 -22 109 -22 119 -9 220 8 59 13 154 12 212 -2 58 0 129 3 158 6 49 12 58
75 121 l68 68 7 72 c6 59 13 80 41 119 81 112 85 129 35 176 -51 49 -154 52
-236 8 -43 -24 -53 -26 -195 -41 -52 -6 -159 -18 -238 -27 -124 -15 -149 -15
-185 -3 -26 9 -86 14 -158 14 l-116 0 -37 -32 c-42 -37 -67 -40 -141 -17 -29
8 -64 12 -83 9 -28 -5 -37 -2 -57 22 -112 130 -382 430 -432 481 -67 67 -91
75 -159 50 -27 -10 -36 -8 -65 10 -97 61 -110 65 -222 70 -101 4 -111 3 -169
-23 l-61 -27 -125 12 c-108 11 -233 12 -502 7 -107 -2 -182 52 -243 174 l-32
64 -67 5 c-116 9 -127 33 -124 281 l2 166 32 43 c18 24 32 52 32 62 0 31 -39
99 -100 174 -80 98 -118 181 -150 329 -15 66 -23 74 -70 68 -37 -5 -39 -4 -60
38 -13 24 -24 46 -26 48 -2 2 -23 -9 -46 -25 -38 -26 -52 -29 -120 -29 -66 0
-81 3 -99 21 -13 14 -19 28 -15 40 7 23 95 161 164 259 68 97 112 184 112 223
0 18 11 72 24 120 14 48 32 127 41 175 27 146 118 308 284 505 48 57 89 84
124 82 55 -5 64 5 164 167 42 67 86 129 98 137 12 8 60 29 106 47 46 18 88 38
92 45 10 17 51 18 75 3 22 -14 101 9 168 47 64 37 87 31 109 -32 9 -27 10 -45
3 -57 -13 -26 -79 -53 -198 -82 -103 -26 -230 -81 -230 -100 0 -25 44 -135 83
-210 35 -67 46 -80 67 -80 31 0 38 -33 15 -68 -14 -23 -14 -27 13 -78 35 -67
57 -71 57 -12 0 25 6 48 15 56 32 29 201 129 294 173 53 25 113 62 132 81 34
33 38 35 84 29 77 -10 299 50 373 101 44 31 45 41 10 79 -38 41 -70 120 -77
191 -8 75 9 115 76 180 83 81 191 106 259 60z m4317 -657 c49 -30 67 -81 53
-146 -27 -117 -110 -149 -276 -104 -92 25 -86 25 -142 15 l-42 -7 6 35 c7 43
-22 77 -67 77 -26 0 -30 4 -30 28 0 38 35 92 61 92 34 0 61 -19 54 -39 -8 -25
32 -35 62 -16 31 21 73 18 103 -5 35 -28 47 -25 60 15 23 70 93 95 158 55z
m-2466 -77 c19 -24 58 -129 58 -159 0 -18 -7 -25 -27 -30 -16 -4 -39 -15 -53
-24 -18 -13 -32 -15 -48 -9 -30 11 -37 33 -22 69 7 17 12 43 12 58 0 37 39
112 58 112 4 0 14 -8 22 -17z"/>
<path d="M2525 7803 c-84 -44 -126 -117 -102 -175 28 -65 44 -71 157 -63 55 4
100 10 100 14 0 18 -32 160 -42 184 -10 25 -53 58 -75 57 -4 -1 -21 -8 -38
-17z"/>
<path d="M2696 7493 c-14 -14 -5 -43 13 -43 14 0 18 5 14 20 -6 23 -17 33 -27
23z"/>
<path d="M2460 7425 c-10 -12 -10 -15 3 -15 23 0 47 11 47 21 0 15 -37 10 -50
-6z"/>
<path d="M2974 7374 c-28 -10 -49 -11 -74 -4 -27 7 -40 6 -59 -7 -16 -10 -44
-16 -73 -15 -26 0 -50 -3 -53 -9 -11 -17 -63 -10 -70 10 -10 34 -40 30 -108
-14 -77 -49 -262 -111 -479 -159 -16 -4 -28 -13 -28 -21 0 -20 -43 -36 -78
-29 -32 6 -158 -49 -247 -108 -57 -38 -62 -52 -64 -170 -2 -118 -20 -145 -41
-58 -16 65 -33 80 -56 46 -23 -36 -14 -69 52 -201 52 -105 113 -194 114 -167
0 6 8 12 19 12 15 0 19 -9 23 -47 3 -27 20 -79 38 -118 35 -73 37 -89 27 -220
-8 -116 -42 -172 -151 -252 -62 -46 -133 -71 -231 -83 -80 -9 -116 2 -160 52
-34 37 -37 45 -32 84 5 52 -4 68 -72 114 -50 34 -81 79 -81 117 0 18 -8 32
-63 111 l-29 41 27 54 c14 30 85 126 156 213 129 157 189 244 189 275 0 9 -19
45 -42 80 -32 49 -42 75 -44 109 -1 32 -12 62 -38 105 -38 62 -86 197 -86 242
0 25 0 26 -20 8 -11 -10 -20 -23 -20 -30 0 -19 -94 -148 -134 -183 -31 -27
-45 -32 -86 -32 l-48 0 -63 -82 c-34 -46 -75 -99 -90 -118 -15 -19 -50 -79
-79 -133 -42 -80 -55 -117 -70 -200 -10 -56 -27 -129 -38 -161 -13 -38 -18
-67 -12 -80 18 -49 -72 -220 -177 -339 -35 -38 -63 -73 -63 -78 0 -18 19 -16
69 7 48 23 75 29 124 25 10 0 22 -12 27 -26 9 -24 62 -59 73 -49 10 11 47 -17
62 -46 8 -16 29 -81 45 -145 37 -144 47 -163 128 -249 81 -86 108 -145 116
-253 l6 -81 -34 -29 -34 -28 -2 -95 c-1 -52 -2 -117 -3 -144 l-2 -50 64 -13
c87 -18 105 -32 145 -112 19 -37 47 -82 61 -99 24 -29 32 -32 78 -31 29 0 81
3 117 7 61 7 349 -7 465 -23 43 -6 59 -3 115 24 54 26 77 31 137 31 96 0 163
-15 252 -57 70 -33 77 -34 117 -23 91 26 122 1 397 -317 86 -100 175 -197 198
-216 36 -31 43 -34 68 -24 23 8 33 6 60 -14 l33 -24 37 42 36 43 140 -5 c77
-2 162 -10 189 -16 51 -12 108 -8 348 26 53 8 105 11 117 8 12 -3 48 8 88 27
63 30 76 33 168 33 103 -1 158 -15 198 -51 30 -27 68 -109 74 -162 6 -48 5
-49 -51 -105 -69 -69 -76 -82 -76 -137 0 -73 -16 -109 -81 -174 l-61 -61 -3
-134 c-2 -74 -11 -183 -19 -243 -14 -103 -13 -112 3 -145 10 -20 21 -64 24
-99 4 -34 17 -83 30 -110 13 -26 36 -79 51 -119 30 -78 59 -123 82 -123 15 0
74 -76 74 -96 0 -7 27 -52 60 -101 33 -48 60 -91 60 -96 0 -22 -224 -227 -347
-317 -37 -27 -35 -40 7 -40 57 0 95 -25 237 -161 109 -103 183 -197 183 -232
0 -16 14 -59 30 -97 17 -38 30 -77 30 -88 0 -11 15 -56 33 -99 18 -43 64 -161
102 -262 80 -211 87 -221 253 -359 141 -118 181 -144 208 -138 11 3 35 1 54
-4 54 -15 114 7 185 70 72 63 132 89 227 97 54 5 72 2 93 -11 36 -24 58 -77
45 -111 -21 -55 1 -65 24 -11 16 39 55 86 71 86 26 0 49 29 50 60 0 30 6 36
70 71 147 80 249 129 273 129 25 0 38 8 172 105 102 74 110 77 146 59 26 -14
29 -13 67 23 47 46 67 82 67 121 0 50 21 137 39 161 12 15 44 30 102 46 93 26
326 134 351 162 9 10 18 27 20 38 3 19 -4 20 -167 27 -228 9 -317 27 -330 67
-3 12 -1 54 6 94 15 91 6 123 -85 287 -58 105 -64 123 -76 209 -10 75 -10 102
0 132 10 30 10 44 0 69 -17 40 -72 88 -137 116 -45 20 -66 41 -152 148 -129
162 -144 208 -85 271 36 40 72 33 146 -25 l62 -51 144 3 143 3 42 -45 c23 -25
49 -56 58 -70 l16 -24 76 12 c74 13 145 9 195 -9 14 -6 30 -4 42 3 15 10 22 9
38 -5 24 -22 31 -21 59 5 30 28 75 26 122 -5 20 -14 82 -68 139 -120 117 -110
137 -120 163 -86 20 26 23 73 10 151 -13 79 15 119 104 148 22 7 60 28 84 46
48 37 61 39 191 25 43 -5 99 -4 130 1 56 10 209 53 245 69 11 5 38 15 60 22
29 10 44 23 56 47 18 36 30 45 92 64 23 7 62 27 86 44 42 30 46 31 115 25 81
-6 102 5 113 59 4 22 16 34 49 50 55 25 182 142 190 174 9 35 -26 77 -289 349
-128 132 -248 259 -266 282 l-34 43 26 39 c14 22 51 67 82 102 30 34 58 73 62
87 3 13 -2 60 -12 103 -15 65 -16 86 -7 118 20 64 40 81 105 90 43 6 65 15 88
37 25 24 32 26 47 16 9 -7 22 -15 29 -18 14 -7 276 117 288 135 12 20 -2 25
-87 32 -98 9 -112 20 -114 90 -1 43 -5 54 -32 79 -65 59 -62 111 9 215 22 33
44 70 50 83 5 15 30 32 66 48 149 65 236 123 305 205 24 29 59 58 81 66 21 9
36 21 34 27 -6 19 -108 85 -166 107 -31 11 -80 25 -108 29 -48 8 -59 6 -118
-22 -47 -22 -73 -28 -93 -24 -86 22 -176 37 -188 32 -8 -3 -21 -24 -30 -46
-19 -48 -44 -64 -85 -55 -17 4 -58 -1 -98 -11 -65 -17 -73 -17 -146 -1 -128
28 -250 94 -231 125 2 4 26 18 52 31 41 21 56 23 125 18 l79 -6 6 27 c4 15 22
58 40 95 20 40 34 83 34 105 0 45 47 130 90 163 79 62 85 68 74 78 -5 6 -73
36 -150 67 -150 59 -200 86 -253 134 -40 35 -43 36 -65 11 -19 -21 -94 -41
-155 -41 -28 0 -47 8 -78 35 -51 43 -81 55 -143 55 -44 0 -51 -3 -65 -27 -35
-66 -86 -99 -134 -86 -21 5 -54 73 -70 143 -11 48 -27 63 -52 49 -25 -13 -72
-11 -93 4 -12 9 -20 33 -25 75 -5 44 -14 69 -31 87 -29 31 -43 31 -97 3 -35
-19 -45 -20 -67 -10 -19 8 -26 19 -26 39 0 34 22 109 36 123 17 17 111 29 281
38 160 8 194 16 178 43 -10 15 -280 5 -408 -16 -47 -8 -126 -17 -174 -21 -69
-5 -98 -12 -133 -32 -42 -25 -52 -26 -151 -23 -70 2 -109 -1 -114 -8 -3 -6 3
-24 14 -40 12 -16 21 -32 21 -36 0 -3 -21 -15 -47 -27 -36 -16 -79 -22 -183
-28 -152 -8 -184 -18 -290 -90 -63 -43 -164 -92 -210 -103 -14 -4 -39 -24 -55
-46 -35 -46 -58 -55 -94 -37 -14 7 -58 13 -98 14 -90 1 -341 49 -426 81 -23 9
-29 7 -39 -9 -16 -26 -49 -25 -78 0 -19 16 -37 20 -102 20 -91 0 -111 8 -134
53 -10 18 -50 73 -90 123 -86 108 -73 104 -309 99 -170 -3 -211 -11 -224 -46
-6 -19 -9 -20 -14 -6 -5 13 -15 15 -44 12 -21 -3 -99 -12 -173 -21 -79 -9
-141 -21 -150 -29 -18 -16 -56 -21 -91 -11 -14 4 -62 2 -106 -4 -96 -13 -188
-2 -257 31 -59 28 -100 87 -116 168 -6 31 -15 66 -20 78 -6 14 -4 27 4 38 21
29 -74 158 -156 212 -85 57 -192 103 -237 103 -23 0 -47 8 -60 19 -17 15 -45
21 -119 26 -53 4 -108 11 -123 15 -15 5 -41 2 -65 -6z"/>
<path d="M5300 6786 c0 -9 102 -67 108 -62 7 7 6 7 -42 40 -34 23 -66 34 -66
22z"/>
<path d="M1423 6654 c-10 -14 -49 -59 -86 -99 -71 -76 -127 -148 -178 -226
l-29 -46 30 -60 c32 -64 50 -84 129 -148 56 -45 83 -92 81 -138 -3 -51 -1 -56
25 -73 21 -14 32 -14 77 -4 75 18 116 41 170 97 62 63 78 105 78 197 0 99 -27
170 -89 238 -54 60 -105 136 -146 221 -15 31 -31 60 -36 62 -4 3 -16 -6 -26
-21z"/>
<path d="M6835 7110 c-8 -12 20 -24 35 -15 5 3 10 10 10 16 0 12 -37 12 -45
-1z"/>
</g>
</svg>
