<?xml version="1.0" standalone="no"?>
<!DOCTYPE svg PUBLIC "-//W3C//DTD SVG 20010904//EN"
 "http://www.w3.org/TR/2001/REC-SVG-20010904/DTD/svg10.dtd">
<svg version="1.0" xmlns="http://www.w3.org/2000/svg"
 width="464.000000pt" height="480.000000pt" viewBox="0 0 464.000000 480.000000"
 preserveAspectRatio="xMidYMid meet">
<metadata>
Created by potrace 1.16, written by Peter Selinger 2001-2019
</metadata>
<g transform="translate(0.000000,480.000000) scale(0.100000,-0.100000)"
fill="#000000" stroke="none">
<path d="M0 2400 l0 -2400 2320 0 2320 0 0 2400 0 2400 -2320 0 -2320 0 0
-2400z m2412 2164 c50 -17 119 -65 152 -105 15 -18 43 -63 62 -101 l34 -68
514 0 514 0 13 38 c31 97 101 175 198 221 49 23 69 26 156 26 87 0 107 -3 157
-27 71 -33 137 -98 171 -169 99 -200 18 -416 -189 -510 l-64 -29 0 -408 c0
-224 -3 -464 -6 -533 l-7 -125 76 -36 c148 -71 218 -174 225 -333 5 -112 -18
-180 -84 -254 -40 -45 -118 -92 -186 -115 -17 -5 -18 -39 -19 -521 -1 -283 -2
-522 -3 -531 -1 -18 1 -20 83 -55 71 -31 140 -99 177 -174 26 -55 29 -69 29
-165 0 -95 -3 -111 -29 -168 -36 -77 -104 -142 -184 -174 -44 -17 -78 -22
-147 -23 -96 0 -146 16 -227 71 -41 29 -107 119 -130 179 l-16 40 -511 3 -511
2 -12 -27 c-44 -109 -105 -186 -177 -223 -118 -60 -248 -64 -356 -11 -78 39
-135 100 -178 193 l-32 68 -512 0 c-322 0 -513 -4 -513 -10 0 -33 -48 -127
-87 -170 -82 -92 -204 -132 -329 -111 -135 24 -227 92 -282 209 -24 50 -27 70
-27 157 0 87 3 107 26 155 48 100 127 167 241 204 17 5 18 39 18 534 0 412 -3
532 -12 539 -7 5 -35 18 -63 28 -72 27 -165 122 -195 200 -28 75 -31 207 -6
274 37 99 124 182 227 216 l49 17 0 544 0 544 -27 11 c-122 48 -184 97 -226
181 -57 114 -56 236 5 351 38 70 92 121 167 156 48 22 69 26 152 26 87 0 101
-3 161 -33 78 -38 144 -106 187 -191 l31 -61 512 2 511 3 14 40 c39 113 151
217 260 241 65 15 165 9 225 -12z"/>
<path d="M466 4418 c-58 -13 -105 -46 -137 -97 -38 -59 -41 -146 -6 -212 28
-52 99 -104 157 -114 156 -26 290 133 239 286 -34 102 -144 161 -253 137z"/>
<path d="M2205 4418 c-87 -32 -140 -109 -140 -204 0 -152 147 -258 292 -210
126 42 180 188 117 314 -34 69 -90 103 -177 108 -34 2 -75 -1 -92 -8z"/>
<path d="M3992 4421 c-91 -23 -157 -114 -156 -216 0 -160 138 -253 296 -200
52 18 105 66 124 112 33 78 10 196 -48 250 -47 44 -150 70 -216 54z"/>
<path d="M2655 4127 c-8 -12 -15 -26 -15 -31 0 -6 -12 -27 -26 -48 l-26 -37
93 -102 c102 -111 198 -199 215 -199 6 0 148 69 315 153 167 84 346 172 397
195 59 27 92 47 92 57 0 9 -6 17 -12 20 -7 2 -239 6 -516 8 l-502 5 -15 -21z"/>
<path d="M881 4126 c-8 -10 -8 -16 1 -23 21 -17 778 -403 790 -403 13 0 298
294 294 304 -3 6 -16 38 -30 71 l-25 60 -509 3 c-423 2 -511 0 -521 -12z"/>
<path d="M3593 3897 c-28 -17 -173 -93 -322 -167 -149 -74 -271 -139 -271
-145 0 -11 151 -165 161 -165 3 0 51 46 105 102 54 57 164 169 243 250 80 81
142 150 140 153 -3 2 -28 -10 -56 -28z"/>
<path d="M951 3883 c13 -15 101 -108 195 -208 94 -99 188 -199 210 -223 l39
-43 88 89 88 89 -113 56 c-62 31 -204 103 -316 161 -112 58 -206 106 -209 106
-4 0 4 -12 18 -27z"/>
<path d="M646 3875 c-27 -13 -52 -28 -55 -33 -3 -6 -6 -250 -6 -542 l0 -533
72 -33 72 -32 34 43 c19 25 144 157 278 295 134 138 245 257 247 265 6 27
-553 596 -583 594 -5 0 -32 -11 -59 -24z"/>
<path d="M1938 3756 c-99 -102 -125 -135 -116 -144 7 -7 16 -12 20 -12 4 0 85
-38 179 -85 94 -47 175 -85 180 -85 5 0 9 83 9 200 l0 199 -61 31 c-34 16 -66
29 -73 29 -6 -1 -68 -61 -138 -133z"/>
<path d="M2410 3862 l-55 -27 -3 -195 c-1 -107 0 -200 2 -207 4 -9 65 17 198
87 106 54 194 103 196 108 4 14 -245 257 -266 259 -9 1 -42 -10 -72 -25z"/>
<path d="M3735 3796 c-80 -81 -232 -238 -410 -424 l-59 -62 99 -102 c90 -93
170 -176 404 -421 40 -42 76 -77 80 -77 4 0 34 10 66 23 l60 23 0 543 0 542
-60 24 c-33 14 -67 24 -75 24 -8 -1 -55 -42 -105 -93z"/>
<path d="M1704 3511 c-5 -4 -52 -50 -104 -104 l-95 -97 100 -100 c55 -55 106
-100 113 -100 7 0 84 37 170 83 86 46 172 89 190 96 17 7 32 18 32 23 0 5 -46
31 -102 58 -57 27 -140 69 -185 93 -98 53 -107 57 -119 48z"/>
<path d="M2755 3464 c-55 -29 -148 -75 -207 -101 -59 -26 -108 -50 -108 -53 0
-3 94 -51 208 -106 l207 -102 98 96 c53 53 97 103 97 110 0 15 -155 189 -180
201 -10 5 -50 -11 -115 -45z"/>
<path d="M1330 3133 c-35 -38 -145 -150 -244 -250 -99 -101 -177 -183 -173
-183 19 0 647 326 647 336 0 10 -152 164 -162 164 -3 0 -33 -30 -68 -67z"/>
<path d="M3109 3153 c-75 -79 -110 -124 -104 -133 7 -11 655 -333 660 -328 5
4 -490 501 -502 505 -5 2 -29 -18 -54 -44z"/>
<path d="M2145 3161 c-27 -14 -115 -59 -193 -100 l-144 -74 129 -129 c70 -71
137 -131 149 -134 11 -3 43 6 72 21 l52 26 0 210 c0 115 -3 208 -7 208 -5 -1
-30 -13 -58 -28z"/>
<path d="M2356 3182 c-8 -13 -9 -399 -2 -411 4 -6 11 -11 16 -11 5 0 34 -11
64 -25 30 -14 59 -25 64 -25 5 0 24 21 42 46 18 25 73 88 122 139 l89 93 -83
45 c-159 86 -307 157 -312 149z"/>
<path d="M1565 2869 c-49 -28 -193 -103 -320 -168 -316 -163 -350 -183 -350
-206 0 -20 11 -20 507 -23 l506 -2 7 32 c4 18 16 47 26 64 10 17 19 40 19 50
0 20 -278 305 -295 303 -6 -1 -50 -23 -100 -50z"/>
<path d="M2747 2773 c-78 -79 -144 -148 -145 -154 -4 -10 36 -115 51 -136 7
-10 120 -13 506 -13 273 0 502 4 509 9 39 25 4 47 -386 241 l-392 196 -143
-143z"/>
<path d="M480 2610 c-259 -49 -226 -431 37 -430 172 1 274 199 175 342 -46 68
-132 103 -212 88z"/>
<path d="M2239 2611 c-123 -24 -202 -150 -170 -271 48 -181 300 -223 396 -66
103 168 -35 373 -226 337z"/>
<path d="M3950 2588 c-65 -33 -113 -105 -118 -177 -8 -111 80 -218 186 -229
73 -7 149 19 193 65 49 52 62 90 57 168 -5 79 -41 137 -107 172 -60 31 -150
32 -211 1z"/>
<path d="M1310 2320 c-329 -4 -425 -8 -425 -17 0 -15 760 -393 790 -393 19 0
78 56 240 227 l49 53 -35 67 -36 68 -79 0 c-43 0 -270 -2 -504 -5z"/>
<path d="M2992 2323 l-333 -3 -10 -28 c-7 -15 -20 -44 -31 -64 l-19 -38 103
-106 c57 -58 124 -124 150 -146 l48 -39 327 161 c181 89 351 173 380 187 53
25 72 48 54 66 -12 12 -178 14 -669 10z"/>
<path d="M3620 2104 c-44 -35 -205 -117 -483 -244 -76 -35 -136 -66 -135 -71
5 -13 158 -169 167 -169 4 0 113 109 242 243 281 291 303 316 209 241z"/>
<path d="M894 2123 c5 -5 117 -119 250 -255 134 -137 247 -248 252 -248 5 0
47 37 92 83 65 65 80 85 70 95 -7 7 -15 12 -20 12 -11 0 -569 277 -603 300
-29 19 -56 28 -41 13z"/>
<path d="M645 2062 c-27 -15 -51 -27 -52 -27 -1 -1 -4 -240 -5 -532 -2 -370 0
-535 8 -543 6 -6 36 -18 66 -26 l56 -16 284 287 c156 157 284 292 286 299 5
23 -559 587 -585 585 -4 0 -30 -12 -58 -27z"/>
<path d="M1943 1961 c-62 -65 -113 -123 -113 -129 0 -5 33 -26 73 -47 39 -21
120 -64 179 -96 59 -33 111 -59 117 -59 8 0 11 64 11 200 l0 199 -37 7 c-21 4
-55 15 -75 25 -21 11 -39 19 -40 18 -2 0 -54 -54 -115 -118z"/>
<path d="M2420 2047 l-65 -32 -3 -192 c-1 -121 1 -193 7 -193 6 0 47 20 93 44
46 23 131 65 191 91 59 26 107 50 107 54 -1 10 -247 261 -256 260 -5 0 -38
-15 -74 -32z"/>
<path d="M3715 1967 c-60 -62 -183 -187 -272 -278 -90 -91 -163 -172 -163
-179 0 -13 537 -564 569 -584 9 -6 25 -3 45 7 17 8 43 18 59 21 l27 6 0 530
c0 412 -3 531 -12 537 -12 7 -90 37 -128 49 -9 3 -56 -38 -125 -109z"/>
<path d="M1607 1622 c-53 -53 -97 -103 -97 -111 0 -15 164 -187 193 -203 15
-8 60 11 223 93 112 57 200 107 196 110 -12 11 -376 197 -397 203 -16 5 -41
-15 -118 -92z"/>
<path d="M2650 1615 c-107 -52 -196 -98 -198 -103 -2 -8 27 -25 238 -132 182
-93 153 -96 277 24 l108 104 -99 101 c-55 56 -107 101 -115 100 -9 0 -104 -43
-211 -94z"/>
<path d="M1342 1355 c-23 -25 -109 -118 -190 -208 -82 -89 -170 -183 -196
-209 -26 -27 -42 -48 -34 -48 7 0 45 19 83 41 39 23 181 98 318 166 136 68
247 127 247 130 0 11 -164 173 -175 173 -6 0 -30 -20 -53 -45z"/>
<path d="M3077 1322 c-42 -42 -77 -82 -77 -88 0 -13 45 -37 408 -218 150 -75
270 -131 265 -124 -10 16 -508 508 -514 508 -2 0 -39 -35 -82 -78z"/>
<path d="M2185 1381 c-6 -5 -88 -48 -183 -96 -94 -48 -174 -90 -177 -94 -5 -9
260 -281 273 -281 4 0 30 13 57 28 l50 27 3 213 c1 116 -1 212 -6 212 -4 0
-12 -4 -17 -9z"/>
<path d="M2357 1323 c-4 -38 -7 -134 -7 -215 l0 -146 69 -21 c38 -12 72 -21
74 -21 3 0 30 26 59 57 29 32 86 92 126 134 l73 77 -78 42 c-182 100 -295 160
-302 160 -5 0 -11 -30 -14 -67z"/>
<path d="M2738 965 c-105 -108 -146 -158 -142 -169 4 -9 18 -40 33 -69 l26
-52 513 -3 c468 -2 513 -1 519 14 11 29 -9 44 -137 103 -69 31 -244 119 -389
194 -145 75 -266 137 -270 136 -3 0 -72 -70 -153 -154z"/>
<path d="M1271 912 c-212 -108 -386 -201 -388 -207 -10 -33 7 -35 517 -35
l505 -1 39 76 40 76 -144 144 c-93 93 -152 145 -165 145 -11 -1 -193 -89 -404
-198z"/>
<path d="M422 789 c-207 -103 -130 -419 102 -419 115 0 206 98 206 223 0 83
-43 159 -109 194 -58 30 -140 31 -199 2z"/>
<path d="M2182 785 c-101 -57 -139 -150 -108 -258 40 -139 214 -196 338 -110
90 62 116 214 53 305 -62 87 -191 116 -283 63z"/>
<path d="M3934 778 c-68 -46 -108 -122 -101 -194 14 -138 124 -228 250 -203
114 21 179 89 185 194 5 77 -9 121 -51 165 -46 47 -101 70 -173 70 -53 0 -69
-5 -110 -32z"/>
</g>
</svg>
