<?xml version="1.0" standalone="no"?>
<!DOCTYPE svg PUBLIC "-//W3C//DTD SVG 20010904//EN"
 "http://www.w3.org/TR/2001/REC-SVG-20010904/DTD/svg10.dtd">
<svg version="1.0" xmlns="http://www.w3.org/2000/svg"
 width="212.000000pt" height="224.000000pt" viewBox="0 0 212.000000 224.000000"
 preserveAspectRatio="xMidYMid meet">
<metadata>
Created by potrace 1.16, written by Peter Selinger 2001-2019
</metadata>
<g transform="translate(0.000000,224.000000) scale(0.100000,-0.100000)"
fill="#000000" stroke="none">
<path d="M0 1510 c0 -579 3 -729 13 -727 19 3 22 -52 3 -59 -14 -5 -16 -47
-16 -345 0 -229 3 -339 10 -339 6 0 33 20 59 45 56 52 99 60 125 23 20 -28 20
-57 1 -64 -8 -4 -15 -15 -15 -25 0 -18 14 -19 375 -19 l375 0 0 23 c0 32 -9
41 -60 67 -25 12 -160 85 -301 161 -140 77 -261 139 -267 139 -7 0 -12 -7 -12
-15 0 -21 -21 -19 -85 9 l-55 25 2 668 3 668 35 17 c88 44 141 43 158 -2 6
-17 28 -7 200 89 106 60 241 133 301 162 l109 54 -6 33 c-6 42 15 66 74 82 83
24 160 -27 152 -99 -3 -21 10 -30 97 -75 124 -64 250 -133 380 -207 l100 -58
20 25 c28 33 98 34 146 1 l34 -23 7 -214 c8 -288 9 -1103 0 -1117 -7 -11 -80
-46 -119 -58 -15 -4 -26 0 -36 15 l-15 21 -53 -27 c-30 -15 -92 -48 -139 -74
-141 -78 -354 -187 -393 -199 -34 -12 -37 -15 -37 -52 l0 -39 475 0 475 0 0
1120 0 1120 -1060 0 -1060 0 0 -730z"/>
<path d="M1018 2130 c-18 -11 -26 -60 -10 -60 5 0 17 6 27 14 12 9 32 12 52 9
33 -6 40 1 25 25 -11 17 -73 25 -94 12z"/>
<path d="M1070 2011 c0 -28 23 -45 133 -102 67 -34 124 -63 126 -66 10 -8 -27
-33 -139 -96 -327 -182 -410 -231 -435 -255 l-28 -25 -51 28 c-50 28 -171 108
-211 140 -20 16 -20 17 10 41 85 70 422 252 533 288 33 11 52 23 52 33 0 30
-83 8 -213 -54 -138 -67 -358 -193 -455 -259 -35 -24 -69 -44 -77 -44 -34 0
-20 -21 38 -58 101 -66 550 -312 570 -312 11 0 17 8 17 25 0 36 33 50 81 36
32 -10 38 -16 35 -34 -3 -18 -9 -21 -32 -19 -59 5 -56 39 -62 -647 l-5 -631
30 0 30 0 5 592 c4 457 3 596 -7 608 -6 8 -15 23 -18 32 -8 22 28 33 78 25 19
-3 37 -1 40 4 4 5 -1 9 -9 9 -18 0 -40 36 -31 50 3 6 20 10 36 10 23 0 34 -7
47 -30 9 -16 22 -30 27 -30 6 0 42 18 80 41 39 22 138 77 220 121 158 85 278
158 290 177 10 16 -38 76 -93 116 -26 19 -163 93 -304 164 -232 119 -308 148
-308 122z m459 -269 c57 -32 111 -68 119 -80 14 -21 12 -24 -21 -55 -35 -31
-302 -183 -402 -229 -93 -42 -264 -24 -397 43 -20 10 -39 23 -42 28 -6 10 106
85 219 146 39 21 118 64 176 96 122 67 208 107 229 108 8 0 62 -26 119 -57z"/>
<path d="M235 1731 l-30 -6 -3 -646 -2 -646 26 -12 c34 -15 37 -11 23 25 -12
31 -26 1195 -15 1240 8 32 34 30 47 -3 12 -32 29 -20 32 23 2 24 -2 29 -23 31
-14 0 -38 -2 -55 -6z"/>
<path d="M1802 1728 c-18 -18 5 -38 42 -38 l32 0 -3 -567 c-2 -313 -4 -601 -6
-640 -2 -73 5 -87 31 -61 9 9 12 167 12 649 0 566 -2 639 -16 653 -18 19 -75
21 -92 4z"/>
<path d="M1754 1524 c-34 -24 -142 -87 -240 -140 -226 -122 -283 -156 -314
-189 l-25 -27 -3 -526 c-2 -503 -2 -525 15 -510 10 8 139 77 287 152 301 154
342 178 350 209 9 33 7 1077 -1 1076 -5 0 -36 -21 -69 -45z m24 -116 c8 -8 12
-61 12 -171 0 -186 -6 -203 -93 -260 -109 -72 -374 -210 -444 -231 l-23 -7 0
162 c0 243 -9 231 317 412 149 83 183 99 214 106 3 0 10 -4 17 -11z m10 -665
c2 -86 1 -166 -2 -178 -9 -34 -148 -131 -289 -200 -135 -67 -254 -112 -265
-100 -4 4 -7 83 -7 177 l0 170 46 42 c54 48 151 106 344 205 177 91 169 96
173 -116z"/>
<path d="M283 1547 c-10 -15 -18 -982 -8 -1043 3 -25 9 -43 12 -40 4 3 11 2
17 -3 14 -11 240 -136 416 -231 74 -40 148 -81 163 -92 16 -11 30 -18 32 -16
5 5 9 1077 4 1082 -2 1 -78 43 -169 93 -302 165 -375 205 -417 234 -31 20 -44
25 -50 16z m177 -184 c121 -68 365 -215 383 -230 15 -14 17 -36 16 -182 -1
-91 -4 -176 -7 -188 -7 -21 -10 -20 -117 31 -146 70 -330 176 -382 221 l-43
37 0 173 c0 95 3 180 6 189 5 14 10 14 42 0 21 -8 66 -31 102 -51z m19 -504
c203 -107 284 -155 335 -200 l46 -41 0 -171 c0 -95 -4 -178 -9 -185 -10 -17
-85 13 -222 89 -136 74 -120 65 -250 148 -82 52 -83 55 -73 272 6 133 9 159
22 159 8 0 76 -32 151 -71z"/>
<path d="M1093 1210 l-23 -9 0 -601 0 -600 25 0 25 0 0 579 c0 318 3 593 6
610 7 33 3 35 -33 21z"/>
</g>
</svg>
