<?xml version="1.0" standalone="no"?>
<!DOCTYPE svg PUBLIC "-//W3C//DTD SVG 20010904//EN"
 "http://www.w3.org/TR/2001/REC-SVG-20010904/DTD/svg10.dtd">
<svg version="1.0" xmlns="http://www.w3.org/2000/svg"
 width="1004.000000pt" height="816.000000pt" viewBox="0 0 1004.000000 816.000000"
 preserveAspectRatio="xMidYMid meet">
<metadata>
Created by potrace 1.16, written by Peter Selinger 2001-2019
</metadata>
<g transform="translate(0.000000,816.000000) scale(0.100000,-0.100000)"
fill="#000000" stroke="none">
<path d="M0 4080 l0 -4080 5020 0 5020 0 0 4080 0 4080 -39 0 c-22 0 -43 -4
-46 -10 -3 -5 -11 -10 -16 -10 -6 0 -7 5 -4 10 4 7 -103 10 -313 10 l-319 0
-2 -62 c-1 -35 -7 -92 -14 -128 -11 -61 -14 -65 -41 -68 -16 -2 -32 0 -36 5
-6 7 6 113 25 221 l6 32 -611 0 -610 0 0 -32 c0 -23 -18 -61 -56 -120 -31 -49
-60 -88 -66 -88 -19 0 -48 21 -48 36 0 8 13 34 28 57 34 50 82 133 82 141 0 3
-183 6 -406 6 -321 0 -405 -3 -401 -12 2 -7 13 -62 23 -121 15 -91 16 -110 5
-117 -8 -4 -24 -5 -35 -1 -18 7 -24 24 -38 107 -9 54 -14 109 -11 122 l5 23
-107 -3 -108 -3 -36 -115 c-34 -107 -38 -115 -64 -118 -17 -2 -29 2 -33 12 -3
8 10 62 28 120 l34 106 -863 0 -863 0 -9 -24 c-5 -13 -24 -46 -41 -75 -24 -39
-38 -51 -56 -51 -36 0 -39 22 -10 79 14 28 26 55 26 61 0 6 -57 10 -160 10
-91 0 -160 -4 -160 -9 0 -5 6 -22 14 -38 26 -52 66 -163 66 -183 0 -25 -22
-26 -42 -2 -33 36 -98 185 -92 209 l6 23 -396 0 c-218 0 -396 -3 -396 -6 0 -3
18 -31 40 -63 47 -67 52 -101 16 -101 -19 0 -40 19 -85 74 -34 41 -61 79 -61
85 0 8 -276 11 -946 11 l-946 0 5 -22 c3 -13 11 -54 17 -93 5 -38 12 -80 15
-93 4 -17 0 -25 -21 -33 -17 -6 -31 -6 -37 0 -8 8 -36 119 -51 204 l-7 37
-269 0 c-222 0 -270 -2 -270 -14 0 -7 10 -36 21 -64 26 -61 20 -85 -18 -80
-25 3 -31 12 -57 81 l-29 77 -579 0 -578 0 0 -4080z m3489 3954 c2 -1 -2 -34
-9 -71 -7 -37 -14 -85 -16 -106 -4 -46 -39 -127 -54 -127 -18 0 -42 71 -37
109 12 87 40 187 55 199 13 10 47 8 61 -4z m6427 -33 c-6 -41 -59 -178 -74
-193 -12 -12 -62 1 -62 16 0 11 73 186 86 208 3 4 17 8 31 8 24 0 25 -2 19
-39z m-4402 13 c13 -5 16 -26 16 -125 l0 -119 -30 0 -30 0 0 118 c0 134 3 142
44 126z m-2863 -27 c58 -38 93 -104 124 -227 15 -62 38 -131 49 -153 l22 -41
135 3 c74 1 156 -3 183 -9 27 -6 50 -9 51 -8 1 2 -10 55 -26 118 -32 127 -34
140 -19 140 5 0 46 -20 91 -45 45 -25 92 -45 104 -45 12 0 38 -6 56 -14 26
-10 56 -11 128 -4 52 4 96 6 99 3 6 -5 -99 -167 -131 -202 -11 -12 -17 -29
-14 -37 3 -8 41 -32 84 -53 96 -47 203 -149 251 -239 35 -67 38 -90 20 -141
-10 -29 -9 -39 10 -78 37 -77 100 -94 279 -75 65 7 136 19 158 27 22 8 81 16
131 18 114 3 130 9 143 45 12 35 37 38 115 15 32 -10 92 -15 173 -15 139 0
151 8 71 47 -44 21 -65 39 -56 49 2 2 40 9 84 15 43 6 85 15 92 21 6 6 12 32
12 59 0 48 1 49 30 49 23 0 33 -6 40 -25 17 -44 37 -41 84 10 25 26 50 45 58
43 9 -3 16 -37 21 -109 l9 -104 46 -51 c26 -28 60 -65 75 -84 l28 -33 24 23
c19 17 25 20 28 9 19 -68 23 -74 50 -77 15 -2 47 3 70 12 79 28 97 29 97 5 0
-11 -12 -40 -26 -64 l-25 -44 23 -15 c59 -37 363 -92 466 -84 50 4 57 9 94 51
42 50 74 60 102 32 8 -8 18 -15 21 -15 14 0 131 98 181 152 l52 55 -11 47
c-16 71 -14 72 186 68 158 -3 424 16 469 33 11 4 18 20 20 43 3 32 7 37 31 40
28 3 31 -2 27 -47 -2 -21 1 -23 24 -17 14 3 108 15 208 27 141 15 248 20 468
20 157 -1 301 0 320 2 30 2 35 -1 43 -30 21 -72 1 -88 -142 -113 -38 -7 -100
-30 -150 -55 -80 -41 -93 -44 -193 -51 -60 -4 -116 -12 -125 -19 -15 -11 -11
-15 33 -38 53 -27 184 -155 184 -181 0 -8 8 -20 18 -25 14 -7 25 -4 47 15 51
44 168 29 309 -41 l75 -37 45 31 c64 44 91 41 183 -22 43 -30 92 -61 110 -70
50 -27 186 -68 193 -60 4 5 13 37 20 73 21 104 26 113 58 105 15 -4 28 -8 29
-9 2 -2 -20 -129 -33 -193 -6 -31 -4 -33 42 -55 45 -21 49 -26 52 -63 4 -50
14 -60 40 -44 25 16 72 -1 72 -26 0 -8 -18 -51 -40 -95 -22 -44 -40 -92 -40
-108 0 -15 -7 -38 -16 -50 -19 -28 -54 -30 -54 -3 0 54 -36 69 -64 27 -8 -14
-38 -47 -66 -75 -53 -54 -65 -91 -29 -91 12 0 39 16 61 35 33 30 42 34 59 24
12 -6 34 -8 49 -5 17 3 58 -5 102 -19 88 -29 98 -30 168 -5 63 22 121 25 188
9 73 -18 223 -92 260 -128 39 -40 72 -101 72 -134 0 -25 -55 -83 -102 -108
-12 -6 -48 -38 -78 -69 -62 -64 -178 -139 -278 -180 -64 -25 -67 -29 -70 -63
-2 -27 -11 -42 -38 -62 -41 -31 -42 -38 -9 -77 16 -18 25 -42 25 -63 0 -38 12
-45 77 -45 92 0 171 -76 157 -150 -11 -55 -84 -115 -220 -182 -92 -45 -135
-61 -166 -61 -25 0 -60 -9 -87 -23 -24 -13 -50 -24 -56 -24 -7 0 -18 -7 -26
-16 -10 -13 -9 -24 6 -65 20 -58 16 -128 -11 -181 -9 -18 -43 -60 -75 -94
l-60 -60 187 -195 c102 -107 217 -225 255 -263 78 -77 117 -144 126 -214 4
-41 1 -52 -26 -89 -17 -23 -64 -68 -106 -99 -41 -31 -98 -85 -126 -121 -27
-35 -60 -68 -72 -72 -12 -5 -56 -12 -97 -16 -94 -9 -125 -22 -201 -82 -104
-83 -119 -92 -177 -104 -31 -6 -74 -20 -96 -31 -21 -11 -95 -31 -164 -44 -105
-21 -134 -23 -174 -14 -82 17 -122 13 -146 -14 -13 -16 -36 -27 -66 -31 -72
-11 -80 -22 -67 -83 29 -135 -42 -252 -154 -252 -56 0 -98 25 -173 102 -68 69
-147 128 -173 128 -8 0 -27 -11 -44 -24 -35 -28 -86 -26 -121 6 -19 17 -33 19
-135 15 -63 -3 -130 -8 -149 -12 -48 -9 -99 26 -120 83 -27 72 -31 74 -149 61
-82 -10 -114 -9 -153 1 -27 6 -52 10 -55 6 -9 -9 65 -94 114 -129 130 -94 208
-155 225 -178 28 -37 34 -94 14 -132 -16 -30 -16 -39 -2 -126 13 -83 21 -104
70 -185 88 -146 100 -177 93 -262 -4 -50 -2 -76 7 -83 6 -5 104 -15 216 -21
113 -6 215 -15 226 -21 38 -20 37 -142 -2 -224 -15 -33 -57 -65 -85 -65 -6 0
-70 -29 -141 -65 -72 -36 -142 -65 -156 -65 -69 0 -92 -29 -92 -113 0 -77 -19
-114 -94 -184 -39 -36 -89 -79 -111 -95 l-40 -29 -26 32 -26 32 -72 -66 c-40
-36 -85 -68 -99 -72 -15 -4 -49 -17 -77 -30 -31 -15 -59 -22 -73 -18 -16 4
-34 -3 -60 -24 -21 -17 -56 -40 -79 -51 -48 -25 -55 -34 -63 -81 -4 -30 -13
-40 -53 -61 -50 -26 -76 -55 -120 -132 -46 -79 -91 -97 -154 -58 -37 22 -42
48 -18 94 8 16 18 46 21 66 5 33 3 40 -16 50 -37 20 -103 -5 -165 -61 -73 -67
-133 -92 -220 -92 -107 -1 -194 9 -213 24 -9 8 -71 59 -137 113 -254 212 -254
211 -285 324 -18 64 -108 292 -198 502 -23 52 -42 109 -42 125 0 69 -57 140
-192 243 -49 36 -88 69 -88 74 0 15 -60 38 -102 38 -25 0 -56 8 -75 20 -67 40
-33 109 114 231 108 91 233 208 233 220 0 14 -99 149 -151 206 -26 29 -53 70
-60 90 -6 21 -34 85 -60 143 -50 111 -89 265 -89 358 0 27 7 89 16 138 10 61
13 113 9 166 -4 43 -4 105 0 139 7 58 10 63 75 128 l68 68 7 72 c6 59 13 80
41 119 63 86 71 102 67 126 -17 85 -168 118 -266 57 -35 -21 -69 -27 -292 -51
-49 -5 -135 -14 -189 -21 -80 -9 -107 -9 -140 2 -25 9 -86 14 -157 14 l-116 0
-37 -32 c-42 -37 -67 -40 -141 -17 -29 8 -64 12 -83 9 -28 -5 -37 -2 -57 22
-13 15 -90 102 -171 193 -341 384 -313 360 -405 341 -58 -12 -62 -11 -92 12
-66 50 -97 59 -209 65 -102 5 -111 3 -169 -23 l-61 -27 -131 12 c-114 10 -227
12 -497 7 -107 -2 -183 52 -243 174 l-32 64 -67 5 c-116 9 -127 34 -124 280
l2 165 32 47 c18 26 32 54 32 63 0 28 -41 98 -100 171 -80 98 -118 181 -150
329 -15 66 -23 74 -70 68 -37 -5 -39 -4 -60 38 -13 24 -24 46 -26 48 -2 2 -22
-9 -45 -25 -38 -26 -50 -29 -120 -29 -67 0 -82 3 -100 21 -13 14 -19 28 -15
40 7 23 96 162 164 259 68 96 115 191 114 228 0 18 10 70 23 117 13 47 31 125
40 173 27 146 118 308 284 505 48 57 89 84 124 82 54 -5 63 4 164 168 84 134
94 144 215 187 43 15 78 30 78 34 0 3 -12 39 -25 80 -13 40 -22 78 -19 82 8
13 50 11 62 -3 5 -7 17 -38 25 -68 9 -30 22 -64 30 -74 13 -18 15 -18 82 3 38
13 78 29 89 37 11 8 37 14 57 14 38 0 45 -8 63 -76 11 -37 -49 -71 -179 -104
-109 -28 -255 -88 -255 -105 0 -24 40 -128 71 -181 17 -30 44 -61 60 -69 24
-13 59 -60 59 -79 0 -3 -9 -14 -21 -25 l-20 -19 30 -61 c37 -73 67 -85 57 -22
-5 33 -2 44 16 64 31 33 203 134 302 177 49 21 95 50 118 74 37 37 40 39 88
33 81 -10 299 49 373 100 44 31 45 41 10 79 -38 41 -70 120 -77 191 -8 75 9
116 76 179 88 85 189 108 259 61z m1380 -109 c6 -13 36 -55 65 -94 59 -78 65
-98 33 -115 -26 -14 -43 1 -123 115 -54 75 -56 80 -40 97 23 26 51 24 65 -3z
m879 -15 c0 -16 -7 -37 -15 -47 -19 -26 -19 -76 0 -103 9 -12 17 -39 18 -60 2
-33 -1 -38 -21 -41 -17 -3 -34 9 -65 44 -23 26 -50 60 -60 75 l-19 29 52 59
c54 62 63 69 93 70 12 1 17 -7 17 -26z m2900 -69 c0 -30 -101 -193 -135 -216
-5 -4 -19 1 -29 12 -17 17 -18 23 -7 47 18 39 90 145 109 161 23 18 62 15 62
-4z m-1061 -10 c4 -4 -16 -59 -63 -169 -23 -53 -28 -60 -52 -58 -15 1 -29 4
-31 7 -3 3 11 45 30 93 20 48 41 101 47 117 9 24 14 27 38 21 15 -4 29 -8 31
-11z m461 -24 c11 -21 20 -48 20 -59 0 -56 25 -66 57 -22 22 28 101 81 123 81
8 0 10 -9 7 -22 -3 -13 -16 -77 -30 -143 -65 -309 -99 -402 -134 -373 -9 7
-44 56 -79 110 -35 53 -99 145 -143 203 -93 121 -99 140 -43 132 20 -4 68 -9
105 -13 l69 -7 -7 66 c-4 36 -4 70 0 76 13 22 35 10 55 -29z m-5292 18 c13
-17 40 -140 44 -203 3 -48 2 -50 -24 -53 -30 -4 -32 1 -63 157 -16 81 -16 85
1 98 22 16 29 16 42 1z m7332 -23 c0 -18 -21 -204 -25 -222 -4 -18 -12 -23
-35 -23 -16 0 -31 4 -34 8 -6 9 6 101 24 186 11 53 13 56 41 56 16 0 29 -2 29
-5z m537 -104 c-9 -45 -79 -221 -88 -221 -4 0 -19 4 -33 10 l-25 9 20 53 c12
29 27 69 35 88 7 19 18 47 24 63 8 22 16 27 41 27 29 0 31 -2 26 -29z m-4262
-146 c0 -119 0 -120 -24 -123 -39 -6 -43 8 -35 132 l7 117 26 -3 26 -3 0 -120z
m-777 53 c3 -15 -94 -184 -125 -218 -11 -13 -16 -12 -33 6 -24 23 -26 17 55
152 43 72 53 83 75 80 13 -2 26 -10 28 -20z m-420 -111 c66 -97 73 -111 59
-124 -9 -9 -23 -12 -35 -9 -24 8 -162 212 -162 241 0 4 14 5 32 3 29 -3 41
-15 106 -111z m-2856 23 c5 -19 22 -75 38 -125 40 -127 41 -139 9 -143 -21 -2
-31 4 -48 33 -11 20 -21 50 -21 66 0 16 -9 48 -21 71 -12 23 -27 59 -35 81
-17 47 -8 59 40 55 25 -3 31 -9 38 -38z m3561 -58 c51 -106 58 -142 29 -142
-26 0 -44 22 -96 124 -42 83 -44 90 -28 102 34 26 46 15 95 -84z m2565 45 c4
-18 -57 -131 -105 -194 -24 -33 -54 -42 -82 -24 -11 7 -7 22 24 77 21 38 54
91 73 117 28 39 39 48 61 45 15 -2 27 -10 29 -21z m-998 -17 c12 -8 12 -18 -4
-83 -26 -104 -27 -104 99 -81 23 4 35 0 49 -15 30 -33 51 -26 77 27 30 59 62
73 121 52 56 -20 83 -59 82 -119 -1 -92 -67 -161 -154 -161 -26 0 -82 9 -126
21 -53 13 -94 18 -125 14 l-46 -5 -6 42 c-6 47 -27 68 -69 68 -21 0 -28 5 -28
19 0 22 61 171 85 207 17 26 23 28 45 14z m2600 -63 c0 -1 -7 -57 -15 -122 -8
-66 -15 -121 -15 -122 0 -2 -16 -3 -36 -3 l-37 0 7 53 c4 28 12 85 18 125 l12
72 33 0 c18 0 33 -1 33 -3z m462 -63 c6 -6 -45 -161 -68 -206 -15 -28 -56 -39
-69 -18 -3 5 7 47 24 92 50 143 48 138 79 138 16 0 31 -3 34 -6z m-5137 -104
c9 -27 21 -52 26 -55 5 -4 9 -21 9 -39 0 -33 -16 -56 -43 -60 -8 -1 -26 -10
-41 -20 -25 -16 -29 -16 -52 -1 -28 18 -29 30 -9 78 8 20 12 43 9 51 -11 28
37 96 67 96 12 0 22 -15 34 -50z m991 18 c4 -7 7 -59 6 -118 -2 -110 -10 -130
-54 -130 -15 0 -17 7 -13 43 3 23 7 81 11 130 5 76 8 87 24 87 10 0 22 -5 26
-12z m944 -158 c13 -8 11 -20 -13 -88 -54 -159 -61 -168 -102 -138 -17 13 -17
17 20 112 49 128 57 138 95 114z m2685 -142 c-7 -58 -23 -153 -31 -180 -5 -17
-53 -26 -66 -13 -5 5 -1 38 23 178 l11 67 35 0 35 0 -7 -52z m385 16 c0 -23
-59 -195 -72 -211 -6 -7 -21 -13 -34 -13 -29 0 -31 22 -9 101 36 127 43 139
81 139 25 0 34 -4 34 -16z m-131 -349 c4 -5 -35 -127 -61 -187 -22 -51 -39
-63 -68 -48 -17 9 -16 16 21 120 21 61 41 115 45 121 5 9 52 4 63 -6z"/>
<path d="M2519 7880 c-46 -24 -95 -80 -104 -119 -7 -33 10 -74 43 -105 19 -16
32 -17 123 -11 l101 7 -7 32 c-3 17 -10 54 -15 83 -11 67 -32 106 -65 121 -33
15 -33 15 -76 -8z"/>
<path d="M2690 7555 c0 -18 5 -25 20 -25 23 0 24 4 10 31 -15 27 -30 24 -30
-6z"/>
<path d="M2459 7504 c-11 -14 -9 -15 16 -12 16 1 30 9 33 16 6 18 -33 15 -49
-4z"/>
<path d="M2975 7455 c-31 -11 -48 -12 -73 -4 -27 9 -38 8 -60 -7 -15 -10 -47
-19 -72 -20 -25 -2 -62 -6 -82 -9 -24 -5 -38 -3 -38 3 0 12 -28 42 -39 42 -4
0 -36 -19 -70 -41 -68 -47 -195 -92 -391 -140 l-127 -32 1 -61 c1 -57 0 -61
-23 -64 -28 -4 -51 20 -51 54 0 43 -12 41 -165 -32 -80 -39 -148 -92 -140
-112 22 -56 56 -195 51 -207 -8 -23 -55 -18 -77 8 -10 12 -21 37 -25 55 -4 19
-13 36 -20 39 -21 8 -44 -16 -44 -46 0 -56 125 -297 180 -346 11 -10 32 -45
47 -77 14 -32 32 -63 39 -69 8 -6 11 -21 9 -33 -3 -11 -1 -72 4 -135 11 -130
4 -155 -55 -221 -81 -90 -175 -140 -299 -160 -89 -14 -132 -2 -180 51 -34 38
-37 46 -32 85 5 52 -4 68 -72 114 -50 34 -81 79 -81 117 0 18 -8 32 -63 111
l-29 41 27 54 c14 30 83 124 152 208 136 167 193 248 193 276 0 10 -20 51 -45
91 -38 61 -45 79 -40 105 5 24 1 39 -13 57 -46 59 -112 228 -112 288 0 24 0
25 -20 7 -11 -10 -20 -23 -20 -30 0 -19 -94 -148 -134 -183 -31 -27 -45 -32
-86 -32 l-48 0 -63 -82 c-34 -46 -75 -99 -90 -118 -15 -19 -50 -79 -79 -133
-42 -80 -55 -117 -70 -200 -10 -56 -27 -129 -38 -161 -13 -38 -18 -67 -12 -80
18 -49 -72 -220 -177 -339 -35 -38 -63 -73 -63 -78 0 -19 21 -17 65 6 43 23
76 30 128 26 10 0 22 -12 27 -26 9 -24 62 -59 73 -49 10 11 47 -17 62 -46 8
-16 29 -81 45 -145 37 -144 47 -163 128 -249 82 -88 109 -146 117 -253 l6 -81
-37 -30 c-37 -31 -37 -31 -31 -90 4 -32 2 -88 -4 -123 -15 -95 -11 -103 63
-117 82 -15 104 -34 149 -121 53 -104 71 -121 133 -120 28 0 80 3 116 7 72 8
273 -1 420 -18 l95 -12 65 31 c56 27 76 31 145 31 96 0 167 -18 257 -63 59
-30 69 -32 90 -21 49 28 112 13 167 -39 18 -18 74 -79 124 -137 206 -239 281
-322 318 -354 36 -30 43 -33 68 -23 23 8 33 6 60 -14 l33 -24 37 42 36 43 135
-5 c74 -3 161 -10 192 -16 58 -12 103 -8 324 22 40 6 98 11 130 13 41 2 76 11
114 31 50 26 64 29 155 28 157 -1 211 -32 254 -148 33 -88 29 -108 -34 -171
-68 -68 -75 -81 -75 -136 0 -73 -16 -109 -81 -174 l-61 -61 -3 -134 c-2 -74
-11 -182 -20 -241 -15 -103 -15 -109 3 -145 11 -21 22 -66 25 -100 4 -39 18
-85 35 -120 16 -32 37 -80 46 -108 22 -68 51 -114 80 -125 27 -10 57 -48 79
-102 8 -20 38 -69 66 -109 28 -40 51 -76 51 -81 0 -23 -222 -226 -347 -318
-37 -27 -35 -40 7 -40 57 0 95 -25 237 -161 109 -103 183 -197 183 -232 0 -16
14 -59 30 -97 17 -38 30 -78 30 -89 0 -11 15 -55 34 -98 18 -43 64 -161 102
-262 80 -215 91 -230 281 -383 132 -106 156 -122 181 -114 10 3 33 1 52 -4 54
-16 112 6 185 70 72 63 132 89 227 97 54 5 72 2 93 -11 36 -24 58 -77 45 -111
-6 -15 -10 -33 -10 -42 0 -13 3 -13 15 -3 8 7 15 18 15 24 0 18 60 96 74 96
26 0 50 28 51 60 0 30 6 36 70 71 150 83 250 129 275 129 18 0 66 28 141 83
63 46 121 86 130 90 9 3 29 -1 45 -9 26 -14 29 -13 67 23 47 46 67 82 67 121
0 50 21 137 39 161 12 15 44 30 102 46 93 26 326 134 351 162 9 10 18 27 20
38 3 19 -4 20 -167 27 -228 9 -317 27 -330 67 -3 12 -1 54 6 94 15 91 6 123
-85 287 -58 105 -64 123 -76 209 -10 75 -10 102 0 132 10 30 10 44 0 69 -17
40 -72 88 -137 116 -45 20 -66 41 -152 148 -129 162 -144 208 -85 271 36 40
72 33 146 -25 l62 -51 144 3 143 3 42 -45 c23 -25 49 -56 58 -70 l16 -24 76
12 c74 13 145 9 195 -9 14 -6 30 -4 42 3 15 10 22 9 38 -5 24 -22 31 -21 59 5
30 28 75 26 122 -5 20 -14 82 -68 139 -120 117 -110 137 -120 163 -86 20 26
23 73 10 151 -13 79 15 119 104 148 22 7 60 28 84 46 48 37 61 39 191 25 43
-5 99 -4 130 1 56 10 209 53 245 69 11 5 38 15 60 22 29 10 44 23 56 47 18 36
30 45 92 64 23 7 62 27 86 44 42 30 46 31 115 25 81 -6 102 5 113 59 4 22 16
34 49 50 55 25 182 142 190 174 9 35 -26 77 -289 349 -128 132 -248 259 -266
282 l-34 43 25 38 c14 21 51 67 82 103 31 35 59 75 63 88 3 13 -2 59 -12 102
-15 67 -16 85 -6 120 19 62 51 89 105 89 37 0 52 6 82 32 30 26 39 30 52 20
10 -7 23 -15 30 -18 12 -6 238 99 277 129 30 23 12 31 -77 38 -96 7 -117 25
-115 95 2 36 -3 47 -35 78 -47 46 -55 83 -29 138 37 78 108 183 132 195 13 6
59 28 102 47 90 41 180 107 233 172 21 25 55 52 76 61 21 8 38 19 38 24 0 14
-79 69 -137 96 -28 13 -82 30 -119 38 -68 14 -68 14 -137 -16 -48 -22 -78 -29
-96 -24 -84 21 -175 36 -187 31 -8 -3 -21 -24 -30 -46 -17 -43 -47 -63 -81
-54 -11 3 -47 -2 -80 -10 -79 -21 -114 -20 -199 3 -124 33 -219 89 -200 119 2
4 26 18 52 31 41 21 56 23 125 18 l79 -6 6 27 c4 15 22 58 40 95 19 39 34 83
34 104 0 64 49 134 146 210 27 21 28 24 12 36 -9 7 -50 26 -90 42 -170 66
-253 107 -294 145 -50 46 -55 47 -78 21 -19 -21 -94 -41 -155 -41 -28 0 -47 8
-78 35 -50 43 -73 52 -140 54 -48 1 -54 -1 -67 -26 -36 -66 -87 -99 -135 -86
-21 5 -54 73 -70 143 -12 54 -23 65 -49 51 -29 -15 -74 -14 -97 3 -14 10 -20
28 -21 62 -1 27 -3 52 -3 56 -2 17 -55 68 -69 68 -10 0 -36 -10 -59 -22 -35
-19 -45 -20 -67 -10 -30 13 -33 42 -12 112 9 30 21 49 38 57 29 15 216 33 334
33 84 0 125 15 109 40 -10 16 -261 7 -400 -15 -49 -7 -130 -17 -180 -20 -69
-6 -100 -13 -133 -32 -38 -23 -54 -25 -140 -24 -136 1 -153 -7 -112 -51 11
-12 20 -27 20 -34 0 -26 -84 -46 -227 -54 -156 -9 -189 -19 -284 -85 -63 -45
-189 -105 -218 -105 -15 0 -38 -22 -73 -70 -39 -54 -56 -70 -72 -68 -20 3 -21
6 -13 52 1 4 -36 10 -83 11 -83 3 -291 41 -387 70 -27 8 -56 15 -65 15 -16 0
-55 -71 -122 -222 -14 -32 -30 -58 -36 -58 -5 0 -18 19 -27 43 -52 132 -157
320 -231 413 -44 56 -86 103 -94 107 -26 9 -260 8 -342 -3 -85 -11 -106 -21
-107 -54 0 -21 0 -21 -9 2 -7 17 -17 22 -43 22 -18 0 -38 -5 -44 -11 -6 -6
-48 -12 -94 -14 -139 -6 -179 -14 -189 -39 -17 -45 -60 -86 -91 -86 -35 0 -39
25 -9 63 25 32 14 40 -36 25 -21 -7 -87 -12 -145 -11 -109 0 -175 18 -223 61
-24 22 -66 110 -66 142 -1 14 -7 42 -14 62 -11 29 -11 41 -2 54 19 25 -68 150
-136 196 -135 90 -198 114 -198 73 0 -19 -40 -84 -68 -108 -17 -16 -21 -16
-34 -3 -9 8 -18 33 -22 54 -9 60 -42 129 -64 136 -11 4 -53 11 -94 15 -40 5
-80 11 -88 15 -8 3 -33 -1 -55 -9z m-891 -483 c14 -51 38 -222 33 -236 -4 -9
-18 -16 -31 -16 -27 0 -33 13 -62 150 -19 91 -18 109 9 119 27 10 45 4 51 -17z
m5096 -177 c16 -20 9 -38 -63 -140 -50 -72 -68 -90 -87 -90 -37 0 -37 33 0
104 36 72 95 141 120 141 10 0 23 -7 30 -15z m-5421 -96 c22 -36 64 -196 56
-210 -4 -5 -17 -9 -29 -9 -28 0 -50 31 -78 108 -31 91 -32 98 -9 121 28 28 38
27 60 -10z m3080 -3 c36 -38 122 -180 119 -196 -5 -24 -38 -23 -65 2 -23 21
-123 164 -123 176 0 8 32 42 40 42 3 0 17 -11 29 -24z m-2683 -133 c3 -21 11
-64 18 -95 l11 -57 88 39 c49 21 95 44 103 51 8 6 17 9 20 7 3 -3 -6 -50 -19
-104 -13 -55 -44 -181 -68 -281 -24 -102 -48 -183 -54 -183 -6 0 -33 30 -60
68 -81 111 -218 282 -225 282 -4 0 -31 22 -59 48 l-53 49 63 6 c34 4 86 7 115
7 29 0 55 4 59 10 3 5 1 46 -5 91 -5 45 -7 85 -4 90 3 5 18 9 34 9 26 0 30 -4
36 -37z m2028 4 c16 -12 16 -14 -1 -37 -10 -14 -41 -62 -68 -107 -27 -46 -54
-83 -60 -83 -7 0 -20 8 -29 19 -16 18 -15 22 23 82 92 148 98 153 135 126z
m2769 -138 c7 -12 0 -33 -31 -85 -23 -38 -54 -85 -70 -104 -27 -32 -31 -33
-56 -22 -14 6 -26 16 -26 22 0 11 92 173 113 198 13 17 57 11 70 -9z m-1825
-152 c39 -60 72 -113 72 -118 0 -5 -7 -12 -16 -16 -10 -4 -30 8 -56 33 -50 49
-128 156 -128 177 0 17 28 38 45 34 6 -2 43 -51 83 -110z m-3251 27 c85 -143
105 -239 45 -220 -22 7 -102 182 -102 223 0 57 23 55 57 -3z m4309 5 c5 -9
-70 -204 -87 -225 -14 -17 -49 -5 -49 16 0 15 8 39 55 170 9 25 21 48 27 51
12 8 46 0 54 -12z m-792 -46 c3 -16 13 -71 21 -123 9 -52 29 -164 45 -247 17
-84 30 -155 30 -158 0 -17 -64 15 -379 193 -120 68 -132 77 -115 89 10 7 25
13 33 13 23 0 151 50 189 74 18 12 60 58 94 104 33 45 64 82 69 82 4 0 10 -12
13 -27z m-1401 -45 c9 -13 -1 -37 -49 -115 -59 -97 -81 -116 -109 -93 -16 14
-6 38 68 163 31 52 44 67 60 65 11 -2 25 -11 30 -20z m2747 -123 c10 -12 5
-28 -30 -87 -24 -40 -56 -90 -72 -110 -28 -36 -30 -37 -54 -22 -13 9 -24 24
-24 33 0 15 83 145 118 184 19 21 45 22 62 2z m-4702 -225 c50 -140 50 -140
13 -140 -38 0 -49 17 -89 131 -33 93 -30 113 17 107 21 -3 29 -16 59 -98z
m4001 72 c7 -13 2 -40 -18 -98 -38 -109 -47 -124 -76 -124 -13 0 -26 4 -29 9
-7 10 58 197 75 217 16 19 36 17 48 -4z m-2236 -68 c11 -11 -53 -126 -110
-197 -13 -16 -23 -34 -23 -41 0 -18 39 -36 132 -61 45 -12 83 -26 85 -31 2 -5
-18 -20 -44 -34 -27 -14 -131 -80 -232 -147 -168 -112 -217 -141 -226 -131 -1
1 4 38 11 82 8 43 21 162 29 265 16 189 21 221 34 221 4 0 44 -37 90 -82 l84
-83 12 50 c15 65 50 144 77 172 20 21 67 31 81 17z m2715 -132 c5 -34 -47
-129 -90 -167 -29 -24 -35 -35 -26 -42 14 -10 133 -47 185 -58 18 -4 35 -10
38 -15 3 -5 -36 -32 -87 -61 -51 -28 -145 -84 -209 -124 -126 -80 -218 -129
-226 -122 -2 3 6 54 20 114 13 59 37 188 53 285 17 104 34 178 40 178 6 0 37
-36 68 -80 32 -44 59 -80 61 -80 1 0 18 30 36 66 59 115 128 169 137 106z
m-4187 -281 c-18 -264 -32 -382 -47 -379 -18 4 -434 406 -434 419 0 4 28 7 63
5 34 -2 84 -1 110 2 l48 4 -3 47 c-3 44 -2 46 24 49 22 3 32 -4 53 -37 14 -23
29 -41 33 -41 5 0 19 12 33 26 13 15 47 45 74 67 42 33 51 37 53 22 2 -10 -1
-92 -7 -184z m3587 112 c2 -12 -11 -56 -28 -99 -38 -97 -35 -101 83 -110 48
-4 87 -10 87 -15 0 -7 -356 -342 -391 -368 -11 -8 -22 -11 -26 -8 -6 7 -26
528 -21 561 3 18 15 10 79 -51 41 -40 81 -73 87 -73 7 0 12 12 12 26 0 24 42
125 63 152 16 20 52 10 55 -15z m3079 -49 c7 -19 -33 -152 -64 -213 -12 -24
-21 -47 -18 -51 3 -5 57 -11 120 -15 80 -5 115 -11 115 -20 0 -6 -38 -42 -84
-78 -46 -37 -140 -121 -209 -187 -69 -66 -131 -120 -139 -120 -14 0 -30 168
-45 470 -7 120 -16 118 97 22 34 -29 70 -52 79 -50 11 2 18 18 22 53 8 61 53
175 76 193 23 17 42 15 50 -4z"/>
<path d="M5300 6865 c0 -9 19 -24 44 -35 24 -10 47 -23 50 -29 9 -14 36 -14
36 -1 0 6 -12 16 -27 22 -16 7 -45 23 -65 35 -31 19 -38 20 -38 8z"/>
<path d="M1423 6734 c-10 -15 -54 -65 -98 -113 -44 -47 -106 -124 -138 -171
l-58 -86 31 -60 c32 -65 50 -85 129 -149 56 -45 83 -92 81 -138 -3 -51 -1 -56
24 -72 21 -14 30 -14 86 -1 71 17 125 51 181 114 46 53 59 93 59 184 0 94 -30
169 -95 238 -54 58 -93 117 -139 213 -16 31 -32 60 -37 62 -4 3 -16 -6 -26
-21z"/>
<path d="M6915 7230 c-7 -12 2 -12 30 0 19 8 19 9 -2 9 -12 1 -25 -3 -28 -9z"/>
<path d="M6848 7203 c-20 -5 -23 -19 -7 -29 12 -7 59 15 59 28 0 8 -22 9 -52
1z"/>
</g>
</svg>
