<?xml version="1.0" standalone="no"?>
<!DOCTYPE svg PUBLIC "-//W3C//DTD SVG 20010904//EN"
 "http://www.w3.org/TR/2001/REC-SVG-20010904/DTD/svg10.dtd">
<svg version="1.0" xmlns="http://www.w3.org/2000/svg"
 width="336.000000pt" height="376.000000pt" viewBox="0 0 336.000000 376.000000"
 preserveAspectRatio="xMidYMid meet">
<metadata>
Created by potrace 1.16, written by Peter Selinger 2001-2019
</metadata>
<g transform="translate(0.000000,376.000000) scale(0.100000,-0.100000)"
fill="#000000" stroke="none">
<path d="M0 1880 l0 -1880 1680 0 1680 0 0 1880 0 1880 -1680 0 -1680 0 0
-1880z m1661 1713 c162 -171 329 -444 385 -629 25 -80 27 -105 28 -244 0 -121
-4 -170 -18 -225 -43 -160 -137 -314 -287 -470 l-96 -101 -8 -315 c-4 -173 -4
-361 0 -417 l8 -102 93 97 94 98 -6 65 c-13 146 37 395 110 544 145 297 432
464 896 521 176 21 215 20 234 -7 43 -62 -13 -448 -93 -645 -130 -317 -348
-497 -687 -567 -65 -14 -285 -36 -354 -36 -58 0 -164 -115 -226 -245 -45 -94
-64 -187 -64 -321 0 -61 -3 -199 -7 -307 l-6 -197 -58 0 -57 0 -4 338 c-5 369
-9 401 -69 512 -38 73 -119 171 -167 203 -34 23 -49 25 -182 31 -172 7 -296
31 -413 79 -348 142 -561 491 -607 993 -13 149 -8 169 50 179 128 22 498 -51
665 -130 276 -131 460 -362 514 -645 17 -87 30 -260 24 -311 l-5 -47 87 -93
c48 -52 91 -95 96 -97 10 -4 12 684 3 764 -6 48 -13 59 -96 150 -335 371 -397
741 -191 1148 94 188 308 466 358 466 12 0 37 -17 56 -37z"/>
<path d="M1549 3387 c-201 -269 -268 -423 -276 -640 -7 -161 8 -232 83 -382
50 -100 143 -235 163 -235 4 0 11 152 14 337 5 259 10 340 20 350 23 23 81 27
100 8 15 -15 17 -52 17 -362 0 -268 3 -344 12 -341 17 6 151 190 187 258 105
195 98 478 -18 708 -67 133 -222 362 -244 362 -7 -1 -33 -29 -58 -63z"/>
<path d="M230 2280 c0 -25 31 -213 45 -273 48 -206 148 -395 266 -501 100 -90
223 -146 399 -181 178 -36 190 -37 190 -24 0 7 -105 118 -234 248 -128 130
-238 246 -245 258 -9 18 -7 26 15 53 20 23 31 29 48 24 32 -10 114 -82 314
-278 100 -98 185 -176 188 -173 10 9 -16 188 -37 260 -46 156 -129 287 -237
372 -74 59 -233 136 -347 169 -154 44 -365 71 -365 46z"/>
<path d="M2805 2274 c-475 -74 -733 -300 -798 -699 -32 -190 -57 -198 213 69
201 199 243 236 267 236 32 0 73 -35 73 -62 0 -9 -102 -121 -226 -250 -124
-128 -230 -242 -236 -252 -10 -18 -7 -19 53 -13 109 10 220 37 309 74 308 131
456 379 514 866 l6 47 -43 -1 c-23 -1 -82 -8 -132 -15z"/>
</g>
</svg>
