<?xml version="1.0" standalone="no"?>
<!DOCTYPE svg PUBLIC "-//W3C//DTD SVG 20010904//EN"
 "http://www.w3.org/TR/2001/REC-SVG-20010904/DTD/svg10.dtd">
<svg version="1.0" xmlns="http://www.w3.org/2000/svg"
 width="740.000000pt" height="724.000000pt" viewBox="0 0 740.000000 724.000000"
 preserveAspectRatio="xMidYMid meet">
<metadata>
Created by potrace 1.16, written by Peter Selinger 2001-2019
</metadata>
<g transform="translate(0.000000,724.000000) scale(0.100000,-0.100000)"
fill="#000000" stroke="none">
<path d="M0 4121 l0 -3119 41 -35 42 -34 -42 -29 -41 -29 0 -437 0 -438 1955
0 c1684 0 1954 2 1949 14 -3 8 1 25 10 38 21 32 118 247 241 533 178 415 387
889 401 910 8 11 14 23 14 27 0 5 -81 8 -181 8 l-181 0 -50 -44 c-77 -67 -93
-74 -126 -50 -44 33 -100 123 -128 209 -21 62 -28 106 -32 195 -9 237 54 429
231 700 l75 114 -27 36 c-16 19 -36 50 -45 68 l-17 33 -167 -161 c-190 -181
-232 -215 -259 -206 -28 9 -77 59 -268 271 -93 104 -185 205 -203 225 -33 34
-33 34 -28 8 3 -14 13 -84 21 -155 25 -216 34 -281 72 -496 42 -241 52 -202
-88 -326 -47 -42 -173 -155 -279 -251 -585 -530 -762 -690 -1030 -931 -593
-533 -635 -569 -662 -569 -19 0 -68 50 -218 220 -74 85 -171 194 -216 244 -44
50 -172 199 -284 331 -113 132 -238 279 -280 327 -41 48 -84 103 -95 124 l-19
36 59 52 c33 28 132 116 220 196 165 150 304 274 580 518 88 78 219 194 290
259 72 65 225 201 340 303 115 102 270 240 343 308 172 158 249 222 268 222 9
0 86 -20 173 -45 143 -40 561 -150 621 -163 23 -5 23 -4 -10 39 -84 106 -251
301 -412 481 -217 242 -271 306 -287 346 -12 28 -11 34 13 65 14 18 68 72 118
119 51 47 131 121 177 165 l85 79 -29 40 c-16 21 -32 43 -36 47 -3 5 -13 2
-20 -5 -8 -7 -70 -63 -139 -123 -197 -175 -210 -182 -232 -126 -10 25 -144
408 -154 442 -4 11 14 32 53 65 32 27 110 96 173 154 137 126 358 325 443 398
34 28 69 52 79 52 20 0 363 -179 410 -213 15 -11 28 -26 28 -33 0 -11 -262
-265 -281 -272 -17 -7 -9 -28 24 -60 18 -18 37 -32 41 -32 10 0 47 33 241 213
81 75 156 137 166 137 20 0 260 -263 538 -590 214 -251 209 -245 216 -238 3 3
-8 115 -24 249 -60 481 -74 620 -65 639 5 11 86 88 180 172 94 84 269 241 390
349 120 108 289 258 374 334 85 76 260 233 389 349 129 116 279 251 335 299
56 49 150 132 209 185 160 143 210 182 232 182 25 0 61 -37 226 -230 230 -270
489 -569 665 -769 145 -166 194 -229 194 -251 0 -11 -42 -57 -97 -108 -136
-124 -521 -471 -623 -562 -47 -41 -139 -124 -205 -185 -182 -166 -395 -359
-515 -465 -59 -52 -209 -187 -334 -300 -125 -113 -253 -225 -284 -250 l-56
-44 -105 28 c-58 16 -216 57 -351 92 -135 35 -269 71 -298 79 -30 9 -56 15
-58 13 -6 -7 36 -61 206 -258 200 -233 258 -307 267 -340 7 -27 -4 -38 -265
-272 l-123 -111 36 -36 c19 -20 41 -45 49 -56 14 -19 17 -18 133 39 151 75
247 110 372 136 235 48 434 12 602 -109 52 -37 119 -119 119 -145 0 -6 -34
-43 -76 -83 l-77 -72 -8 -93 c-5 -51 -24 -219 -43 -373 -20 -154 -42 -356 -51
-450 -8 -93 -18 -198 -21 -231 -4 -51 -10 -66 -35 -90 l-30 -29 -255 3 c-140
2 -254 1 -254 -3 0 -4 22 -57 49 -119 124 -282 435 -996 451 -1036 10 -25 45
-105 79 -178 33 -73 64 -144 67 -157 l6 -25 919 0 919 0 0 206 c0 136 -3 203
-10 199 -6 -4 -56 34 -113 83 -351 307 -454 396 -647 562 -118 101 -258 223
-310 270 -52 48 -128 112 -167 144 -40 31 -73 59 -73 61 0 14 36 75 44 76 6 0
58 0 116 0 58 -1 342 -3 633 -6 l527 -5 0 2825 0 2825 -3700 0 -3700 0 0
-3119z"/>
<path d="M4250 4880 c0 -12 4 -51 10 -88 5 -37 22 -175 36 -307 14 -132 29
-243 33 -247 3 -4 123 -36 266 -72 143 -37 271 -70 285 -75 87 -32 87 -28 -7
86 -142 174 -293 353 -358 423 -58 63 -165 184 -233 263 -27 32 -32 35 -32 17z"/>
<path d="M2468 3075 c74 -80 455 -526 560 -656 35 -44 67 -79 71 -79 5 0 4 21
0 48 -5 26 -22 168 -39 316 -16 149 -34 274 -39 279 -5 5 -81 26 -168 47 -88
21 -224 57 -302 79 -78 23 -144 41 -147 41 -4 0 25 -34 64 -75z"/>
<path d="M5424 2629 c-16 -17 -94 -90 -174 -162 -80 -72 -175 -160 -212 -195
l-67 -65 72 -86 c185 -223 300 -352 307 -344 4 4 15 76 24 158 9 83 26 215 36
295 11 80 27 202 35 272 8 69 18 133 21 142 10 26 -10 18 -42 -15z"/>
<path d="M4749 2017 c-159 -140 -379 -348 -379 -359 0 -4 52 -8 115 -8 63 0
115 4 115 9 0 4 27 48 60 97 33 49 60 94 60 101 0 30 21 7 74 -83 31 -52 56
-99 56 -104 0 -16 62 -21 231 -18 l166 3 -184 230 c-102 127 -188 231 -191
232 -4 2 -59 -43 -123 -100z"/>
<path d="M4720 1784 c-14 -36 -13 -42 10 -54 11 -6 20 -8 20 -4 0 3 6 1 13 -5
25 -20 26 1 4 45 -26 50 -34 54 -47 18z"/>
<path d="M4790 1675 c0 -20 5 -25 25 -25 25 0 25 1 9 25 -9 14 -20 25 -25 25
-5 0 -9 -11 -9 -25z"/>
<path d="M4673 1503 c-12 -34 -361 -848 -428 -998 -132 -298 -205 -472 -205
-489 0 -15 56 -16 690 -16 580 0 691 2 696 14 6 16 -45 143 -176 436 -50 113
-157 356 -237 540 -80 184 -164 378 -187 430 l-43 95 -52 3 c-42 3 -52 0 -58
-15z"/>
<path d="M6431 1480 l-125 -5 81 -65 c44 -36 147 -123 228 -195 82 -71 242
-211 355 -310 l207 -180 111 3 112 3 0 380 0 379 -422 -2 c-233 -1 -479 -5
-547 -8z"/>
<path d="M4880 1401 c0 -6 4 -13 10 -16 6 -3 7 1 4 9 -7 18 -14 21 -14 7z"/>
<path d="M4906 1348 c13 -43 23 -68 28 -68 3 0 -2 20 -11 45 -15 45 -31 65
-17 23z"/>
<path d="M4951 1240 c0 -8 6 -26 14 -40 8 -14 14 -19 14 -10 0 8 -6 26 -14 40
-8 14 -14 19 -14 10z"/>
<path d="M4995 1133 c16 -38 33 -62 22 -30 -4 11 -10 30 -13 43 -3 13 -10 24
-15 24 -5 0 -2 -17 6 -37z"/>
<path d="M5031 1053 c5 -16 18 -46 28 -68 10 -22 21 -49 25 -59 4 -10 9 -16
12 -13 3 3 0 15 -6 27 -6 12 -9 32 -6 45 3 13 2 27 -4 30 -6 3 -7 -1 -4 -9 14
-36 -7 -12 -26 29 -22 49 -36 61 -19 18z"/>
<path d="M5050 1061 c0 -6 4 -13 10 -16 6 -3 7 1 4 9 -7 18 -14 21 -14 7z"/>
<path d="M15 940 c-3 -5 -1 -10 4 -10 6 0 11 5 11 10 0 6 -2 10 -4 10 -3 0 -8
-4 -11 -10z"/>
<path d="M5120 901 c0 -7 -4 -9 -10 -6 -15 9 -12 -6 10 -45 11 -21 19 -28 20
-18 0 9 -4 20 -10 23 -5 3 -10 14 -10 23 0 13 2 13 16 -4 14 -18 14 -18 3 6
-15 32 -19 36 -19 21z"/>
<path d="M5154 828 c3 -9 0 -18 -6 -20 -6 -2 18 -69 57 -158 186 -428 268
-610 273 -606 2 3 -2 20 -11 38 -8 18 -22 51 -32 73 -9 22 -21 48 -26 57 -14
28 -10 44 6 22 13 -17 13 -16 3 13 -8 21 -15 28 -20 20 -4 -7 -13 2 -23 25
-19 46 -19 61 0 28 19 -33 19 -21 0 24 -14 34 -31 53 -19 21 13 -32 -7 -13
-21 21 -19 45 -19 57 0 24 8 -14 14 -22 15 -18 0 12 -62 152 -73 163 -7 7 -8
6 -3 -2 4 -7 5 -13 2 -13 -6 0 -36 55 -36 66 0 4 7 -1 15 -12 21 -27 18 -5 -5
36 -11 19 -19 28 -20 21 0 -23 -17 0 -24 34 l-6 30 15 -25 c8 -14 14 -20 14
-15 0 6 -9 26 -20 45 -12 21 -17 26 -14 13 10 -36 -3 -27 -20 13 -18 43 -18
47 -5 39 14 -9 12 6 -6 35 -8 14 -13 17 -10 8z m159 -368 c3 -11 1 -18 -4 -14
-5 3 -9 12 -9 20 0 20 7 17 13 -6z"/>
<path d="M7322 604 c4 -22 53 -58 67 -50 6 4 11 20 11 37 0 27 -2 29 -41 29
-32 0 -40 -3 -37 -16z"/>
<path d="M5436 187 c3 -10 9 -15 12 -12 3 3 0 11 -7 18 -10 9 -11 8 -5 -6z"/>
<path d="M5450 156 c0 -11 40 -86 45 -86 3 0 -4 19 -16 43 -23 45 -29 54 -29
43z"/>
</g>
</svg>
